<?xml version="1.0" standalone="no"?>
<!DOCTYPE svg PUBLIC "-//W3C//DTD SVG 20010904//EN"
 "http://www.w3.org/TR/2001/REC-SVG-20010904/DTD/svg10.dtd">
<svg version="1.0" xmlns="http://www.w3.org/2000/svg"
 width="900.000000pt" height="1600.000000pt" viewBox="0 0 900.000000 1600.000000"
 preserveAspectRatio="xMidYMid meet">
<metadata>
Created by potrace 1.16, written by Peter Selinger 2001-2019
</metadata>
<g transform="translate(0.000000,1600.000000) scale(0.100000,-0.100000)"
fill="#000000" stroke="none">
<path d="M2570 12748 c-39 -17 -143 -64 -170 -77 -14 -6 -17 -9 -6 -6 13 4 17
1 13 -8 -5 -14 95 30 101 44 2 4 12 5 22 2 11 -3 31 2 45 11 28 19 35 20 35 6
0 -5 -7 -10 -15 -10 -8 0 -15 -4 -15 -9 0 -5 -17 -11 -37 -15 -21 -3 -75 -28
-119 -55 -45 -27 -92 -52 -104 -56 -15 -5 -19 -10 -12 -17 7 -7 28 -1 66 21
31 17 60 31 66 31 22 0 8 -18 -27 -36 -21 -10 -49 -29 -62 -41 -13 -13 -29
-23 -36 -23 -7 0 -35 -15 -63 -33 -41 -28 -47 -35 -33 -44 13 -9 11 -12 -15
-26 -17 -9 -46 -36 -65 -61 -33 -44 -49 -56 -49 -37 0 5 3 11 8 13 4 2 20 21
36 42 l29 39 -34 -19 c-19 -10 -36 -22 -39 -25 -3 -3 -21 -25 -40 -47 -32 -40
-60 -54 -60 -32 0 6 10 18 21 28 12 9 60 51 108 92 47 41 108 88 133 104 26
17 46 31 44 33 -5 5 -94 -53 -165 -106 -30 -22 -57 -38 -61 -36 -4 3 -13 -2
-20 -10 -11 -13 -10 -14 5 -9 15 6 16 5 4 -14 -10 -15 -16 -18 -21 -9 -6 9 -8
9 -8 0 0 -7 -6 -13 -12 -13 -12 0 -32 -26 -66 -87 -7 -13 -17 -23 -21 -23 -13
0 -19 -48 -8 -59 7 -7 7 -11 1 -11 -5 0 -15 9 -22 21 -7 12 -16 18 -19 15 -3
-3 0 -12 6 -20 10 -11 6 -24 -19 -65 -34 -55 -45 -64 -35 -28 6 21 5 21 -8 4
-8 -10 -13 -26 -11 -35 5 -20 -18 -53 -38 -56 -8 -1 -27 -11 -42 -23 -15 -12
-32 -24 -39 -26 -7 -2 -10 -7 -7 -10 3 -4 19 0 34 8 60 32 63 9 4 -31 -23 -16
-53 -39 -66 -51 -13 -12 -33 -25 -43 -28 -11 -4 -19 -11 -19 -16 0 -5 -7 -9
-17 -9 -9 0 -38 -22 -64 -49 -26 -27 -50 -46 -53 -43 -3 3 -6 -2 -6 -12 0 -9
-4 -15 -8 -12 -5 3 -33 -19 -62 -49 -59 -60 -61 -76 -2 -21 20 19 38 33 40 31
3 -2 -18 -24 -44 -49 -27 -24 -52 -40 -55 -34 -8 12 -69 -48 -69 -68 0 -9 5
-12 10 -9 15 9 12 -11 -4 -24 -11 -9 -15 -9 -19 1 -3 9 -14 4 -36 -16 -41 -39
-48 -29 -15 20 15 21 19 32 10 24 -21 -17 -87 -115 -90 -133 -1 -7 -12 -24
-24 -37 -12 -13 -22 -30 -22 -37 0 -7 -4 -21 -9 -31 -26 -48 -47 -103 -62
-161 -23 -84 -7 -65 21 27 13 40 28 76 33 79 7 4 8 -1 3 -12 -4 -11 -14 -42
-22 -69 -9 -28 -19 -62 -24 -76 -4 -14 -11 -24 -16 -23 -5 1 -10 -15 -11 -35
-1 -20 -5 -55 -9 -77 -7 -37 -8 -38 -15 -15 -5 16 -6 8 -3 -22 6 -49 -2 -92
-16 -83 -4 3 -11 -15 -15 -40 -3 -25 -10 -43 -16 -40 -5 4 -9 -12 -9 -35 0
-23 -5 -51 -12 -63 -7 -12 -11 -33 -9 -47 2 -14 0 -22 -5 -18 -9 9 -34 -23
-27 -35 8 -13 43 34 43 60 0 12 5 23 10 23 19 0 10 -56 -15 -90 -14 -19 -25
-45 -25 -59 0 -21 -33 -158 -56 -233 -2 -9 -20 -36 -39 -60 -19 -23 -38 -59
-41 -78 -4 -19 -18 -51 -30 -70 -13 -19 -24 -41 -24 -48 0 -25 46 42 94 138
26 52 51 102 56 110 8 14 15 36 50 170 6 25 11 56 11 70 -1 14 9 41 21 60 12
19 23 51 25 70 1 19 6 55 10 80 l7 45 8 -60 c10 -81 1 -153 -19 -151 -9 0 -18
-5 -21 -13 -3 -10 0 -12 12 -8 13 5 16 2 14 -11 -2 -9 -10 -16 -16 -14 -12 2
-14 -7 -14 -72 0 -22 -6 -50 -15 -62 -8 -13 -12 -31 -9 -40 4 -9 1 -24 -6 -32
-10 -12 -10 -14 0 -8 6 4 12 4 12 0 0 -17 -24 -84 -30 -84 -4 0 -7 -13 -7 -28
0 -16 -7 -43 -16 -62 -10 -18 -17 -39 -17 -46 0 -7 -6 -11 -13 -8 -8 3 -14 -1
-14 -8 -1 -53 -58 -202 -94 -250 -16 -20 -29 -41 -29 -46 0 -5 -15 -29 -33
-53 -19 -24 -40 -56 -48 -70 -29 -52 -75 -122 -90 -138 -9 -9 -44 -50 -78 -91
-34 -41 -66 -80 -71 -87 -24 -29 -70 -132 -65 -146 7 -17 -31 -31 -39 -13 -3
6 -3 -1 0 -16 4 -19 2 -28 -6 -28 -8 0 -11 -9 -8 -24 3 -16 0 -23 -10 -22 -24
2 -51 -116 -32 -139 12 -14 7 -115 -6 -115 -5 0 -16 6 -22 12 -10 10 -12 6
-10 -19 2 -34 17 -46 46 -37 16 5 16 5 0 -9 -10 -8 -18 -18 -18 -23 -1 -5 -14
-20 -30 -34 -21 -16 -30 -33 -30 -53 0 -18 4 -26 11 -21 6 3 8 17 5 30 -7 26
3 31 22 12 9 -9 12 -9 12 0 0 7 -4 12 -10 12 -5 0 -7 7 -4 15 4 8 15 15 25 15
15 0 18 -5 13 -24 -3 -15 1 -34 11 -50 12 -17 15 -36 11 -56 -3 -17 -1 -30 4
-30 6 0 10 5 10 12 0 6 3 8 7 5 3 -4 0 -18 -7 -32 -11 -20 -11 -27 0 -40 8 -9
8 -15 2 -15 -12 0 -5 -60 10 -95 6 -14 6 -10 2 13 -3 17 -2 32 3 32 11 0 33
-116 33 -175 0 -25 -4 -45 -8 -45 -4 0 -9 -12 -10 -27 -1 -16 -7 -30 -13 -31
-6 -3 -7 -8 0 -16 7 -9 3 -26 -14 -59 -35 -65 -31 -77 10 -31 l36 39 -21 -40
c-11 -22 -20 -49 -20 -60 0 -17 -44 -95 -54 -95 -2 0 -1 12 1 28 4 21 2 24 -6
12 -6 -8 -11 -26 -11 -40 -1 -27 -26 -67 -36 -57 -8 8 17 146 28 153 11 7 10
24 0 24 -17 0 -43 -75 -45 -130 -3 -61 -47 -145 -92 -174 l-25 -16 1 -173 c1
-94 3 -166 6 -159 3 6 9 9 14 6 7 -4 8 7 4 28 -5 33 8 69 21 55 4 -4 2 -13 -4
-19 -17 -17 -15 -38 3 -38 11 0 12 -6 6 -22 -5 -13 -15 -23 -22 -23 -8 0 -13
-8 -11 -17 1 -9 -2 -19 -8 -23 -13 -8 -14 -565 -1 -565 5 0 12 12 14 28 4 26
4 26 6 -4 0 -20 -5 -34 -14 -38 -13 -5 -15 -305 -15 -2616 0 -1435 2 -2610 3
-2610 2 0 19 7 38 16 41 20 79 53 79 69 0 7 9 24 20 38 11 14 20 32 20 40 0
20 49 67 71 67 11 0 16 5 14 13 -3 7 4 12 20 12 14 0 27 -7 30 -16 3 -9 17
-21 30 -27 21 -10 24 -16 19 -38 -5 -19 -4 -25 5 -20 6 4 11 14 11 22 0 17 -1
17 52 0 74 -24 96 -27 101 -13 4 9 6 9 6 0 1 -7 10 -13 20 -13 11 0 22 -6 24
-12 3 -7 6 -4 6 7 1 21 47 49 63 38 6 -3 7 4 3 18 -4 13 -4 21 -1 18 7 -7 89
66 97 86 2 6 19 18 36 28 26 14 37 16 53 7 22 -12 60 -5 60 11 0 5 9 0 20 -11
19 -19 40 -26 40 -14 0 4 -8 13 -18 20 -14 10 -15 15 -4 25 10 11 6 19 -19 41
-16 15 -39 33 -50 38 -29 16 -24 53 11 78 19 15 30 31 30 47 0 23 23 35 33 18
2 -5 3 -3 1 3 -4 20 10 31 56 42 46 11 100 6 100 -8 0 -20 -13 -40 -26 -40
-18 0 -18 -10 0 -24 14 -10 21 -46 27 -141 2 -22 5 -2 8 45 3 47 3 90 -2 96
-4 7 -1 14 8 18 8 3 15 13 15 21 0 9 5 13 10 10 6 -3 10 -1 10 4 0 6 5 11 10
11 6 0 10 -9 10 -20 0 -18 -10 -25 -33 -21 -12 2 -8 -9 9 -27 15 -14 17 -14
26 1 5 9 13 17 18 17 17 0 40 -32 40 -55 0 -27 -35 -56 -56 -48 -8 3 -14 0
-14 -7 0 -7 -7 -10 -14 -7 -10 4 -13 1 -9 -9 6 -16 33 -19 33 -4 0 6 11 10 25
10 14 0 25 -4 25 -10 0 -5 -4 -10 -10 -10 -5 0 -10 -4 -10 -10 0 -5 11 -10 24
-10 14 0 28 5 31 10 3 6 15 10 26 10 14 0 19 -7 19 -26 0 -18 4 -25 14 -21 9
4 12 0 9 -12 -3 -14 4 -21 26 -29 17 -6 31 -16 31 -21 0 -6 7 -11 15 -11 8 0
15 5 15 10 0 6 -7 10 -15 10 -22 0 -18 17 6 30 11 7 18 14 16 17 -3 2 -14 0
-24 -5 -12 -7 -25 -7 -34 -1 -11 7 -11 9 4 9 16 0 16 2 2 30 -9 17 -21 27 -28
24 -7 -2 -22 5 -33 17 l-19 22 40 -7 40 -6 -37 18 c-40 19 -94 75 -78 80 18 6
11 22 -10 22 -34 0 -22 17 18 24 54 9 62 8 62 -9 0 -11 -7 -14 -27 -10 -27 5
-27 5 -4 -5 26 -11 61 -4 73 14 15 23 7 35 -27 42 -19 3 -35 10 -35 15 0 5 -4
9 -10 9 -5 0 -7 -6 -5 -12 4 -10 -17 -14 -80 -16 -78 -2 -108 7 -69 22 22 8
26 8 19 -4 -11 -18 47 -11 92 11 23 11 46 25 49 31 9 15 -4 22 -19 10 -7 -6
-24 -9 -38 -6 -18 4 -21 3 -9 -5 21 -14 7 -23 -20 -13 -19 7 -20 10 -7 15 9 3
15 12 13 19 -1 7 -1 10 1 6 7 -12 61 -10 68 2 4 6 11 8 16 5 5 -4 9 5 9 19 0
19 10 32 40 51 42 27 60 31 60 15 0 -5 -12 -13 -27 -16 -16 -4 -34 -11 -41
-17 -14 -11 -16 -47 -2 -47 6 0 10 6 10 13 0 7 18 21 40 31 27 12 40 24 40 37
0 10 5 19 11 19 5 0 8 -4 5 -9 -3 -5 1 -14 9 -21 7 -6 11 -19 8 -27 -5 -13 -2
-15 18 -10 13 4 27 7 32 7 17 0 5 19 -15 22 -32 5 -35 28 -3 28 23 0 25 3 20
23 -5 16 -4 18 3 8 6 -8 17 -11 25 -8 10 4 17 -2 21 -16 14 -53 1 -80 -49
-102 -20 -8 -20 -8 0 -13 10 -2 21 1 23 7 6 17 39 13 46 -5 9 -24 7 -54 -4
-54 -5 0 -10 -9 -10 -20 0 -11 -4 -20 -10 -20 -5 0 -10 5 -10 11 0 5 -5 7 -11
3 -8 -5 -8 -9 1 -14 8 -5 11 -22 8 -44 -2 -20 -1 -36 3 -36 9 0 19 27 19 52 0
19 27 54 35 46 3 -2 0 -20 -5 -39 -13 -43 -13 -59 0 -59 6 0 10 11 10 24 0 29
18 49 60 68 41 18 38 26 -12 30 -29 2 -44 8 -46 18 -2 12 8 15 47 15 27 0 47
4 44 9 -3 4 -22 6 -42 2 -34 -5 -37 -3 -51 27 -8 17 -14 58 -15 89 0 53 2 57
25 62 19 4 31 -2 49 -22 13 -15 28 -27 33 -27 4 0 19 -12 33 -28 14 -15 29
-27 33 -27 4 0 12 -10 17 -22 6 -12 16 -23 23 -26 17 -5 15 27 -3 34 -26 10
-16 24 13 18 19 -4 34 0 45 10 20 20 27 20 27 1 0 -8 -4 -15 -9 -15 -5 0 -12
-8 -15 -17 -6 -15 -4 -15 14 2 23 21 39 13 20 -11 -9 -10 -1 -8 24 7 27 16 34
24 24 30 -12 8 -4 13 15 10 4 0 7 3 7 9 0 19 -32 10 -37 -10 -7 -26 -23 -26
-23 0 0 11 5 20 10 20 6 0 10 9 10 20 0 11 -4 20 -10 20 -5 0 -10 -7 -10 -15
0 -8 -4 -15 -10 -15 -14 0 -13 23 2 38 9 9 8 12 -6 12 -9 0 -14 -4 -11 -10 3
-5 1 -10 -4 -10 -6 0 -11 6 -11 13 0 8 -4 7 -10 -3 -6 -10 -10 -11 -10 -2 0 6
-6 12 -12 12 -7 0 -22 8 -33 17 -19 15 -19 15 10 8 28 -6 29 -6 12 13 -22 24
-22 40 0 20 10 -9 51 -32 91 -53 39 -20 74 -41 77 -45 10 -15 -17 -57 -56 -90
-40 -32 -79 -95 -79 -125 0 -8 -4 -15 -8 -15 -5 0 -16 -15 -26 -32 -56 -105
-136 -228 -148 -228 -5 0 -8 7 -8 15 0 8 -9 19 -21 25 -17 10 -24 8 -39 -10
-10 -12 -23 -19 -29 -16 -5 3 -7 -3 -4 -14 6 -22 18 -26 29 -9 4 8 9 7 15 -2
13 -21 12 -23 -20 -42 -19 -11 -32 -14 -36 -7 -3 5 -1 10 4 10 6 0 11 5 11 10
0 15 -30 12 -31 -2 -1 -7 -2 -17 -4 -23 -1 -5 -3 -16 -3 -22 -1 -7 -9 -13 -17
-13 -8 0 -15 -7 -15 -16 0 -11 6 -14 21 -9 15 5 19 4 15 -4 -4 -6 -2 -11 4
-11 8 0 10 9 6 26 -5 19 -3 25 6 22 17 -6 80 53 73 69 -3 7 -8 20 -12 30 -4
11 -3 14 5 9 7 -4 12 -2 12 3 0 6 5 11 11 11 6 0 8 -9 4 -21 -5 -15 -4 -19 4
-15 27 17 -1 -29 -67 -111 l-34 -42 -35 14 c-20 8 -58 15 -85 15 -50 0 -81 -8
-232 -61 -83 -29 -99 -30 -89 -1 6 15 5 15 -10 4 -16 -13 -75 -8 -87 7 -9 11
-130 48 -130 40 0 -4 8 -13 17 -19 13 -8 14 -13 6 -16 -7 -3 -13 -10 -13 -16
0 -6 6 -5 15 2 13 11 24 11 58 0 51 -15 96 -34 58 -24 -16 4 -21 3 -16 -6 8
-13 53 -11 72 3 8 6 13 6 13 0 0 -5 -41 -28 -90 -53 -50 -24 -108 -59 -130
-77 -22 -19 -44 -32 -49 -29 -5 4 -13 1 -17 -5 -4 -8 -3 -9 4 -5 22 13 12 -9
-15 -34 -34 -32 -70 -111 -88 -192 -17 -75 -25 -106 -60 -218 -32 -100 -101
-332 -122 -409 -25 -94 -4 -145 114 -267 7 -7 13 -16 13 -19 0 -4 9 -18 20
-32 28 -36 36 -87 16 -115 -9 -12 -16 -32 -16 -43 0 -16 2 -17 10 -5 8 12 10
11 10 -7 0 -16 -4 -21 -15 -17 -9 4 -15 0 -15 -9 0 -19 27 -30 33 -14 3 9 7 9
17 0 13 -12 4 -37 -11 -28 -5 4 -9 1 -9 -4 0 -6 11 -11 25 -11 18 0 23 4 19
15 -4 8 -2 15 4 15 5 0 12 -7 16 -15 5 -13 300 -15 2576 -15 l2570 0 15 37 c8
20 18 34 21 30 3 -3 1 -14 -5 -25 -6 -12 -11 -26 -11 -32 0 -13 1107 -14 1115
0 3 5 -2 13 -11 18 -12 7 -15 15 -9 28 15 32 14 84 -1 84 -8 0 -14 -9 -14 -20
0 -11 -4 -20 -9 -20 -13 0 -41 29 -41 41 0 6 -4 7 -10 4 -14 -9 -12 -42 3 -48
6 -2 9 -8 4 -12 -10 -12 -36 25 -37 53 0 13 6 22 14 22 18 0 10 67 -10 91 -17
19 -18 41 -3 56 8 8 5 14 -10 22 -12 7 -21 19 -21 27 0 8 5 12 11 9 6 -4 20 3
32 15 l21 23 -27 -7 c-23 -5 -28 -2 -43 31 -10 20 -17 45 -17 55 1 10 -2 20
-8 23 -5 4 -9 1 -9 -4 0 -6 -5 -11 -11 -11 -6 0 -9 16 -8 37 1 21 -3 48 -9 60
-15 28 -15 55 0 89 11 22 10 28 -6 40 -17 12 -17 18 -7 60 7 26 9 60 5 77 -4
19 -2 27 4 23 6 -4 8 3 5 16 -4 21 -3 22 10 6 20 -25 22 -23 25 18 2 33 0 36
-21 30 -19 -4 -25 1 -39 41 -12 34 -14 51 -6 68 8 18 6 27 -8 44 -10 11 -23
21 -30 21 -7 0 -9 15 -3 48 4 26 3 51 -2 56 -6 6 -9 3 -9 -7 0 -9 -5 -17 -11
-17 -7 0 -9 9 -5 24 4 15 0 28 -9 36 -21 17 -19 25 10 38 39 18 30 32 -20 32
-35 0 -45 4 -45 16 0 12 6 15 23 9 65 -20 77 1 15 27 l-43 19 36 -6 c46 -7 69
2 69 26 0 10 4 19 9 19 4 0 8 10 7 23 -1 17 -7 21 -26 19 -13 -1 -28 -9 -33
-17 -9 -17 -37 -20 -37 -4 0 6 9 13 20 16 25 7 27 33 3 34 -10 0 -13 3 -6 5 7
3 22 0 33 -6 17 -9 29 -9 51 0 28 12 40 30 19 30 -5 0 -10 -5 -10 -11 0 -5 -4
-7 -10 -4 -5 3 -10 20 -10 36 0 18 -4 28 -10 24 -5 -3 -10 -15 -10 -25 0 -13
-9 -22 -25 -26 -32 -8 -42 1 -25 21 15 18 6 45 -15 45 -8 0 -15 5 -15 11 0 6
6 9 14 6 19 -7 33 62 15 73 -7 5 -9 16 -5 26 7 18 -8 34 -33 34 -9 0 -12 -11
-9 -39 2 -29 0 -37 -10 -33 -10 3 -11 16 -7 43 5 29 3 39 -7 39 -25 0 15 20
41 20 24 0 24 0 5 15 -10 8 -27 15 -38 15 -15 0 -16 3 -6 15 17 20 3 36 -26
29 -20 -5 -24 -2 -24 16 0 19 4 21 31 15 34 -8 33 -11 12 81 -5 25 20 54 49
54 11 0 22 8 25 20 3 12 14 20 25 20 14 0 18 5 14 16 -3 8 -2 13 3 10 5 -3 15
2 22 11 12 14 12 16 -6 11 -12 -3 -28 3 -39 14 -21 20 -15 24 14 8 13 -7 21
-7 25 0 4 7 11 7 18 2 7 -5 21 -12 31 -16 17 -6 17 -5 5 10 -11 13 -11 18 -1
21 6 3 12 11 12 19 0 17 17 19 23 2 2 -8 8 -9 13 -4 5 5 4 11 -3 13 -14 5 -18
33 -5 33 4 0 20 -14 36 -30 35 -36 45 -33 19 6 -10 16 -12 25 -5 20 7 -4 19
-2 27 4 8 7 24 10 34 7 12 -3 22 1 25 10 9 22 7 35 -3 28 -6 -3 -9 4 -8 15 1
18 3 18 24 5 29 -20 33 -19 33 6 0 21 5 22 60 8 9 -2 15 2 14 13 -1 9 7 19 17
21 14 4 19 0 19 -16 0 -16 3 -18 12 -9 7 7 20 12 31 12 10 0 15 4 12 10 -9 14
40 23 63 11 21 -11 52 -5 52 10 0 5 -8 10 -17 10 -10 1 2 5 27 9 30 5 48 3 52
-4 5 -6 8 -7 8 -1 0 14 73 16 82 2 5 -8 8 -9 8 -1 0 7 13 11 33 9 49 -4 49 -4
42 -16 -4 -6 -13 -8 -21 -5 -8 3 -14 0 -14 -5 0 -7 9 -9 22 -6 12 4 28 1 36
-6 12 -10 14 -8 8 9 -9 29 24 35 90 18 30 -7 50 -9 52 -3 4 10 62 4 97 -10 11
-5 43 -17 72 -29 29 -11 53 -16 55 -11 2 4 23 -1 47 -11 24 -11 52 -20 63 -20
10 0 17 -4 14 -9 -7 -11 23 -25 46 -22 13 2 16 -2 11 -15 -5 -13 -2 -15 13
-10 13 4 33 -6 64 -34 25 -22 54 -40 65 -40 11 0 26 -9 32 -19 11 -17 9 -20
-10 -24 l-22 -4 23 -2 c30 -1 74 -45 60 -59 -7 -7 -2 -18 17 -36 15 -14 23
-26 16 -26 -20 0 -12 -26 19 -55 16 -16 30 -36 30 -46 0 -9 8 -20 18 -24 15
-6 14 -8 -8 -20 -22 -13 -23 -14 -5 -15 19 -1 19 -1 3 -14 -23 -17 -23 -26 0
-26 14 0 15 -2 2 -10 -15 -9 -11 -12 20 -14 8 -1 16 -11 18 -23 4 -24 16 -30
27 -13 7 12 25 4 25 -11 0 -5 -8 -9 -17 -9 -15 0 -16 -2 -3 -10 12 -8 8 -10
-15 -11 -18 -1 -23 -3 -12 -6 15 -4 16 -7 5 -21 -11 -13 -10 -15 5 -9 22 8 22
3 0 -19 -17 -17 -17 -18 0 -11 12 4 17 1 17 -10 0 -8 10 -24 23 -35 18 -16 22
-29 20 -69 -1 -46 9 -64 20 -36 4 9 6 9 6 0 1 -7 -8 -17 -18 -23 -16 -8 -18
-13 -8 -35 7 -14 18 -25 25 -25 7 0 10 -4 7 -10 -3 -5 -1 -10 5 -10 8 0 10 -9
6 -24 -3 -12 -2 -26 2 -30 4 -4 7 -15 8 -24 1 -59 18 -115 35 -119 22 -6 25
-19 7 -26 -7 -3 -3 -6 8 -6 26 -1 38 -35 22 -64 -9 -17 -8 -19 6 -14 15 6 15
4 0 -18 -11 -17 -13 -29 -6 -42 5 -10 8 -33 6 -50 -2 -18 1 -33 6 -33 6 0 8
-11 4 -25 -4 -16 0 -34 10 -50 9 -14 13 -25 8 -25 -5 0 -7 -13 -4 -30 3 -20
12 -32 31 -39 15 -5 19 -10 10 -10 -13 -1 -16 -9 -14 -33 4 -53 5 -54 15 -38
8 12 10 10 11 -10 1 -14 2 -32 1 -40 0 -8 4 -18 11 -22 6 -3 11 -15 12 -25 1
-10 6 -34 10 -53 8 -34 9 -34 17 -10 5 17 6 6 4 -33 -3 -40 0 -61 10 -71 8 -8
14 -20 14 -26 0 -6 6 -18 14 -26 8 -7 12 -23 9 -34 -3 -12 0 -20 7 -20 8 0 10
-8 7 -21 -7 -27 18 -86 40 -92 17 -4 17 -5 0 -6 -13 -1 -16 -7 -11 -25 3 -14
7 -42 8 -63 5 -63 13 -73 62 -73 l44 0 0 45 c0 25 -7 57 -16 70 -15 23 -15 25
0 25 9 0 16 5 16 10 0 6 -7 10 -16 10 -13 0 -14 3 -5 14 7 8 9 31 6 55 -3 24
-1 41 5 41 6 0 10 11 10 25 0 22 -3 24 -18 16 -20 -10 -42 2 -42 23 0 6 5 4
10 -4 6 -10 10 -11 10 -2 0 6 9 12 20 12 11 0 20 5 20 11 0 7 -10 9 -25 7 -22
-5 -25 -2 -24 26 0 17 3 25 6 19 7 -18 43 -16 43 2 0 20 -41 36 -58 22 -15
-12 -17 -10 -26 26 -4 16 -2 27 4 27 5 0 10 11 10 25 0 14 -4 25 -10 25 -18 0
-11 20 8 21 10 0 12 3 5 6 -7 2 -13 9 -13 15 0 5 -16 29 -35 52 -22 27 -31 46
-25 52 12 12 -15 54 -36 54 -9 0 -14 10 -13 33 0 17 3 26 6 18 8 -20 43 -53
43 -40 0 19 -34 69 -47 69 -16 0 -17 17 -1 22 7 3 4 12 -11 27 -12 12 -19 26
-15 29 3 4 9 1 11 -5 3 -7 8 -13 12 -13 12 0 1 48 -14 60 -15 12 -8 50 9 50 6
0 5 4 -3 9 -10 6 -12 19 -8 40 5 23 3 33 -8 37 -11 5 -13 18 -10 57 3 29 8 60
11 69 3 10 7 93 10 185 7 204 7 204 -1 273 -11 107 -11 200 -1 204 8 3 7 7 0
13 -7 4 -14 28 -16 53 -3 25 -13 72 -22 105 -11 39 -13 61 -6 63 5 2 10 10 10
18 0 9 -4 13 -10 9 -5 -3 -15 14 -21 37 -7 24 -16 47 -20 52 -5 5 -1 14 7 21
14 10 14 12 0 24 -14 11 -16 11 -16 -3 0 -10 -5 -14 -10 -11 -8 5 -7 11 0 20
18 21 2 76 -23 83 -18 5 -18 6 -4 17 15 11 15 17 2 63 -11 37 -31 66 -75 111
-33 34 -71 79 -84 100 -14 21 -35 41 -48 44 -177 43 -232 53 -252 50 -13 -3
-53 4 -90 15 -36 11 -78 19 -93 17 -15 -1 -56 8 -91 21 -36 13 -69 21 -74 18
-16 -10 -169 19 -165 30 9 26 296 -5 334 -36 6 -5 40 -11 75 -13 35 -2 77 -9
93 -16 17 -7 53 -11 80 -10 38 2 62 -4 98 -23 26 -14 54 -26 62 -26 27 0 85
-42 106 -77 27 -43 101 -125 107 -118 3 2 -1 12 -8 21 -12 13 -11 17 1 26 11
8 10 9 -5 4 -16 -5 -17 -2 -13 21 4 16 4 22 1 15 -9 -19 -24 -4 -24 24 0 13
-4 24 -10 24 -5 0 -10 8 -10 18 1 16 1 16 11 0 15 -27 23 -22 51 35 91 183
109 238 115 357 3 58 11 108 16 112 8 5 7 14 -1 30 -9 17 -10 49 -4 118 5 52
7 113 4 135 l-5 40 21 -25 c11 -14 23 -22 27 -19 3 4 -6 20 -21 35 l-26 29 5
140 c4 111 9 147 24 172 10 18 21 33 26 33 4 0 7 43 7 95 0 65 4 95 11 95 9 0
10 -21 6 -72 -4 -41 -2 -80 3 -88 8 -12 10 -11 10 6 0 12 7 27 15 34 13 11 15
8 15 -13 0 -14 -5 -27 -12 -29 -8 -3 -9 -11 -3 -24 8 -18 9 -18 12 4 3 12 9
22 14 22 6 0 9 -10 7 -22 -4 -29 -48 -39 -48 -11 0 15 -2 16 -10 3 -14 -22
-12 -40 5 -34 8 4 24 -6 39 -22 24 -28 24 -29 45 -10 22 20 28 46 11 46 -5 0
-10 9 -10 20 0 11 -7 23 -15 26 -13 6 -22 44 -10 44 14 0 46 -44 43 -58 -3
-10 6 -28 19 -42 l23 -25 0 178 0 177 -25 0 c-14 0 -25 -4 -25 -10 0 -5 -4
-10 -10 -10 -5 0 -10 7 -10 15 0 9 9 15 25 15 13 0 29 8 34 19 6 10 10 122 10
270 l0 251 -29 0 c-16 0 -32 5 -35 11 -5 7 5 8 29 4 l36 -7 -1 448 c0 247 -3
443 -6 435 -4 -11 -10 -8 -24 10 -17 22 -19 23 -19 4 l-1 -20 -9 20 c-14 32
-13 52 2 37 17 -17 28 -15 21 4 -5 13 -2 15 15 9 18 -5 22 -2 22 13 0 11 -6
23 -12 25 -10 4 -10 6 0 6 15 1 17 117 2 126 -6 4 -8 11 -5 16 4 5 1 9 -4 9
-6 0 -11 -6 -11 -12 0 -13 -56 50 -77 86 -16 28 -16 67 0 64 6 -2 10 4 9 12
-14 60 -14 60 25 61 29 2 32 3 11 6 -34 5 -44 18 -53 71 -8 48 10 60 22 15 l7
-28 6 25 c15 58 -21 81 -47 30 -12 -23 -13 -23 -13 -4 0 11 10 26 23 33 36 19
50 47 35 71 -7 10 -9 22 -5 26 9 10 36 -27 30 -41 -2 -7 3 -17 11 -24 39 -33
64 72 30 124 -19 30 -34 32 -34 7 0 -11 -9 -27 -19 -37 -20 -17 -20 -16 -10
19 6 20 7 41 4 46 -5 8 2 47 21 113 4 11 0 17 -10 17 -9 0 -16 5 -16 10 0 6 6
10 14 10 15 0 16 92 0 100 -8 5 -24 -87 -26 -150 0 -14 -4 -63 -10 -110 -5
-47 -10 -103 -11 -125 -2 -22 -7 -39 -12 -37 -6 2 -9 11 -7 20 2 9 5 74 7 143
l4 126 -25 14 c-20 10 -29 11 -44 1 -27 -17 -32 -15 -21 7 6 10 8 21 5 23 -6
7 45 61 70 75 28 15 10 36 -25 28 -25 -6 -28 -4 -22 11 4 11 2 15 -7 12 -7 -2
-15 -15 -17 -29 -5 -37 -24 -89 -32 -89 -9 0 -41 38 -41 50 0 6 7 10 15 10 9
0 15 9 15 23 0 18 -2 19 -10 7 -8 -12 -10 -10 -10 11 0 14 -6 31 -12 37 -7 7
-13 19 -13 27 0 8 -4 15 -10 14 -12 0 -11 -12 8 -64 9 -22 13 -42 10 -45 -3
-3 -8 1 -10 8 -3 8 -9 10 -16 4 -25 -19 -47 -22 -47 -6 0 8 5 12 10 9 6 -3 10
-1 10 4 0 6 7 11 16 11 12 0 14 5 9 18 -4 9 -10 41 -13 70 -4 42 -2 52 11 52
8 0 17 5 19 11 2 6 18 12 36 14 17 1 29 -1 26 -6 -3 -5 -14 -9 -24 -9 -10 0
-21 -4 -24 -8 -3 -5 5 -8 17 -7 12 1 25 -3 29 -9 5 -7 8 -4 8 6 0 11 14 24 34
32 18 8 37 19 40 25 4 6 12 11 18 11 6 0 2 -10 -10 -23 -12 -13 -22 -29 -22
-35 0 -15 36 -16 45 -1 5 7 13 5 26 -7 12 -11 27 -14 46 -11 15 4 22 4 16 1
-7 -3 -13 -12 -13 -20 0 -16 -11 -18 -25 -5 -6 5 -20 12 -32 16 -17 5 -23 2
-23 -9 0 -9 7 -16 15 -16 20 0 66 -30 60 -39 -2 -4 3 -8 11 -8 10 0 14 7 11
18 -3 12 2 21 17 25 20 7 20 8 -4 15 -24 7 -24 7 -2 8 15 1 22 7 22 21 0 16
-7 20 -32 20 l-33 1 28 20 c27 21 29 43 2 32 -9 -3 -15 1 -15 11 0 23 -28 8
-32 -17 -2 -12 -11 -23 -21 -25 -34 -7 -9 39 49 91 l54 48 0 600 c0 473 -3
599 -13 593 -9 -5 -9 -4 1 7 9 10 12 80 12 281 l0 268 -22 0 c-12 0 -18 -3
-15 -7 11 -10 -24 -43 -45 -43 -10 0 -18 5 -18 10 0 6 5 9 12 8 6 -2 18 10 26
25 11 23 19 28 38 24 13 -2 24 0 24 4 0 5 -5 9 -12 9 -9 0 -9 3 0 12 8 8 12
48 12 115 0 103 0 103 -25 103 -18 0 -23 -4 -19 -15 4 -9 0 -15 -8 -15 -15 0
-17 -6 -22 -105 -5 -106 -5 -107 -16 -100 -5 3 -10 0 -10 -9 0 -22 -33 -76
-47 -76 -6 0 -15 5 -18 10 -3 6 -1 10 4 10 6 0 11 5 11 10 0 6 -7 10 -15 10
-8 0 -15 7 -15 15 0 18 -26 20 -33 3 -3 -7 -6 -3 -6 10 -1 12 -7 21 -13 20
-12 -3 -15 13 -7 38 2 7 0 11 -6 10 -15 -2 -8 -902 10 -1226 9 -157 17 -725
11 -719 -4 3 -11 26 -16 50 l-9 44 3 -47 c4 -50 -5 -59 -32 -32 -12 12 -17 13
-20 4 -3 -7 1 -16 8 -20 8 -5 4 -9 -12 -13 -40 -11 -45 -8 -88 58 -35 54 -40
68 -30 80 9 10 9 15 1 15 -6 0 -11 -5 -11 -11 0 -5 -5 -7 -11 -4 -6 4 -8 13
-5 21 3 7 1 16 -5 20 -5 3 -7 14 -4 24 4 11 -1 20 -12 25 -16 6 -16 8 -2 18
14 11 14 16 2 47 -9 23 -12 26 -8 9 2 -14 -2 -35 -11 -48 -15 -20 -15 -24 2
-42 9 -10 14 -19 11 -19 -11 0 -87 84 -87 96 0 7 -8 18 -19 23 -10 6 -21 18
-25 27 -5 13 0 15 27 10 17 -3 26 -3 20 0 -7 3 -13 16 -13 29 0 34 -20 42 -21
8 -1 -27 -1 -27 -11 6 -6 23 -6 37 1 44 6 6 11 20 11 31 0 19 -1 19 -20 -2
-23 -24 -29 -26 -49 -13 -10 6 -12 20 -7 47 4 26 4 34 -3 25 -6 -10 -12 1 -19
40 -16 79 -19 119 -11 114 4 -3 10 2 13 11 4 12 2 15 -9 10 -10 -3 -15 1 -15
13 0 13 -5 18 -18 14 -11 -2 -26 5 -37 19 -16 18 -16 20 -2 9 23 -18 32 -8 11
13 -18 18 -17 34 10 146 9 40 11 69 5 75 -5 5 -9 1 -9 -13 0 -12 -4 -22 -9
-22 -14 0 -25 41 -14 49 7 4 5 32 -2 76 -7 39 -14 66 -14 61 -1 -5 -8 -3 -16
4 -12 10 -15 10 -15 0 0 -8 -2 -11 -5 -9 -2 3 -1 15 2 28 6 23 7 23 20 5 11
-15 15 -16 22 -5 9 14 31 7 31 -10 0 -6 -4 -7 -10 -4 -17 10 -11 -18 9 -49
l20 -29 -4 69 c-2 38 -6 76 -8 84 -9 25 -15 70 -9 70 3 0 20 -11 38 -25 36
-27 44 -30 44 -15 0 6 -8 14 -17 17 -10 4 -23 14 -30 24 -7 9 -22 19 -33 22
-19 5 -20 2 -16 -54 5 -62 -7 -78 -24 -34 -5 14 -15 25 -22 26 -7 0 -3 4 10 9
18 8 22 16 19 43 -2 18 -6 37 -9 42 -3 6 -13 44 -23 85 -9 41 -21 88 -26 104
-13 41 -11 86 3 86 6 0 8 3 5 6 -11 11 -34 -15 -40 -43 -3 -16 0 -32 8 -38 18
-14 29 -101 15 -110 -7 -4 -16 -3 -22 3 -6 6 -6 12 1 16 16 11 13 29 -4 23 -8
-4 -18 -1 -22 6 -14 21 -33 81 -33 102 1 19 1 19 14 3 15 -21 28 -23 24 -5 -1
6 1 25 5 40 6 20 12 27 23 23 9 -3 24 -6 34 -6 13 0 17 -5 13 -20 -3 -11 -9
-20 -14 -20 -5 0 -9 -8 -9 -17 0 -15 1 -15 13 2 10 13 16 15 21 6 5 -7 1 -20
-9 -31 -11 -12 -13 -20 -6 -25 6 -3 11 -26 11 -51 0 -26 5 -44 11 -44 8 0 10
20 7 59 -3 46 -1 58 9 54 11 -4 11 0 1 23 -6 16 -16 35 -21 42 -6 7 -6 12 0
12 5 0 9 9 10 19 1 13 -13 26 -45 42 -65 33 -70 39 -70 88 -1 24 -6 49 -12 55
-7 7 -9 2 -4 -21 3 -18 2 -33 -5 -37 -7 -5 -11 2 -11 18 0 23 -2 25 -25 16
-20 -7 -25 -6 -25 5 0 8 6 15 13 15 7 0 18 9 25 21 11 16 16 18 28 9 12 -11
14 -4 14 43 0 52 -1 55 -22 49 -19 -5 -20 -7 -5 -10 18 -4 24 -22 7 -22 -5 0
-10 -6 -10 -14 0 -8 -8 -21 -18 -28 -11 -7 -21 -20 -24 -28 -3 -10 -6 -8 -10
8 -4 14 -2 20 5 15 7 -4 8 0 2 13 -16 39 -18 66 -4 75 11 6 10 9 -4 15 -13 5
-17 18 -17 63 0 32 -3 61 -7 64 -3 4 -6 30 -5 59 1 29 -3 96 -9 148 -6 52 -12
151 -13 220 -3 133 -15 250 -25 250 -3 0 -6 19 -6 42 l0 43 -40 0 -40 0 3 60
c2 33 5 61 6 63 2 1 22 3 44 5 41 2 42 3 42 39 0 36 -1 37 -54 52 -30 9 -63
16 -74 16 -12 0 -24 5 -27 10 -3 6 -18 10 -33 9 -25 -1 -24 -2 8 -11 32 -9 33
-11 17 -23 -17 -12 -16 -14 14 -20 l32 -7 -28 -22 c-22 -18 -26 -27 -20 -45 4
-15 3 -21 -3 -17 -5 3 -13 -1 -16 -10 -8 -22 -8 -26 4 -19 6 3 10 -3 10 -14 0
-12 -3 -20 -7 -20 -20 3 -34 -2 -29 -10 3 -5 15 -7 27 -4 19 5 20 2 18 -46 -2
-32 -7 -51 -15 -51 -14 0 -24 -22 -24 -53 -1 -22 -1 -22 -15 -2 -10 13 -13 30
-9 53 5 25 3 33 -5 28 -12 -8 -14 -47 -5 -82 7 -27 30 -37 127 -59 42 -9 80
-22 86 -28 12 -15 17 -471 6 -511 -7 -27 -9 -28 -21 -12 -9 13 -19 16 -36 10
-29 -10 -33 -11 -60 -14 -19 -2 -18 -4 10 -12 27 -9 36 -8 52 7 13 11 20 14
20 6 0 -7 7 -19 15 -27 8 -9 15 -24 15 -34 0 -17 -2 -17 -30 -3 -24 12 -34 12
-45 3 -17 -14 -65 -5 -77 13 -5 8 -8 6 -8 -5 0 -20 39 -33 70 -25 11 3 23 1
26 -4 3 -5 18 -9 34 -9 16 0 30 -7 34 -16 10 -25 7 -30 -14 -30 -22 0 -27 12
-7 19 7 3 5 6 -5 6 -10 1 -18 -4 -18 -9 0 -6 -15 -9 -32 -8 -42 2 -54 8 -37
19 8 5 9 9 3 9 -5 0 -19 -7 -30 -15 -18 -14 -18 -14 4 -15 13 0 21 -4 18 -9
-3 -5 3 -11 14 -14 11 -3 18 -1 14 4 -8 13 10 11 24 -3 7 -7 31 -12 54 -11 24
0 32 -1 18 -4 -30 -6 -74 -54 -58 -64 20 -12 -3 -29 -40 -29 -29 0 -34 -3 -22
-11 13 -9 13 -10 0 -6 -8 2 -15 8 -15 13 0 5 -4 15 -8 22 -10 15 7 16 34 2 13
-7 19 -7 19 0 0 5 -5 10 -11 10 -6 0 -8 9 -3 22 6 19 4 21 -7 11 -8 -6 -25
-13 -39 -15 -20 -2 -26 2 -28 20 -2 12 -11 22 -20 22 -24 1 -50 23 -60 51 -8
21 -10 19 -14 -19 -2 -24 0 -46 4 -48 4 -3 8 -1 8 5 0 7 8 7 25 -1 14 -6 25
-17 25 -25 0 -8 7 -13 16 -11 9 2 20 -7 25 -19 5 -14 5 -23 -1 -23 -6 0 -10 6
-10 13 0 8 -4 7 -10 -3 -8 -13 -11 -13 -19 -1 -5 7 -20 14 -35 14 -20 0 -29 8
-42 38 -12 25 -26 40 -43 44 -14 4 -36 15 -47 26 -21 19 -21 23 -9 70 7 27 10
49 5 49 -4 0 -11 -20 -14 -44 -6 -37 -10 -43 -26 -39 -11 3 -20 9 -20 14 0 5
-5 9 -11 9 -12 0 -39 25 -39 35 0 4 7 5 15 1 13 -5 14 -2 5 15 -9 15 -8 24 1
35 9 11 8 14 -5 14 -9 0 -16 6 -16 14 0 8 -5 18 -11 22 -8 4 -9 -1 -4 -16 5
-15 3 -21 -5 -18 -14 4 -13 -1 -6 73 4 33 16 92 28 130 30 96 30 200 -1 246
-13 19 -19 25 -15 14 15 -39 11 -205 -6 -256 -21 -62 -26 -66 -34 -33 -6 24
-10 26 -42 21 -27 -5 -36 -2 -41 11 -10 25 -34 40 -55 34 -10 -2 -24 1 -32 7
-11 9 -16 9 -22 0 -4 -7 -2 -15 4 -17 7 -2 12 -17 12 -33 0 -16 4 -29 8 -29 5
0 7 14 4 30 -5 37 3 38 21 4 9 -17 17 -23 21 -15 4 6 2 11 -3 11 -6 0 -11 5
-11 10 0 17 18 11 24 -8 4 -11 22 -22 43 -28 27 -6 39 -16 44 -34 4 -14 7 -19
8 -12 1 18 21 15 21 -4 0 -12 -7 -15 -29 -12 -17 2 -28 1 -25 -4 3 -4 12 -8
20 -8 28 0 42 -23 33 -53 -4 -15 -5 -35 -2 -43 3 -8 0 -14 -6 -14 -6 0 -11 7
-11 15 0 15 -12 20 -23 9 -9 -10 4 -34 19 -34 8 0 19 -12 25 -27 5 -15 26 -49
45 -76 l35 -48 -20 -24 c-18 -24 -19 -24 -24 -4 -4 15 -2 19 9 15 8 -3 14 -2
14 3 0 5 -13 11 -29 14 -18 4 -30 14 -34 27 -4 18 -10 20 -29 15 -34 -11 -38
-25 -15 -52 19 -21 22 -22 27 -7 4 10 9 13 13 8 11 -19 -10 -37 -37 -30 -19 5
-26 3 -26 -9 0 -18 35 -55 52 -55 6 0 8 -3 5 -6 -3 -4 -2 -15 4 -25 8 -15 6
-19 -6 -19 -9 0 -14 4 -10 9 3 5 -5 18 -17 28 -13 10 -31 31 -41 46 -10 16
-27 37 -37 47 -18 18 -18 19 12 25 18 4 32 15 35 26 3 10 9 19 14 19 5 0 9 5
9 11 0 6 -7 8 -16 5 -9 -3 -32 3 -51 15 -26 17 -34 27 -31 44 3 13 -5 34 -19
51 -26 33 -30 20 -8 -33 15 -36 12 -60 -5 -33 -11 19 -24 6 -16 -16 3 -9 12
-14 21 -10 18 7 50 -38 41 -59 -7 -19 -26 -20 -26 -1 0 8 -5 18 -12 22 -7 4
-8 3 -4 -4 4 -7 2 -12 -4 -12 -7 0 -5 -7 4 -16 23 -22 20 -30 -4 -9 -10 9 -19
20 -18 24 2 18 -3 31 -13 31 -14 0 -48 41 -49 58 0 6 -4 12 -10 12 -5 0 -10 5
-10 11 0 5 5 7 10 4 6 -3 10 4 10 17 0 15 -11 29 -31 41 -18 10 -29 23 -26 31
3 7 -8 29 -23 48 -16 20 -32 53 -36 75 -5 36 -4 41 17 46 14 4 30 0 40 -9 15
-13 17 -13 23 1 9 23 9 23 -20 27 -30 4 -66 54 -47 66 14 9 29 82 16 82 -5 0
-9 -10 -9 -22 1 -14 -6 -24 -16 -26 -13 -2 -16 1 -12 12 3 9 1 16 -5 16 -6 0
-2 9 10 21 11 11 27 18 34 15 7 -2 21 4 30 14 10 11 27 22 39 26 11 4 44 17
71 30 28 12 63 26 78 29 15 4 27 11 27 16 0 11 -38 8 -57 -4 -7 -5 -18 -5 -23
-2 -6 4 -9 1 -8 -5 2 -7 -4 -14 -12 -15 -8 -2 -23 -6 -32 -10 -21 -8 -24 5 -6
23 9 9 8 12 -5 12 -11 0 -17 -8 -17 -24 0 -18 -10 -29 -37 -43 -73 -38 -99
-38 -121 2 -6 11 -12 15 -12 8 0 -24 -29 -1 -35 28 -4 16 -13 29 -21 29 -8 0
-14 7 -14 16 0 12 -6 15 -25 10 -18 -5 -27 -1 -35 14 -6 11 -17 20 -26 20 -8
0 -18 10 -23 23 -8 21 -32 37 -76 52 -16 5 -17 8 -5 15 9 6 10 10 3 10 -6 0
-18 3 -27 6 -29 11 -16 -11 20 -36 20 -13 31 -26 25 -28 -6 -2 -18 1 -26 8 -8
6 -18 9 -24 6 -10 -6 -25 22 -22 41 1 7 -10 20 -24 29 -17 11 -25 25 -24 43 0
24 1 25 9 5 5 -12 14 -25 21 -30 7 -4 10 -3 6 4 -11 17 -11 93 0 100 5 4 15
17 22 30 6 12 18 22 26 22 8 0 15 4 15 10 0 5 -8 7 -17 3 -16 -6 -16 -4 1 15
11 12 26 22 34 22 12 0 13 11 8 63 -12 108 -14 121 -30 166 -9 24 -17 55 -17
70 -1 17 -3 20 -6 9 -6 -25 -21 -22 -34 5 -14 32 -80 73 -146 92 -40 12 -56
22 -63 40 -13 33 -22 32 -14 -1 7 -26 7 -26 -23 -10 -31 15 -63 55 -75 91 -6
19 -6 18 -7 -2 -1 -30 -10 -29 -48 6 -27 24 -31 26 -30 10 1 -11 7 -19 15 -19
13 0 17 -3 65 -45 15 -14 32 -25 38 -25 5 0 9 -7 9 -15 0 -19 -14 -19 -30 0
-7 9 -21 13 -31 10 -11 -4 -19 -2 -19 4 0 6 -4 11 -10 11 -5 0 -7 -7 -3 -16 4
-11 2 -15 -7 -12 -7 2 -14 12 -16 22 -1 10 -6 21 -10 24 -4 4 -4 -1 -1 -10 9
-26 -4 -22 -40 13 -37 34 -42 44 -14 29 34 -17 37 -11 6 10 -16 11 -40 20 -52
20 -18 0 -23 6 -23 25 0 14 -4 25 -9 25 -5 0 -12 7 -15 15 -4 11 0 15 11 13
27 -5 26 21 -1 28 -14 3 -26 13 -26 21 0 13 3 13 25 -1 14 -9 25 -12 25 -6 0
6 -12 16 -27 23 -15 6 -35 19 -44 28 -19 19 -36 74 -19 64 5 -3 10 -15 10 -26
0 -19 37 -42 53 -32 12 7 8 23 -6 23 -8 0 -25 17 -38 38 -14 20 -32 36 -40 34
-9 -1 -24 7 -34 18 -10 11 -24 20 -32 20 -7 0 -13 4 -13 10 0 5 -16 16 -35 24
-19 8 -38 22 -41 31 -3 8 -12 15 -19 15 -16 0 -79 85 -90 120 -4 14 -11 27
-15 30 -5 3 -10 14 -12 25 -2 16 2 19 20 17 12 -2 22 1 22 7 0 6 -7 8 -15 5
-9 -4 -19 3 -27 20 -7 17 -17 25 -26 21 -9 -3 -19 -1 -22 5 -5 8 -9 6 -13 -4
-4 -9 -2 -16 3 -16 6 0 10 -4 10 -10 0 -15 -30 -12 -32 3 0 6 -3 23 -4 37 -2
14 -6 47 -9 73 -4 30 -2 53 5 62 8 10 8 15 -3 22 -8 4 -24 34 -36 66 -11 32
-33 69 -49 82 -112 99 -150 138 -146 153 5 22 -104 111 -115 94 -9 -15 -81 36
-106 75 -16 24 -16 26 0 20 9 -4 19 -7 21 -7 3 0 2 -5 -1 -10 -7 -11 22 -26
32 -16 10 10 -29 46 -50 46 -11 0 -18 3 -14 6 6 7 -23 44 -35 44 -5 0 -2 -10
7 -23 8 -13 12 -27 8 -30 -12 -13 -23 -7 -23 13 0 11 -4 20 -10 20 -5 0 -10
12 -10 26 0 16 -7 28 -18 31 -10 2 -22 14 -27 25 -15 34 -39 36 -33 4 6 -31
-5 -33 -32 -6 -11 11 -27 20 -35 20 -31 0 -124 42 -130 59 -7 22 -104 123
-113 118 -15 -10 -54 13 -48 28 10 28 -6 44 -59 60 -30 8 -57 20 -60 25 -3 6
-21 10 -40 10 -19 0 -37 5 -41 12 -4 7 -3 8 4 4 7 -4 12 -2 12 3 0 6 -11 11
-25 11 -17 0 -23 4 -19 14 3 9 -4 16 -21 20 -14 4 -24 10 -21 15 3 4 -4 15
-16 25 -14 13 -23 15 -28 7 -10 -17 -37 -3 -44 22 -5 17 -8 19 -15 8 -7 -11
-10 -10 -15 5 -5 15 -15 19 -53 18 -27 -1 -42 0 -35 3 21 8 14 18 -21 31 -19
7 -40 23 -47 37 -7 14 -19 25 -27 25 -7 0 -22 9 -34 21 -13 13 -27 18 -40 14
-12 -4 -21 -1 -25 8 -4 11 -16 12 -62 5 -31 -5 -78 -7 -103 -4 -26 2 -50 2
-53 -2 -11 -10 -48 -13 -41 -2 3 5 13 10 22 10 9 0 14 3 10 6 -3 4 -21 1 -38
-5 -23 -8 -35 -8 -39 -1 -4 6 -23 12 -44 14 -20 2 -39 6 -42 9 -3 3 -17 2 -31
-4 -16 -6 -22 -6 -18 1 3 6 13 10 21 10 8 0 14 6 14 13 0 8 4 7 10 -3 8 -13
10 -12 10 3 0 15 -6 16 -40 11 -28 -5 -55 -1 -87 11 -33 13 -48 15 -51 7 -2
-7 -10 -12 -19 -12 -8 0 -23 -10 -34 -22 -14 -18 -21 -20 -27 -10 -5 7 -16 10
-25 6 -14 -5 -17 0 -17 25 0 25 -4 31 -21 31 -11 0 -17 -4 -14 -10 11 -18 -71
-11 -86 7 -12 15 -12 16 6 9 39 -16 55 -18 55 -9 0 9 -28 26 -55 33 -5 2 -38
13 -73 27 -35 13 -82 26 -105 29 -22 2 -47 9 -53 15 -7 6 -18 8 -25 4 -6 -4
-14 -3 -18 2 -9 14 -141 26 -141 13 0 -5 21 -10 48 -11 44 -1 45 -1 17 -10
-31 -9 -85 -3 -85 10 0 5 -24 4 -52 -1 -57 -9 -102 -3 -93 12 8 13 -13 12 -45
-2z m520 -622 c0 -13 6 -27 13 -30 9 -5 9 -7 -2 -12 -11 -5 -11 -8 0 -15 12
-8 12 -10 0 -18 -9 -6 -10 -11 -2 -15 6 -4 11 -18 11 -31 0 -19 4 -23 21 -20
19 4 20 1 15 -33 -9 -55 7 -72 30 -33 10 17 23 31 28 31 6 0 5 -5 -1 -11 -6
-6 -9 -17 -7 -24 3 -7 1 -16 -5 -20 -6 -3 -11 -10 -11 -15 0 -12 25 -7 44 9 9
7 27 11 41 9 14 -3 25 -2 25 2 0 5 9 6 20 3 11 -3 20 -11 20 -19 0 -8 -6 -11
-15 -8 -8 4 -15 1 -15 -5 0 -6 7 -11 15 -11 8 0 15 -4 15 -10 0 -5 5 -10 10
-10 6 0 10 7 10 15 0 16 35 21 45 6 3 -6 -3 -14 -12 -20 -14 -8 -10 -9 17 -5
26 4 40 1 49 -10 7 -9 24 -16 37 -16 18 0 24 -6 24 -22 0 -16 3 -19 11 -11 13
13 92 -4 83 -18 -5 -9 10 -13 30 -10 5 1 33 -8 62 -21 50 -21 58 -31 57 -66
-1 -8 6 -10 17 -7 10 3 21 2 24 -4 3 -5 14 -7 24 -4 12 3 26 -6 42 -26 13 -17
42 -41 66 -53 24 -11 42 -26 41 -32 -1 -6 8 -10 19 -8 16 2 26 -5 35 -28 8
-16 17 -30 20 -30 3 0 4 -12 2 -27 -4 -26 -3 -26 10 -11 18 22 28 12 20 -20
-3 -13 -1 -27 4 -31 28 -19 61 -153 33 -136 -5 3 -10 16 -10 27 0 12 -3 18 -7
15 -8 -9 -13 -157 -5 -157 4 0 6 -36 4 -81 -2 -67 1 -85 18 -109 11 -15 19
-36 18 -47 -4 -48 2 -84 14 -77 7 5 9 2 6 -8 -4 -8 3 -30 15 -48 12 -19 27
-42 33 -52 6 -10 19 -27 29 -38 10 -11 18 -34 18 -50 0 -17 4 -30 9 -30 4 0 8
5 8 12 0 6 11 -10 24 -36 14 -27 22 -55 19 -62 -3 -8 1 -14 10 -14 18 0 43
-28 33 -37 -4 -4 -16 -2 -26 5 -27 16 -51 15 -44 -2 7 -18 -20 -24 -65 -15
-40 9 -81 -4 -81 -26 0 -12 -6 -15 -21 -10 -40 13 -73 13 -87 -1 -7 -8 -26
-14 -42 -14 -37 0 -49 43 -16 58 20 10 20 11 -4 11 -24 0 -75 -17 -56 -18 5
-1 2 -8 -5 -17 -8 -10 -20 -29 -27 -43 -12 -25 -12 -25 -8 12 4 27 1 37 -7 34
-7 -2 -11 -12 -10 -21 0 -10 -1 -15 -4 -13 -8 9 -49 -38 -45 -52 3 -8 -1 -12
-13 -10 -32 7 -27 26 11 48 20 12 34 25 30 28 -3 4 -12 1 -18 -5 -7 -7 -20
-12 -29 -12 -9 0 -22 -14 -30 -31 -7 -18 -23 -42 -36 -55 -19 -20 -32 -54 -19
-54 18 0 51 28 48 41 -2 9 3 19 10 22 10 3 13 -4 10 -29 -3 -23 -9 -34 -21
-34 -23 0 -47 -17 -38 -27 5 -4 12 -1 17 7 7 11 11 11 24 1 9 -8 16 -19 16
-25 0 -6 8 -16 18 -23 15 -9 21 -8 29 6 14 22 73 26 73 5 0 -18 17 -18 27 0
13 23 75 53 121 60 24 4 51 13 59 21 8 8 29 14 46 14 l32 -1 -30 -7 c-16 -3
-25 -9 -19 -13 12 -8 93 9 111 24 9 7 17 7 26 0 6 -6 30 -14 52 -18 22 -4 42
-10 45 -13 3 -3 16 -12 29 -19 21 -12 23 -12 18 2 -5 12 -1 16 16 15 12 0 16
-3 9 -6 -17 -7 -5 -23 19 -23 20 0 26 -16 9 -22 -6 -2 -12 -24 -13 -48 -2 -25
-7 -52 -11 -59 -5 -8 -3 -17 5 -23 10 -6 8 -8 -10 -6 -21 3 -26 -3 -38 -44
-15 -53 -24 -56 -88 -33 -44 16 -84 20 -70 7 6 -5 29 -14 53 -21 28 -8 40 -16
36 -24 -4 -7 -4 -9 1 -5 10 10 45 -10 44 -25 0 -9 -2 -9 -6 1 -2 6 -11 12 -19
12 -9 0 -13 -4 -10 -9 3 -4 -7 -6 -22 -4 -22 4 -24 2 -12 -7 12 -9 10 -10 -10
-4 -14 4 -31 7 -37 7 -7 0 -13 3 -13 7 0 7 -31 9 -215 11 l-140 2 -70 -35
c-38 -20 -83 -47 -98 -60 -28 -24 -28 -24 -8 -42 12 -11 29 -16 40 -13 14 3
18 1 14 -9 -3 -8 0 -14 7 -14 6 0 10 8 9 18 -3 38 1 54 15 49 7 -3 13 0 12 6
-1 15 5 17 53 17 37 0 40 -3 58 -45 10 -25 21 -45 26 -45 4 0 7 -7 7 -15 0
-16 -46 -22 -52 -6 -1 5 -23 12 -48 15 l-45 5 55 -20 c30 -11 69 -18 85 -16
39 6 126 -13 118 -26 -4 -6 -1 -7 6 -3 7 5 21 0 32 -10 10 -9 19 -14 19 -11 0
3 14 2 31 -3 28 -8 29 -7 17 7 -11 15 -11 16 5 10 42 -16 67 -19 67 -8 0 6 8
11 18 10 11 0 12 -2 4 -6 -10 -4 -10 -8 -2 -19 9 -10 6 -15 -14 -20 -14 -3
-26 -13 -26 -21 0 -12 -8 -14 -32 -9 -18 3 -55 8 -83 10 -27 2 -78 13 -112 25
-71 24 -92 27 -48 7 67 -31 135 -47 221 -52 74 -5 93 -3 103 10 8 9 24 16 37
16 12 0 26 5 29 10 3 6 15 10 25 10 10 0 21 9 25 20 3 11 9 19 13 19 4 -1 18
-1 32 0 20 1 22 3 10 11 -11 7 -7 10 17 10 17 0 39 -7 47 -15 12 -12 20 -13
36 -5 17 9 19 8 13 -7 -3 -10 -10 -24 -16 -30 -7 -10 -2 -12 22 -7 25 5 31 3
31 -10 0 -13 -5 -16 -21 -11 -17 6 -20 3 -17 -12 2 -10 9 -17 15 -16 7 2 10
-7 7 -22 -2 -13 1 -27 6 -30 6 -4 8 -15 5 -26 -5 -14 -2 -19 12 -19 15 0 16 2
3 10 -11 7 -11 10 -2 10 19 0 31 -42 18 -63 -7 -11 -8 -20 -1 -25 12 -8 13
-61 2 -80 -5 -8 -2 -12 9 -12 14 0 15 -6 9 -32 -4 -18 -8 -44 -9 -58 -1 -14
-7 -35 -14 -47 -10 -18 -10 -22 1 -17 10 3 12 -4 9 -31 -4 -35 -22 -60 -22
-31 0 9 -5 16 -10 16 -7 0 -8 -13 -4 -35 4 -23 2 -35 -5 -35 -15 0 -14 -37 2
-43 7 -2 8 -8 3 -13 -5 -5 -11 -4 -13 4 -3 6 -9 12 -15 12 -7 0 -8 -15 -4 -41
6 -38 5 -41 -14 -36 -17 4 -18 2 -9 -15 12 -22 9 -67 -6 -87 -7 -10 -6 -15 3
-18 17 -6 15 -30 -3 -37 -9 -3 -12 -12 -8 -22 5 -13 3 -16 -10 -11 -20 8 -21
3 -5 -22 10 -16 7 -24 -16 -51 -19 -23 -24 -36 -17 -43 15 -15 14 -21 -13 -50
-20 -21 -23 -34 -20 -67 4 -30 1 -40 -9 -40 -16 0 -27 -29 -27 -72 0 -16 -4
-28 -10 -28 -5 0 -10 7 -10 16 0 8 -4 13 -9 9 -5 -3 -9 -22 -8 -43 2 -31 -1
-37 -20 -40 -26 -4 -31 -19 -9 -24 12 -3 12 -7 1 -33 l-14 -30 6 28 6 28 -28
-25 c-15 -14 -24 -30 -20 -35 3 -6 2 -11 -4 -11 -5 0 -13 5 -16 10 -15 24 -27
9 -21 -25 5 -25 3 -35 -6 -35 -7 0 -26 -20 -43 -44 -16 -25 -38 -47 -48 -49
-10 -3 -15 -11 -11 -20 3 -8 -2 -21 -10 -30 -9 -9 -16 -21 -16 -28 0 -6 -8
-18 -17 -25 -10 -7 -18 -18 -19 -26 -3 -45 -8 -47 -13 -8 l-7 45 -12 -40 c-7
-24 -8 -41 -2 -43 15 -5 -13 -42 -32 -42 -10 0 -19 -3 -19 -7 -1 -5 -3 -19 -4
-32 -1 -14 -17 -37 -34 -53 -17 -15 -31 -34 -31 -42 0 -8 -4 -18 -10 -21 -5
-3 -10 -1 -10 4 0 6 -4 11 -9 11 -5 0 -8 -15 -7 -34 3 -28 0 -33 -16 -28 -14
3 -17 0 -12 -14 4 -11 4 -16 -1 -12 -12 11 -35 -11 -35 -32 0 -11 -11 -23 -27
-28 l-28 -10 29 -1 c35 -1 30 -10 -7 -13 -15 -1 -27 -5 -27 -8 0 -3 -14 -11
-31 -19 -27 -12 -33 -12 -40 0 -7 11 -9 11 -9 -2 0 -11 -10 -16 -35 -17 -19
-1 -44 -6 -56 -12 -11 -6 -50 -12 -87 -13 -57 -2 -67 -5 -70 -21 -3 -16 0 -18
25 -12 15 4 84 16 153 28 69 11 145 27 170 35 112 36 107 37 208 -44 29 -24
58 -43 64 -43 14 0 155 -115 183 -149 50 -61 96 -137 120 -201 22 -57 26 -86
26 -161 0 -64 -4 -96 -14 -107 -18 -21 -39 -82 -28 -82 4 0 13 10 20 23 10 19
11 18 5 -13 -4 -19 -8 -51 -9 -70 -4 -64 -3 -64 -20 -50 -13 11 -15 8 -15 -19
0 -21 -5 -31 -15 -31 -11 0 -15 -11 -15 -36 0 -21 4 -33 10 -29 6 3 13 -2 17
-11 4 -10 2 -19 -5 -22 -7 -2 -12 -15 -12 -28 0 -13 -4 -24 -10 -24 -17 0 -11
-18 8 -24 12 -4 18 -15 17 -29 -2 -28 -18 -25 -27 5 -5 15 -6 9 -3 -16 2 -22
10 -43 16 -47 10 -6 10 -19 1 -61 -25 -112 -32 -165 -27 -180 4 -9 0 -18 -9
-21 -9 -4 -16 -16 -16 -27 0 -22 15 -27 23 -7 3 7 6 5 6 -5 1 -10 -3 -18 -9
-18 -5 0 -10 -9 -10 -21 0 -11 -4 -18 -9 -15 -13 8 -20 -39 -8 -59 6 -12 3
-23 -14 -41 -20 -21 -21 -26 -9 -34 11 -7 12 -12 3 -21 -6 -6 -10 -27 -8 -47
1 -21 1 -29 -2 -19 -4 15 -6 15 -20 2 -12 -12 -13 -21 -4 -47 12 -35 -3 -113
-19 -103 -6 4 -10 -8 -10 -24 0 -33 -16 -42 -23 -13 -3 10 -5 6 -6 -10 0 -16
-10 -37 -22 -49 -13 -13 -19 -28 -15 -42 6 -26 -2 -41 -27 -50 -13 -5 -16 -13
-12 -27 4 -13 2 -20 -6 -20 -10 0 -10 -3 -1 -12 10 -10 15 -10 22 2 8 13 10
12 10 -2 0 -10 -4 -18 -9 -18 -18 0 -23 -43 -10 -82 11 -34 10 -41 -4 -56 -11
-10 -17 -12 -17 -4 0 7 5 12 10 12 16 0 12 20 -5 26 -18 7 -51 -16 -36 -25 11
-7 16 -80 7 -103 -4 -9 -3 -26 4 -37 8 -17 8 -21 -4 -21 -8 0 -16 6 -19 13 -4
9 -7 9 -18 -1 -10 -9 -10 -12 0 -12 7 0 9 -5 6 -10 -3 -6 1 -13 9 -16 28 -11
5 -25 -32 -20 -20 3 -29 3 -19 0 10 -3 16 -12 13 -19 -2 -7 1 -16 8 -18 8 -3
16 -19 18 -37 5 -35 -7 -51 -15 -19 -3 13 -10 18 -17 14 -7 -4 -10 -16 -7 -26
6 -21 -8 -26 -16 -6 -3 6 -6 2 -6 -11 -1 -12 -7 -25 -15 -28 -19 -7 -13 -54 8
-66 9 -5 16 -16 16 -23 0 -8 5 -15 10 -15 6 0 10 -4 10 -10 0 -5 -9 -10 -20
-10 -11 0 -20 5 -20 10 0 6 -13 10 -30 10 -16 0 -30 -4 -30 -10 0 -5 12 -10
26 -10 14 0 23 -4 19 -10 -4 -6 -11 -8 -16 -5 -5 4 -9 2 -9 -3 0 -6 7 -12 15
-16 8 -3 15 -15 15 -26 0 -23 -15 -27 -24 -5 -3 8 -10 15 -15 15 -6 0 -7 -7
-4 -17 4 -10 2 -14 -4 -10 -5 3 -23 2 -39 -3 -16 -4 -21 -9 -11 -9 9 -1 17 -8
17 -17 0 -16 -8 -16 -55 1 -14 5 -11 -1 10 -19 17 -14 37 -26 45 -26 10 0 11
-3 4 -8 -6 -4 -14 -14 -17 -22 -4 -13 -6 -12 -6 1 -1 9 -11 19 -23 22 -31 9
-35 0 -10 -22 27 -23 28 -34 3 -26 -12 4 -21 0 -25 -11 -5 -14 -9 -15 -19 -5
-9 9 -9 14 3 21 8 5 11 12 7 16 -4 4 -13 2 -19 -4 -23 -23 -41 -14 -33 16 l6
27 -22 -22 c-19 -19 -20 -24 -9 -38 12 -14 11 -18 -1 -26 -9 -5 -10 -9 -2 -9
6 0 15 5 18 10 4 6 11 8 16 4 5 -3 6 -10 3 -16 -4 -6 6 -22 22 -35 16 -12 23
-23 15 -23 -7 0 -22 10 -32 22 -11 11 -22 18 -26 15 -12 -12 -41 23 -36 44 3
10 0 19 -6 19 -6 0 -11 -16 -11 -35 0 -19 4 -35 10 -35 5 0 13 -15 18 -33 6
-22 15 -33 31 -35 12 -2 25 -10 28 -18 7 -20 -6 -66 -17 -59 -5 3 -6 13 -3 21
7 19 -15 36 -37 29 -23 -7 -47 12 -34 25 6 6 9 23 6 38 -5 24 -6 22 -18 -18
-10 -33 -10 -47 -2 -58 9 -10 9 -15 1 -20 -7 -5 -2 -12 14 -19 21 -10 24 -10
19 3 -3 7 -1 14 3 14 15 0 21 -31 11 -51 -13 -23 -19 -24 -37 -1 -10 12 -16
14 -19 5 -7 -15 -44 -17 -44 -3 0 6 -5 10 -11 10 -7 0 -9 -10 -5 -25 8 -33 -7
-32 -22 1 -12 25 -32 25 -32 -2 0 -8 -4 -14 -10 -14 -16 0 -12 40 5 46 8 4 15
12 15 20 0 23 -14 16 -38 -22 -19 -29 -26 -33 -37 -24 -8 7 -22 10 -30 6 -9
-3 -27 1 -40 10 -13 9 -30 14 -37 11 -24 -8 106 -64 197 -85 119 -28 234 -43
265 -36 23 5 23 4 6 -7 -20 -13 -132 -16 -236 -6 -46 5 -59 4 -45 -4 18 -8 17
-9 -5 -4 -14 2 -32 5 -40 6 -10 0 -9 3 5 10 16 7 13 8 -12 4 -38 -5 -157 41
-146 58 3 6 1 7 -6 3 -16 -10 -152 71 -158 95 -3 10 -9 16 -14 13 -5 -3 -9 1
-9 9 0 8 -18 31 -40 51 -22 20 -40 41 -40 46 0 6 -7 13 -15 16 -8 4 -12 11 -8
17 4 6 0 8 -10 4 -9 -3 -16 -3 -15 1 3 16 -15 62 -25 62 -6 0 -7 3 -4 7 4 3 1
13 -7 22 -18 21 -32 66 -17 57 6 -4 11 -13 11 -20 0 -7 9 -23 20 -36 11 -13
20 -26 20 -29 0 -22 184 -191 208 -191 6 0 17 -6 24 -13 26 -24 70 -48 76 -41
4 4 1 9 -7 12 -28 10 -93 76 -80 81 8 2 19 11 25 19 9 12 12 12 25 -1 14 -13
17 -13 27 4 12 19 8 22 -53 31 -11 2 -21 12 -23 23 -3 20 -3 20 13 1 15 -20
15 -20 33 0 18 19 18 19 -22 21 -23 0 -46 -3 -52 -8 -14 -11 -54 0 -54 17 0 7
4 16 10 19 6 3 7 -1 4 -10 -5 -13 -1 -15 17 -11 13 3 41 8 62 11 44 7 46 29 2
30 -26 0 -29 4 -33 37 -2 20 2 39 7 43 7 4 11 -5 11 -24 0 -17 2 -31 4 -31 17
0 36 15 36 27 0 9 -6 13 -15 9 -10 -4 -15 1 -15 14 0 23 25 27 34 5 7 -19 26
-19 26 0 0 18 31 20 49 3 10 -11 11 -9 5 6 -5 14 -14 17 -40 13 -36 -6 -45 5
-49 56 -2 25 0 28 19 23 21 -5 21 -5 1 11 -12 9 -15 17 -9 20 6 2 20 10 30 18
16 13 17 16 4 25 -10 6 -11 10 -2 10 18 0 15 21 -5 35 -14 11 -15 16 -4 28 10
13 9 18 -11 28 -32 17 -52 39 -43 47 4 4 10 1 12 -5 3 -7 13 -13 23 -13 10 0
20 -5 22 -12 2 -6 16 0 32 17 20 20 30 25 39 16 15 -15 27 -14 27 4 0 8 -7 15
-15 15 -8 0 -15 9 -15 20 0 24 -15 26 -28 4 -8 -14 -10 -14 -21 0 -9 11 -10
16 -2 16 6 0 11 7 11 15 0 8 -4 15 -9 15 -7 0 -8 19 -2 53 3 18 20 4 23 -20 2
-14 9 -29 17 -31 8 -3 11 0 8 6 -4 5 -2 24 4 42 9 26 9 34 -2 42 -10 7 -7 8
12 6 22 -4 49 11 49 27 0 3 -16 3 -35 -1 -23 -4 -35 -2 -35 5 0 13 44 14 88 2
34 -10 46 3 12 14 -11 3 -23 17 -26 31 -3 13 -10 21 -16 18 -5 -3 -7 -12 -4
-20 3 -8 0 -14 -8 -14 -8 0 -11 10 -8 33 5 36 19 49 43 42 9 -3 22 1 28 9 10
12 9 14 -7 10 -26 -7 -49 21 -32 41 9 10 9 15 1 15 -6 0 -11 9 -11 21 0 18 4
20 25 15 14 -4 25 -2 25 3 0 5 -9 11 -20 14 -11 3 -20 12 -20 21 0 18 15 21
25 6 8 -13 25 -13 25 1 0 6 -13 16 -30 22 -16 6 -30 15 -30 19 0 13 38 9 42
-4 3 -7 11 -9 24 -4 19 8 19 8 -1 17 -14 7 -8 8 22 4 55 -7 64 11 13 26 -29 9
-47 9 -63 2 -15 -7 -29 -8 -38 -2 -10 6 -8 9 11 10 14 0 20 3 13 5 -9 4 -9 11
-1 29 6 14 15 22 19 19 13 -8 50 16 43 28 -4 7 4 8 25 3 20 -4 31 -3 31 4 0 7
-13 14 -30 17 -16 4 -34 12 -40 19 -8 9 -4 11 16 7 23 -4 25 -2 19 17 -3 11
-2 21 3 21 14 0 30 -22 37 -53 5 -18 14 -27 28 -27 19 0 19 1 4 18 -21 23 -22
42 -3 42 7 0 27 7 42 15 18 9 22 15 13 15 -18 0 -33 26 -24 40 3 4 14 6 25 3
14 -4 20 0 20 11 0 11 -9 16 -27 16 -20 0 -31 7 -40 26 -15 32 -1 66 22 58 10
-4 15 0 16 12 1 17 2 17 6 2 2 -10 9 -18 14 -18 5 0 9 -7 9 -15 0 -8 -7 -15
-15 -15 -8 0 -15 -7 -15 -16 0 -9 6 -14 13 -11 6 2 20 0 29 -4 14 -8 16 -4 15
26 -1 19 -8 37 -14 40 -7 2 -13 12 -13 21 0 13 3 14 13 5 15 -12 27 -5 27 16
0 10 -6 12 -20 8 -14 -5 -20 -2 -20 9 0 9 7 16 15 16 25 0 17 14 -15 28 -43
20 -37 30 15 24 26 -2 45 0 45 5 0 18 -13 23 -27 11 -10 -8 -17 -8 -26 1 -9
10 -8 15 7 23 19 11 19 11 1 24 -19 14 -17 16 20 18 12 1 21 9 23 21 3 20 48
49 63 39 5 -2 17 15 29 38 11 24 27 53 36 66 12 15 13 22 4 22 -8 0 -10 8 -6
24 4 18 1 28 -11 34 -20 12 -26 42 -8 42 7 0 15 9 18 20 4 15 0 20 -13 20 -25
0 -37 20 -13 21 10 0 13 3 6 6 -21 8 -15 21 19 37 35 18 64 21 73 7 3 -6 18
-6 36 -1 16 5 37 6 46 3 12 -5 15 -2 10 10 -5 14 -2 16 21 11 21 -4 24 -3 12
5 -10 7 -11 11 -2 11 6 0 22 10 34 22 20 20 20 22 3 34 -15 11 -16 16 -4 30
11 14 11 18 -4 29 -23 17 -21 28 4 22 20 -5 20 -5 4 13 -11 13 -16 30 -13 50
5 31 -8 40 -30 18 -7 -7 -12 -8 -12 -4 0 5 -6 3 -14 -3 -10 -8 -16 -9 -21 -1
-3 5 -28 10 -56 10 -34 0 -48 4 -46 13 1 8 -10 11 -35 9 -25 -2 -38 1 -38 10
0 9 -3 9 -12 0 -7 -7 -19 -12 -27 -12 -14 0 -14 2 -1 11 11 8 3 9 -32 6 -27
-3 -52 0 -59 7 -8 8 -13 8 -16 -1 -7 -19 -23 -16 -23 4 0 15 -1 15 -18 0 -26
-24 -45 -22 -37 3 7 21 -9 28 -21 9 -3 -6 -17 -8 -30 -5 -14 4 -24 2 -24 -4 0
-5 -7 -10 -16 -10 -8 0 -12 5 -9 10 3 6 -6 15 -20 20 -14 5 -24 13 -22 17 3 5
-5 9 -16 10 -12 1 -44 5 -72 8 -27 3 -63 6 -80 6 -227 1 -278 4 -312 22 -18 9
-40 17 -50 17 -14 0 -15 2 -5 9 10 6 4 10 -18 15 -18 3 -36 3 -41 0 -14 -8
-10 -24 6 -24 8 0 15 -4 15 -10 0 -5 -9 -10 -21 -10 -14 0 -19 -5 -16 -14 4
-10 1 -13 -9 -9 -8 3 -14 -1 -14 -11 0 -9 -5 -16 -11 -16 -5 0 -8 4 -4 9 11
19 -17 23 -30 5 -10 -13 -17 -16 -22 -8 -5 7 -25 10 -46 9 -21 -2 -35 1 -31 6
3 5 -2 9 -10 9 -9 0 -16 -6 -16 -14 0 -12 -11 -10 -56 8 -30 12 -54 25 -52 27
2 3 -12 23 -30 46 -22 28 -34 56 -38 90 -4 26 -13 72 -20 101 -7 30 -12 58
-11 64 1 6 -4 13 -10 15 -10 3 -13 -13 -13 -61 0 -37 -4 -66 -10 -66 -5 0 -10
-7 -10 -15 0 -8 5 -15 10 -15 6 0 10 -5 10 -11 0 -5 -4 -8 -8 -5 -4 2 -7 -17
-6 -43 1 -43 -1 -48 -28 -60 -25 -11 -38 -11 -83 2 -30 8 -63 13 -75 10 -12
-3 -20 0 -20 6 0 7 -5 9 -10 6 -6 -3 -13 1 -16 9 -3 8 -14 18 -25 21 -11 4
-17 11 -14 16 4 5 2 9 -4 9 -18 0 -59 102 -67 165 -4 33 -9 139 -10 235 -3
209 -6 250 -18 243 -5 -4 -7 22 -4 60 4 43 2 67 -5 67 -6 0 -7 17 -4 45 4 24
3 47 -2 50 -5 3 -8 93 -8 201 1 108 -1 198 -4 200 -4 2 -10 -39 -14 -92 -7
-91 -8 -94 -28 -88 -21 6 -21 5 -4 -8 16 -12 19 -29 18 -134 -1 -66 3 -143 8
-170 14 -73 23 -253 12 -229 -8 17 -10 17 -10 3 -1 -9 8 -23 18 -30 15 -11 22
-33 29 -99 5 -46 6 -86 3 -89 -4 -3 -7 -17 -8 -33 0 -15 -11 -36 -24 -48 -13
-11 -18 -17 -10 -13 11 6 13 1 8 -26 -4 -18 -7 -39 -7 -46 0 -8 -7 -14 -15
-14 -10 0 -15 10 -15 28 0 22 -2 24 -11 12 -8 -12 -9 -10 -4 8 3 12 2 22 -3
22 -12 0 -48 90 -73 180 -6 19 -13 42 -16 50 -4 8 -8 20 -8 25 -1 6 -4 17 -7
25 -3 8 -11 35 -18 60 -7 25 -16 48 -21 51 -6 3 -11 21 -13 41 -2 19 -5 39 -9
44 -3 5 -11 47 -17 94 -7 47 -17 87 -21 90 -5 3 -11 42 -14 85 -9 128 -12 147
-30 209 -21 73 -10 98 52 127 33 15 64 19 147 19 99 0 106 1 117 23 42 79 129
96 296 56 48 -11 97 -22 108 -23 12 -1 27 -6 34 -10 7 -4 15 -5 18 -2 9 9 1
14 -30 20 -49 9 -72 18 -90 38 -12 12 -26 17 -40 14 -12 -3 -17 -3 -11 0 15 6
-11 63 -32 71 -8 3 -14 14 -14 24 0 11 -7 22 -15 25 -8 4 -13 10 -10 14 3 5
-3 23 -14 41 -15 24 -17 37 -10 51 7 14 6 18 -5 18 -9 0 -19 12 -22 28 -4 15
-10 32 -15 37 -4 6 -11 30 -15 53 -4 23 -10 42 -14 42 -4 0 -10 22 -14 50 -5
36 -10 48 -21 44 -10 -4 -12 0 -8 16 4 15 0 26 -10 32 -9 4 -14 15 -11 23 4 8
1 15 -6 15 -9 0 -9 4 1 16 11 13 10 17 -4 25 -10 6 -17 22 -17 37 0 16 -5 33
-11 39 -12 12 -50 116 -44 121 2 2 6 -6 10 -17 13 -43 22 -10 9 38 -7 27 -10
58 -7 69 2 11 -4 37 -15 58 -11 22 -23 71 -27 109 -4 39 -12 76 -17 83 -7 8
-7 12 2 12 7 0 10 8 7 20 -3 11 -2 20 3 20 4 0 11 30 15 67 4 37 9 78 12 92 5
28 23 54 23 33 0 -7 4 -12 10 -12 6 0 6 9 1 23 -7 18 -4 30 16 55 28 36 44 42
36 13 -4 -16 -1 -19 16 -14 16 4 21 1 21 -16 0 -12 6 -21 15 -21 23 0 75 -57
76 -83 1 -18 2 -18 6 -4 7 26 29 14 25 -13 -2 -19 0 -21 12 -11 10 9 20 9 33
2 55 -32 193 -50 225 -30 8 6 -2 9 -27 10 -79 2 -95 4 -94 13 0 5 -5 13 -13
18 -8 6 20 7 75 4 67 -4 87 -2 84 7 -2 7 -20 16 -40 21 -20 5 -37 14 -37 19 0
5 -13 6 -30 2 -19 -4 -30 -3 -30 4 0 6 6 11 13 12 6 0 -3 5 -20 10 -25 7 -35
17 -41 42 -11 40 -7 47 26 47 20 0 33 -8 45 -29 9 -16 34 -43 55 -59 39 -31
112 -57 122 -43 3 4 17 11 33 15 31 7 84 58 92 90 12 40 28 66 43 66 8 0 30
-11 48 -25 18 -14 37 -25 42 -25 14 0 3 -35 -18 -58 -18 -18 -17 -19 31 -21
27 -1 49 2 50 6 0 5 2 17 4 27 4 22 -33 75 -54 75 -8 1 -37 15 -65 33 -53 33
-102 44 -251 55 -96 7 -153 8 -221 2 -49 -4 -50 -3 -46 21 6 32 28 50 63 50
15 0 31 5 34 10 9 14 -31 12 -92 -4 l-53 -14 0 40 c0 32 -3 39 -15 34 -8 -3
-16 -2 -16 2 -1 4 -3 21 -5 37 -6 51 -7 55 -14 55 -3 0 -11 -5 -16 -10 -7 -7
-10 3 -9 32 3 67 13 85 60 112 41 24 66 34 52 20 -15 -15 21 -33 50 -25 26 8
72 7 158 -3 11 -1 33 -8 48 -14 16 -7 33 -12 38 -12 5 0 22 -12 36 -26 20 -20
28 -23 34 -12 7 10 9 10 9 1 0 -7 9 -13 21 -13 15 0 19 -5 15 -16 -3 -9 -2
-12 5 -9 6 4 18 1 27 -7 9 -8 33 -15 52 -15 19 -1 27 1 18 3 -10 3 -18 9 -18
14 0 5 -8 7 -17 4 -14 -5 -15 -4 -4 4 8 6 25 6 43 1 17 -4 40 -4 53 1 21 8 23
14 19 42 -3 18 -6 40 -6 48 -1 8 -16 35 -33 60 -31 45 -32 45 -128 64 -66 13
-97 23 -97 32 0 11 -17 13 -77 9 -49 -2 -72 -1 -63 5 12 8 12 10 -3 16 -9 3
-23 2 -30 -4 -15 -12 -89 -13 -81 -1 7 12 -13 11 -38 -2 -16 -9 -23 -7 -37 8
-10 10 -16 24 -13 31 7 21 -28 26 -48 7 -12 -11 -20 -13 -20 -7 0 7 4 12 9 12
5 0 14 38 21 83 9 64 17 90 35 109 16 17 23 37 23 59 0 19 3 44 7 57 6 19 4
21 -11 16 -18 -5 -18 -5 -1 9 9 8 15 21 12 29 -5 12 0 15 19 13 26 -3 39 15
30 40 -4 8 -1 15 6 15 8 0 11 12 7 38 -3 27 1 45 17 67 30 40 50 91 43 109 -3
8 5 22 18 32 14 10 21 23 17 32 -3 10 -1 13 7 8 7 -5 22 3 37 19 29 32 30 38
4 30 -18 -6 -19 -3 -13 27 8 44 13 48 14 12 0 -16 3 -23 6 -16 4 10 8 10 21 0
13 -11 15 -10 9 5 -5 13 0 24 15 36 15 12 18 20 10 25 -7 4 -12 2 -12 -3 0 -6
-4 -11 -9 -11 -14 0 -8 41 9 67 7 11 20 19 27 16 8 -3 13 3 13 17 0 11 -4 18
-10 15 -16 -10 -12 21 5 35 8 7 22 10 30 6 8 -3 15 -1 15 4 0 6 7 10 15 10 8
0 15 8 15 18 0 26 11 34 27 21 10 -9 13 -7 13 9 0 12 5 24 11 28 8 4 7 9 -2
15 -24 14 -4 19 23 4 23 -11 29 -11 39 1 6 8 18 14 26 14 11 0 14 7 10 21 -10
38 9 69 43 69 17 0 46 6 65 14 18 8 36 12 38 9 6 -5 47 33 47 45 0 4 23 7 50
8 47 0 66 -9 38 -18 -7 -3 -3 -7 9 -10 19 -5 21 -3 13 17 -5 13 -7 25 -4 28 3
2 7 17 10 33 3 22 2 25 -6 14 -5 -8 -10 -12 -10 -8 0 3 -3 14 -7 24 -4 12 -3
15 5 10 7 -4 12 -2 12 4 0 7 7 9 16 6 9 -3 12 -2 9 5 -4 5 -8 46 -9 89 -1 60
2 80 11 80 7 0 13 -11 13 -24z m-1688 -583 c-11 -27 -66 -102 -75 -103 -4 0
-4 12 -1 26 5 19 4 25 -5 20 -6 -4 -11 -15 -11 -25 0 -10 -9 -29 -19 -43 -11
-13 -23 -37 -27 -52 -3 -14 -14 -31 -23 -36 -10 -5 -27 -28 -40 -52 -19 -38
-75 -108 -86 -108 -1 0 -3 17 -3 37 0 39 31 90 100 167 21 22 54 63 74 89 29
39 38 46 50 36 11 -9 15 -8 20 5 3 9 4 22 1 30 -7 18 1 26 29 26 18 0 22 -4
16 -17z m-122 -339 c0 -3 -6 -18 -14 -32 -22 -42 -86 -193 -86 -203 0 -4 7 -6
15 -3 8 4 15 1 15 -5 0 -6 -6 -11 -14 -11 -8 0 -18 -10 -22 -22 -9 -31 -54
-88 -66 -85 -5 1 -17 -8 -25 -20 -9 -13 -11 -23 -5 -23 6 0 14 5 17 10 12 20
26 10 14 -11 -10 -19 -9 -20 11 -14 21 7 21 6 5 -32 -19 -45 -40 -69 -32 -36
2 12 0 25 -7 28 -8 4 -8 6 1 11 15 7 5 34 -13 34 -11 0 -14 16 -12 75 1 42 5
68 9 58 4 -13 11 -4 24 32 35 95 44 115 53 115 5 0 8 10 8 23 -1 14 4 21 14
20 9 -2 20 7 25 20 6 12 20 26 33 32 12 5 25 18 28 27 5 17 24 26 24 12z
m5155 -923 c3 -10 17 -21 30 -24 21 -3 23 -2 14 10 -22 25 0 25 25 0 26 -26
48 -18 26 8 -7 8 -9 15 -5 15 11 0 65 -58 65 -70 0 -5 4 -10 10 -10 11 0 43
-70 35 -78 -2 -3 -7 2 -10 10 -5 11 -16 14 -40 11 -18 -2 -44 1 -57 7 -22 11
-22 11 -3 -4 11 -9 31 -26 44 -38 14 -13 22 -18 18 -12 -12 20 23 25 49 8 13
-9 24 -24 24 -34 0 -9 3 -39 7 -65 4 -31 3 -46 -4 -42 -9 6 -33 -18 -68 -68
l-14 -20 -1 20 c-1 20 -1 20 -15 1 -8 -11 -12 -29 -10 -40 9 -35 -7 -49 -39
-35 -24 11 -25 14 -10 22 13 7 19 7 22 -1 2 -7 8 -12 13 -12 5 0 5 9 -1 23 -5
12 -11 34 -14 50 -4 15 -13 27 -22 27 -14 0 -14 -2 0 -16 18 -18 21 -34 6 -34
-5 0 -10 4 -10 8 0 10 -50 35 -57 29 -7 -8 16 -57 27 -57 6 0 8 6 4 13 -6 10
-4 10 7 0 10 -11 11 -15 0 -25 -10 -11 -16 -8 -32 11 -10 13 -19 29 -19 36 0
7 -6 15 -12 18 -10 3 -10 9 0 26 9 15 10 27 2 41 -5 10 -10 29 -10 41 0 21 1
22 20 4 25 -23 26 -11 1 21 -11 13 -21 20 -23 14 -1 -5 -3 9 -4 33 -1 23 -13
66 -27 95 -14 29 -20 52 -14 49 7 -2 16 -13 22 -25 5 -12 13 -22 17 -22 12 0
10 28 -2 35 -5 3 -10 11 -10 17 0 6 6 6 15 -2 21 -17 29 -7 16 18 -13 25 -14
32 -2 32 5 0 12 -9 16 -19z m-5703 -689 c-7 -41 -6 -49 5 -45 7 3 14 17 14 32
1 18 3 20 6 8 3 -10 -1 -32 -7 -48 -13 -30 -29 -39 -31 -16 0 6 -7 -2 -15 -20
-7 -17 -24 -39 -36 -47 -13 -9 -22 -20 -20 -24 7 -16 -10 -72 -19 -66 -6 3 -9
18 -6 33 l5 26 -19 -24 c-23 -28 -24 -39 -3 -43 11 -2 -3 -16 -40 -42 -46 -32
-62 -50 -86 -103 -17 -35 -30 -73 -30 -83 0 -10 -4 -21 -9 -25 -5 -3 -15 -30
-21 -61 -7 -31 -20 -64 -29 -73 -30 -30 -39 -253 -10 -235 5 3 9 -9 9 -26 0
-28 -2 -30 -20 -20 -11 6 -20 21 -20 35 0 28 -19 45 -21 18 -1 -10 0 -22 1
-28 14 -62 22 -328 10 -320 -5 3 -6 -29 -3 -72 6 -83 6 -99 4 -152 l-1 -35
-20 22 c-13 14 -20 35 -20 64 0 24 -5 61 -9 83 -5 22 -12 57 -15 77 -3 20 -16
79 -28 130 -12 51 -23 128 -24 170 -1 42 -5 82 -9 88 -4 6 -4 28 1 48 8 40 6
64 -5 72 -6 4 -7 55 -1 70 1 3 3 10 4 15 2 17 21 17 24 1 2 -9 -1 -16 -7 -16
-6 0 -11 -15 -11 -32 l1 -33 14 32 c9 21 19 31 28 27 10 -4 17 5 21 31 4 19
16 51 27 70 13 21 16 35 10 35 -9 0 -8 6 0 23 7 12 11 24 10 27 -1 2 2 6 8 8
6 2 9 -4 6 -15 -3 -10 2 -2 12 17 l17 35 4 -29 c4 -30 -14 -82 -35 -104 -7 -7
-13 -28 -13 -47 0 -24 -9 -43 -32 -68 -30 -31 -58 -70 -58 -81 0 -2 9 -2 19 1
12 3 21 15 23 31 4 35 49 60 60 34 4 -9 5 9 3 41 -5 59 8 103 26 92 5 -4 6
-12 3 -18 -4 -7 -4 -9 1 -5 4 4 9 22 10 40 9 106 32 181 60 191 20 8 19 -2 -2
-25 -9 -10 -11 -18 -5 -18 12 0 42 39 42 55 0 5 -4 17 -10 25 -7 12 -12 12
-29 -4 -12 -11 -21 -16 -21 -12 0 10 21 50 30 56 3 3 19 23 36 44 36 49 104
120 104 110 0 -9 -38 -67 -87 -132 -31 -43 -35 -76 -7 -65 8 3 21 17 29 32 7
15 43 57 79 94 36 37 68 79 72 94 9 40 58 146 62 134 2 -5 -1 -32 -6 -59z
m-169 -366 c-10 -14 -11 -56 -2 -50 4 2 10 20 13 40 9 46 32 40 28 -7 -2 -19
-8 -35 -13 -37 -5 -2 -9 -11 -9 -19 0 -10 -6 -13 -15 -9 -10 3 -15 1 -14 -7 1
-6 -1 -19 -4 -27 -7 -19 -27 -92 -27 -102 0 -5 4 -8 9 -8 5 0 12 17 15 38 11
59 16 72 32 72 19 0 18 -19 -2 -41 -10 -11 -12 -19 -5 -24 6 -3 11 -1 11 4 0
6 7 11 15 11 14 0 13 -3 -1 -25 -9 -14 -13 -25 -10 -25 4 0 0 -13 -8 -29 -9
-16 -13 -31 -10 -34 3 -2 -4 -21 -16 -41 -11 -20 -20 -44 -20 -54 -1 -15 -2
-15 -15 2 -10 13 -12 23 -5 30 13 13 13 36 1 36 -13 0 -21 -30 -25 -84 -2 -44
5 -58 19 -36 3 6 18 10 33 10 26 -1 26 -1 8 -15 -11 -8 -30 -15 -42 -15 -18 0
-20 -4 -16 -26 4 -20 2 -25 -8 -19 -6 4 -4 -4 5 -19 14 -21 15 -29 5 -41 -7
-8 -10 -24 -7 -35 3 -11 1 -18 -3 -15 -5 3 -10 0 -12 -6 -2 -6 -9 5 -15 25 -6
20 -7 36 -2 36 13 0 11 37 -2 45 -5 4 -8 21 -5 38 l6 32 -14 -35 -13 -35 -8
39 c-6 28 -3 48 8 70 8 17 18 43 21 58 3 14 9 34 12 45 5 17 4 17 -10 -1 -9
-11 -16 -35 -16 -53 0 -18 -4 -33 -10 -33 -5 0 -10 8 -10 18 1 33 36 173 42
167 3 -3 6 4 7 17 1 47 14 98 27 109 8 6 14 16 14 21 0 18 45 65 57 60 7 -2
10 -9 6 -16z m6959 -416 c23 -21 44 -27 33 -10 -3 6 1 10 10 10 13 0 15 -6 10
-32 -7 -32 -6 -32 9 -13 16 20 16 20 22 -3 4 -14 12 -21 20 -18 8 3 14 0 14
-7 0 -12 44 -37 67 -37 9 0 12 -11 8 -35 -2 -19 1 -37 6 -41 6 -3 8 -12 5 -20
-6 -16 3 -44 14 -44 5 0 6 10 3 23 -4 16 1 13 19 -13 18 -28 24 -31 26 -16 2
10 -8 31 -23 46 -28 30 -27 54 2 43 15 -6 16 -5 3 9 -8 9 -17 15 -20 15 -6 -2
-10 8 -10 28 0 19 34 20 49 1 9 -11 8 -15 -6 -21 -16 -6 -15 -8 6 -16 20 -8
22 -14 17 -44 -7 -34 1 -42 37 -36 4 0 7 -15 7 -34 0 -38 -28 -62 -58 -50 -15
6 -15 8 3 16 17 8 16 9 -5 4 -18 -3 -30 2 -42 18 l-18 22 -6 -22 c-8 -28 -50
-32 -57 -5 -3 12 -5 11 -6 -6 -1 -20 -4 -21 -21 -12 -11 6 -20 19 -20 30 0 23
-16 35 -23 18 -3 -7 -6 1 -6 19 -1 17 5 34 12 36 7 3 5 6 -5 6 -10 1 -18 6
-18 12 0 7 -10 9 -24 7 -21 -4 -23 -3 -13 14 9 14 19 17 43 12 19 -3 35 -1 38
5 5 7 -3 11 -19 11 -20 0 -26 4 -21 15 9 25 -11 17 -43 -17 -40 -43 -48 -30
-17 27 15 25 23 52 19 58 -4 7 -9 3 -13 -13 -5 -20 -13 -26 -41 -28 l-35 -3 4
38 c4 32 25 73 39 73 2 0 13 -9 25 -20z m-7106 -173 c4 -12 15 -33 25 -46 10
-13 16 -28 13 -33 -3 -5 -1 -14 4 -21 10 -12 9 -58 -3 -76 -3 -6 1 -11 9 -11
20 0 20 -8 2 -52 -31 -74 -41 -66 -60 52 -10 60 -16 115 -14 122 3 7 1 24 -5
38 -10 25 -10 25 -17 -10 l-6 -35 -9 29 c-4 16 -4 31 2 35 5 3 12 14 16 23 8
23 34 13 43 -15z m8287 -2184 c-6 -26 9 -30 27 -8 10 13 14 12 30 -7 20 -25
16 -50 -7 -41 -13 5 -14 0 -8 -28 4 -18 15 -39 24 -46 14 -10 12 -11 -8 -6
-19 5 -22 3 -15 -8 5 -8 9 -31 10 -51 0 -21 8 -46 17 -56 9 -10 16 -27 16 -38
-1 -18 -2 -18 -6 1 -3 11 -16 33 -30 49 l-24 28 7 -41 c7 -46 -6 -54 -30 -19
-9 12 -18 19 -21 16 -3 -3 7 -17 22 -32 35 -35 40 -71 14 -86 -16 -8 -22 -7
-29 6 -8 14 -10 12 -16 -11 -5 -21 -2 -33 13 -49 24 -25 27 -46 8 -46 -20 0
-36 21 -31 39 3 9 -1 7 -8 -5 -7 -12 -19 -19 -27 -16 -9 3 -11 0 -6 -7 4 -7
12 -10 18 -8 6 2 28 -16 48 -40 23 -26 39 -38 42 -30 3 6 6 2 6 -10 1 -31 -8
-29 -48 8 -30 27 -37 29 -58 20 -33 -15 -35 -14 -32 12 1 12 -5 37 -13 56
l-15 33 -7 -43 c-4 -24 -10 -46 -14 -49 -4 -3 -15 -20 -24 -38 -14 -26 -15
-38 -7 -54 6 -11 8 -22 5 -26 -3 -3 -6 0 -6 6 0 7 -7 12 -16 12 -14 0 -16 7
-10 48 13 88 23 137 25 120 2 -25 10 -22 37 10 14 16 24 40 24 59 0 39 9 65
21 57 5 -3 9 -16 9 -28 0 -27 29 -101 36 -93 3 3 1 14 -5 25 -16 30 -14 52 4
46 20 -8 19 8 -3 37 -31 40 -32 54 -7 126 21 61 24 64 25 33 0 -26 3 -31 10
-20 13 19 13 60 0 60 -5 0 -8 6 -6 13 2 6 10 53 17 102 9 65 15 83 20 65 3
-14 4 -35 2 -47z m87 -1913 c12 -12 18 -25 15 -29 -2 -5 2 -14 10 -21 8 -7 15
-29 15 -49 0 -20 6 -43 12 -49 10 -10 10 -15 -1 -22 -12 -7 -12 -11 -2 -24 11
-13 11 -16 1 -16 -9 0 -8 -6 4 -19 10 -10 13 -22 8 -25 -11 -7 -45 28 -35 37
3 4 -4 18 -17 32 -13 14 -19 25 -14 26 5 0 -1 4 -14 9 -12 5 -26 20 -31 33 -5
13 -16 31 -25 39 -13 14 -11 15 25 15 53 0 60 10 27 37 -16 12 -28 27 -28 34
0 19 28 14 50 -8z m-7520 -1461 c-7 -11 -9 -23 -6 -26 10 -10 37 20 32 34 -3
7 -2 13 3 13 12 0 35 -86 26 -99 -3 -6 -14 -11 -25 -11 -13 0 -17 -5 -13 -19
6 -23 -26 -46 -76 -55 -19 -3 -40 -14 -47 -24 -7 -9 -16 -14 -20 -10 -4 4 -2
13 3 20 6 7 14 32 18 54 5 30 13 44 31 52 19 9 24 9 24 -3 0 -9 6 -12 15 -9 8
4 17 -1 21 -10 9 -24 19 -19 22 10 1 14 -2 23 -8 19 -6 -3 -10 3 -10 13 0 11
-7 22 -15 26 -8 3 -15 10 -15 15 0 6 7 8 15 4 9 -3 15 -2 14 3 -3 16 1 24 11
24 7 0 7 -7 0 -21z m6615 -135 c22 -8 60 -17 85 -20 25 -2 68 -12 95 -21 29
-10 73 -16 105 -14 64 3 110 -12 110 -35 0 -14 -6 -15 -37 -10 -21 4 -69 11
-108 15 -79 10 -164 30 -181 43 -6 4 -19 6 -27 2 -21 -8 -121 22 -137 41 -11
13 -8 15 21 15 19 -1 52 -8 74 -16z m-7334 -206 c6 -23 18 -47 27 -54 21 -15
10 -39 -29 -58 -26 -13 -34 -14 -41 -4 -11 18 -10 36 2 43 12 8 13 45 1 45
-13 0 -24 -31 -22 -65 2 -33 -22 -75 -36 -61 -4 5 -2 11 5 13 6 3 12 9 12 15
0 6 -6 8 -14 5 -7 -3 -19 0 -25 6 -6 6 -11 7 -11 1 0 -6 5 -15 11 -21 7 -7 3
-17 -17 -32 -15 -11 -30 -21 -35 -21 -10 0 -59 52 -59 62 0 13 44 38 66 38 13
0 24 8 27 20 3 11 11 20 18 20 10 0 10 -3 1 -12 -16 -16 -15 -28 2 -28 8 0 20
16 26 35 6 19 20 40 30 45 10 6 22 19 25 30 10 32 23 23 36 -22z m7264 -69
c22 -4 41 -12 42 -16 2 -4 24 -7 49 -5 29 3 63 -3 92 -14 26 -11 61 -19 77
-19 57 -1 111 -16 141 -40 l29 -24 -36 -1 c-20 0 -56 7 -80 16 -24 9 -75 20
-114 25 -38 5 -86 17 -107 27 -20 11 -41 16 -45 12 -10 -9 -143 18 -160 32 -7
6 -10 14 -7 19 5 9 34 6 119 -12z m-57 -165 c18 -8 37 -12 43 -8 21 13 85 5
129 -17 25 -13 66 -24 91 -26 58 -3 139 -37 139 -58 0 -19 0 -19 -90 6 -41 11
-95 24 -120 29 -25 5 -67 15 -95 23 -27 8 -84 20 -125 27 -89 16 -119 28 -99
41 18 11 84 2 127 -17z m-6948 -576 c0 -5 9 -23 21 -39 11 -16 17 -33 14 -39
-11 -18 -23 -11 -18 10 3 11 0 20 -6 20 -6 0 -13 -11 -17 -25 -5 -20 -11 -24
-33 -20 -14 3 -20 2 -13 -1 20 -9 14 -20 -23 -39 -35 -19 -58 -14 -37 7 14 14
16 48 3 48 -5 0 -12 -11 -15 -25 -4 -14 -11 -25 -16 -25 -6 0 -10 -7 -10 -15
0 -8 -4 -15 -9 -15 -5 0 -16 -3 -25 -6 -11 -4 -16 -1 -16 10 0 9 8 16 20 16
11 0 20 6 20 14 0 8 6 16 13 19 6 2 9 7 6 11 -11 11 -38 -5 -32 -20 3 -8 -1
-14 -11 -14 -9 0 -16 5 -16 10 0 17 -58 11 -69 -7 -9 -16 -10 -16 -11 -2 0 15
109 83 135 84 6 1 20 6 31 13 12 6 24 8 28 5 3 -3 6 -1 6 5 0 7 8 12 19 12 10
0 24 7 31 15 13 15 30 12 30 -7z"/>
<path d="M2981 9076 c-21 -23 -22 -25 -4 -29 11 -3 5 -5 -13 -6 -25 -1 -33 -6
-38 -26 -4 -14 -13 -25 -21 -25 -8 0 -15 -5 -15 -11 0 -7 7 -8 18 -4 33 13 82
18 82 7 0 -5 16 -13 36 -16 19 -4 56 -18 80 -32 l45 -25 -11 23 c-9 19 -7 19
13 -5 13 -16 30 -30 38 -31 8 -2 22 -6 32 -11 25 -11 30 -2 19 36 -8 31 -12
34 -41 31 -20 -1 -30 2 -26 8 4 6 10 8 14 6 4 -3 13 -1 21 5 12 7 11 9 -6 9
-12 0 -29 11 -38 25 -9 14 -22 25 -29 25 -20 1 -84 34 -86 45 0 6 -5 10 -10
10 -5 0 -13 3 -17 8 -12 11 -19 9 -43 -17z"/>
<path d="M3388 9025 c-16 -9 -28 -20 -28 -25 0 -6 -4 -10 -10 -10 -5 0 -28 -8
-50 -17 -39 -17 -54 -43 -26 -43 8 0 22 -3 30 -6 12 -5 15 -2 10 9 -4 12 2 18
23 22 15 3 41 10 57 15 18 6 34 6 41 0 13 -11 175 -9 175 2 0 4 -16 19 -36 35
-45 34 -142 43 -186 18z"/>
<path d="M2966 8573 c-15 -4 -16 -7 -5 -14 10 -6 8 -9 -10 -9 -38 0 -91 -22
-91 -38 0 -9 -7 -11 -19 -7 -11 3 -33 -3 -53 -15 -18 -11 -46 -20 -62 -20 -32
0 -190 -50 -182 -57 3 -3 38 -7 78 -9 40 -3 86 -7 101 -9 17 -3 26 -1 22 5 -4
6 7 10 24 10 24 0 29 -3 24 -17 -4 -11 -3 -14 5 -9 7 4 12 13 12 20 0 16 115
31 215 29 399 -11 576 -31 654 -72 11 -6 29 -11 41 -11 11 0 23 -7 27 -16 5
-13 7 -13 14 -2 7 10 9 10 9 -3 0 -12 10 -16 40 -16 45 0 49 10 25 57 -9 16
-31 36 -53 45 -20 9 -50 23 -67 32 -16 9 -40 21 -52 27 -13 6 -23 14 -23 18 0
3 -16 16 -36 27 l-36 22 -24 -28 c-13 -15 -24 -22 -24 -15 0 17 -20 15 -42 -5
-17 -15 -18 -15 -18 0 0 20 -11 22 -29 5 -11 -10 -14 -10 -18 0 -3 6 -9 12
-15 12 -6 0 -8 -6 -5 -14 6 -15 -19 -56 -34 -56 -15 0 -10 36 6 50 11 9 13 16
6 23 -7 7 -15 6 -24 -1 -8 -7 -17 -9 -20 -6 -3 4 -14 3 -24 -1 -35 -15 -53
-15 -73 2 -11 10 -20 23 -20 30 0 20 -15 15 -44 -14 -25 -25 -26 -28 -9 -35
14 -6 13 -7 -7 -5 -20 2 -25 7 -23 27 1 14 -1 19 -3 13 -8 -18 -34 -16 -34 2
0 8 -4 15 -10 15 -5 0 -10 -9 -10 -20 0 -11 -3 -20 -6 -20 -11 0 -34 29 -34
42 0 17 -20 38 -34 37 -6 -1 -20 -4 -30 -6z"/>
<path d="M2838 8233 c22 -9 12 -22 -20 -25 -28 -3 -21 -6 41 -22 41 -10 114
-39 162 -62 90 -46 104 -50 94 -35 -3 5 -1 12 5 16 5 3 10 -1 10 -10 0 -12 5
-15 17 -10 10 3 49 8 88 11 52 3 66 2 55 -6 -12 -9 -9 -10 15 -8 17 1 53 -1
81 -6 57 -8 132 8 141 31 3 7 19 13 36 13 l31 0 -21 21 c-17 17 -24 19 -42 10
-12 -7 -25 -10 -30 -7 -4 3 -23 1 -42 -4 -22 -7 -35 -6 -39 0 -4 6 -37 11 -73
11 -37 1 -65 4 -63 8 3 4 -11 5 -30 3 -26 -3 -39 1 -49 14 -7 11 -17 16 -21
11 -4 -4 -2 -7 4 -7 7 0 12 -4 12 -9 0 -17 -113 -3 -123 15 -8 14 -11 14 -28
-2 -17 -15 -19 -15 -19 -1 0 12 -7 15 -35 10 -22 -3 -35 -2 -35 5 0 6 12 13
28 15 15 2 10 4 -13 3 -27 -1 -39 3 -37 12 1 6 -5 12 -14 12 -8 0 -12 -4 -9
-10 7 -11 -8 -14 -18 -3 -4 3 -22 7 -39 9 -18 1 -27 0 -20 -3z"/>
<path d="M8956 3775 c-3 -9 -6 -23 -6 -32 0 -8 -10 -27 -22 -41 -15 -20 -19
-22 -13 -7 14 37 17 65 7 65 -12 0 -22 -24 -22 -56 0 -14 -6 -24 -15 -24 -9 0
-12 -6 -9 -15 4 -8 12 -15 20 -15 8 0 14 -5 14 -11 0 -7 -9 -9 -21 -6 -25 7
-35 -14 -20 -42 9 -17 8 -24 -9 -41 -24 -24 -25 -30 -6 -30 8 0 16 7 20 15 3
8 10 15 16 15 14 0 13 -27 -1 -32 -13 -4 -15 -52 -4 -87 5 -15 4 -22 -2 -18
-5 3 -17 -3 -27 -15 -13 -15 -17 -34 -14 -74 1 -30 -1 -56 -7 -58 -5 -3 -4 -5
3 -5 15 -1 16 -31 1 -31 -11 0 -39 -24 -39 -34 0 -4 8 -1 19 5 10 7 27 9 37 5
18 -7 18 -9 -3 -23 -13 -9 -23 -20 -23 -25 0 -6 7 -5 15 2 12 10 15 10 16 -1
1 -8 3 -27 5 -42 1 -16 -5 -43 -15 -61 -20 -34 -15 -58 17 -83 10 -8 11 -13 4
-13 -16 0 -15 -33 1 -49 10 -10 9 -15 -4 -24 -17 -12 -19 -66 -4 -100 4 -9 4
-28 1 -42 -5 -19 -2 -25 9 -25 9 0 18 7 21 15 8 20 26 19 45 -3 13 -15 25
-122 14 -122 -2 0 -11 14 -19 31 -11 22 -13 36 -6 44 7 9 6 16 -5 25 -21 17
-26 10 -29 -40 -3 -35 0 -43 20 -52 18 -8 24 -20 26 -52 2 -28 8 -41 18 -41 8
0 20 -11 27 -25 10 -21 13 46 13 378 0 376 -1 402 -17 402 -17 1 -17 1 0 11
15 9 17 27 17 140 0 126 -1 130 -20 124 -14 -4 -20 -2 -20 8 0 8 9 17 20 20
31 8 29 74 -2 80 l-23 4 23 2 c29 1 32 41 2 41 -12 0 -20 -7 -20 -17 0 -9 -3
-14 -6 -10 -12 12 8 47 27 47 24 0 24 15 0 41 -16 18 -19 18 -25 4z"/>
</g>
</svg>
