<?xml version="1.0" standalone="no"?>
<!DOCTYPE svg PUBLIC "-//W3C//DTD SVG 20010904//EN"
 "http://www.w3.org/TR/2001/REC-SVG-20010904/DTD/svg10.dtd">
<svg version="1.0" xmlns="http://www.w3.org/2000/svg"
 width="300.000000pt" height="533.000000pt" viewBox="0 0 300.000000 533.000000"
 preserveAspectRatio="xMidYMid meet">
<metadata>
Created by potrace 1.10, written by Peter Selinger 2001-2011
</metadata>
<g transform="translate(0.000000,533.000000) scale(0.100000,-0.100000)"
fill="#000000" stroke="none">
<path d="M632 5245 c0 -22 3 -49 8 -60 9 -20 9 -20 9 0 0 11 -4 38 -8 60 l-9
40 0 -40z"/>
<path d="M2891 5110 c-2 -81 -6 -116 -11 -100 l-8 25 -1 -27 c-1 -29 16 -38
25 -15 2 7 3 65 1 128 l-3 114 -3 -125z"/>
<path d="M422 5119 c-41 -44 -71 -87 -83 -120 -27 -69 -37 -235 -19 -310 18
-78 57 -167 86 -196 13 -13 22 -29 19 -34 -4 -5 -1 -9 4 -9 18 0 13 19 -17 63
-94 139 -118 369 -53 510 21 46 128 154 147 149 7 -1 15 2 18 6 3 5 -4 9 -17
9 -14 0 -44 -24 -85 -68z"/>
<path d="M540 5181 c0 -5 14 -12 30 -16 17 -4 30 -13 30 -21 0 -8 7 -14 15
-14 8 0 15 -5 15 -12 0 -6 3 -8 7 -5 9 9 -26 46 -59 63 -32 16 -38 17 -38 5z"/>
<path d="M650 5107 c0 -7 9 -30 20 -51 10 -22 17 -43 14 -47 -3 -5 0 -9 6 -9
12 0 5 35 -16 88 -13 33 -24 42 -24 19z"/>
<path d="M461 5084 c-19 -8 -31 -17 -28 -21 4 -3 12 -1 19 5 25 20 110 8 156
-22 40 -28 60 -65 26 -52 -9 3 -12 2 -9 -5 4 -6 13 -8 21 -5 7 3 16 1 19 -4 4
-6 1 -10 -6 -10 -9 0 -9 -3 1 -14 13 -16 44 -10 34 6 -4 6 -10 5 -16 -3 -7
-10 -8 -8 -4 6 8 28 -43 88 -97 114 -51 25 -70 25 -116 5z"/>
<path d="M391 5011 c-27 -67 -42 -201 -22 -201 4 0 6 12 4 28 -4 25 -3 26 10
9 13 -16 15 -16 21 -1 9 23 7 31 -3 15 -16 -24 -36 31 -22 57 6 11 11 33 11
49 0 35 10 50 35 55 19 4 19 4 -2 10 -17 4 -24 0 -32 -21z"/>
<path d="M575 4996 c11 -9 35 -30 53 -47 17 -17 32 -27 32 -22 0 12 -37 46
-75 68 -25 14 -26 14 -10 1z"/>
<path d="M710 4958 c23 -38 27 -61 6 -32 -8 10 -18 15 -23 11 -4 -5 -1 -14 8
-20 9 -7 19 -22 23 -34 6 -18 4 -22 -8 -17 -22 9 -20 1 10 -31 14 -15 22 -30
18 -34 -4 -3 -9 0 -11 7 -3 6 -10 12 -16 12 -7 -1 -2 -9 11 -19 12 -11 22 -25
23 -33 0 -7 4 -4 8 7 5 11 4 25 -1 32 -5 7 -7 17 -3 23 4 6 1 9 -6 8 -6 -2
-14 3 -17 11 -2 8 -1 11 4 8 5 -3 9 5 9 18 0 13 -4 21 -9 17 -5 -3 -6 2 -3 12
7 17 -21 86 -35 86 -4 0 1 -15 12 -32z"/>
<path d="M2873 4905 c0 -38 2 -53 4 -32 2 20 2 52 0 70 -2 17 -4 1 -4 -38z"/>
<path d="M2899 4893 c0 -27 0 -68 0 -93 1 -33 -1 -41 -8 -30 -6 8 -8 25 -4 37
3 13 1 23 -6 23 -7 0 -9 -29 -4 -92 6 -96 13 -130 13 -64 0 22 4 35 10 31 6
-4 10 37 10 114 0 67 -2 121 -5 121 -3 0 -5 -21 -6 -47z"/>
<path d="M655 4903 c-15 -12 -16 -14 -3 -10 9 3 19 1 21 -6 3 -9 8 -9 16 -1
21 20 -10 35 -34 17z"/>
<path d="M600 4874 c0 -6 11 -21 25 -34 13 -12 22 -26 20 -31 -3 -4 -1 -10 4
-14 6 -3 8 4 6 17 -5 23 -55 80 -55 62z"/>
<path d="M433 4788 c-10 -21 -12 -21 -18 -5 -7 16 -10 14 -26 -13 -11 -17 -19
-36 -19 -43 0 -6 8 3 17 21 12 25 19 30 29 21 9 -8 15 -5 24 11 6 12 10 24 7
26 -2 2 -9 -6 -14 -18z"/>
<path d="M559 4774 c-10 -13 -10 -17 0 -24 8 -4 11 -17 7 -31 -3 -14 0 -11 9
9 16 33 35 43 35 17 0 -8 5 -15 11 -15 6 0 8 -8 5 -18 -4 -12 -1 -19 8 -19 18
0 11 22 -21 65 -27 36 -35 39 -54 16z"/>
<path d="M758 4749 c-10 -10 -13 -19 -7 -19 5 0 8 -4 5 -9 -4 -5 -1 -22 5 -38
6 -15 12 -64 15 -107 4 -76 8 -95 19 -84 3 3 1 18 -5 34 -10 28 -9 28 6 9 16
-19 16 -19 8 5 -4 14 -8 41 -9 60 0 19 -4 41 -8 48 -5 7 -4 12 2 12 16 0 13
26 -4 40 -11 9 -14 22 -10 42 8 32 6 33 -17 7z"/>
<path d="M522 4702 c-7 -13 -11 -28 -8 -35 2 -7 5 -4 5 6 1 10 6 15 11 12 7
-4 6 -13 -1 -26 -6 -12 -8 -23 -6 -26 3 -3 13 10 22 27 9 18 12 29 7 26 -6 -3
-12 4 -14 16 l-3 23 -13 -23z"/>
<path d="M430 4653 c-22 -56 -23 -61 -4 -28 9 17 23 38 32 48 13 14 13 17 1
17 -8 0 -21 -17 -29 -37z"/>
<path d="M2958 4656 c-21 -7 -40 -11 -44 -7 -4 3 -4 -2 -1 -12 4 -10 7 -21 7
-23 0 -2 5 -4 10 -4 6 0 9 5 8 11 -2 7 12 16 30 21 17 5 32 13 32 18 0 6 -1
10 -2 10 -2 -1 -20 -7 -40 -14z"/>
<path d="M571 4607 c-7 -18 -15 -25 -26 -21 -8 3 -15 1 -15 -6 0 -6 5 -8 12
-4 7 5 9 1 6 -13 -4 -16 -2 -19 14 -15 13 3 16 8 9 15 -6 6 -4 18 6 34 9 13
13 26 10 30 -4 3 -11 -6 -16 -20z"/>
<path d="M2880 4440 c0 -106 3 -190 6 -187 8 8 7 367 -1 375 -3 3 -5 -82 -5
-188z"/>
<path d="M818 4522 c-3 -53 -12 -100 -22 -120 -21 -41 -82 -73 -114 -61 -13 5
-28 7 -32 4 -14 -9 -40 6 -33 19 4 7 1 6 -9 -2 -12 -10 -17 -10 -27 1 -6 8 -9
16 -7 18 2 2 -7 5 -20 5 -37 3 -14 -19 48 -46 50 -21 66 -22 149 -7 19 3 42
24 58 55 12 22 29 222 19 222 -3 0 -7 -40 -10 -88z"/>
<path d="M430 4570 c6 -11 24 -34 40 -50 17 -17 30 -35 30 -40 0 -6 3 -9 8 -7
4 1 31 -13 59 -31 28 -18 64 -35 79 -38 16 -3 32 -11 36 -17 5 -8 8 -7 8 3 0
10 -16 20 -46 28 -46 12 -132 64 -147 88 -4 7 -14 20 -22 28 -8 8 -13 20 -12
28 2 7 2 10 0 6 -8 -14 -23 -9 -23 7 0 8 -5 15 -10 15 -7 0 -7 -6 0 -20z"/>
<path d="M560 4518 c-10 -21 -10 -22 3 -5 10 12 17 14 22 7 7 -11 25 -4 25 11
0 19 -40 8 -50 -13z"/>
<path d="M473 4406 c12 -25 33 -30 41 -9 3 7 2 12 -2 11 -4 -1 -17 3 -28 10
-21 11 -21 10 -11 -12z"/>
<path d="M787 4213 c-36 -18 -69 -38 -73 -45 -5 -7 4 -5 19 5 15 10 33 15 39
11 7 -5 8 -3 3 6 -5 8 -3 11 4 9 7 -3 13 -7 14 -10 1 -3 -28 -34 -66 -68 -37
-35 -64 -56 -61 -46 5 13 3 16 -7 13 -19 -6 -24 -35 -7 -41 7 -2 6 -3 -4 -2
-16 3 -58 -44 -58 -64 0 -5 -13 -18 -29 -27 -17 -10 -28 -21 -26 -24 2 -4 -5
-17 -16 -28 -11 -12 -17 -22 -13 -22 4 0 -10 -17 -30 -37 -36 -36 -94 -112
-66 -85 20 17 35 15 20 -3 -7 -8 -17 -15 -23 -15 -6 0 -19 -8 -29 -17 -18 -16
-18 -16 -12 3 16 44 103 144 126 144 6 0 8 3 5 7 -4 3 3 17 15 30 12 13 17 23
11 23 -5 0 -34 -25 -62 -55 -47 -50 -71 -69 -57 -47 3 5 -1 9 -8 9 -7 0 -13
-5 -12 -11 0 -6 -9 -31 -21 -56 -11 -25 -26 -70 -33 -100 -21 -95 -33 -130
-43 -123 -6 3 -7 1 -4 -5 4 -5 -2 -32 -13 -59 -12 -28 -14 -40 -6 -30 11 14
15 15 19 5 2 -7 2 -3 0 10 -2 12 1 22 7 22 5 0 9 3 8 8 0 4 1 14 4 22 4 8 9
23 12 33 3 9 10 17 16 17 5 0 10 -8 10 -17 0 -15 -2 -16 -10 -3 -7 11 -10 2
-11 -32 -2 -50 -2 -53 -11 -78 -3 -8 -18 -50 -33 -93 -25 -71 -110 -216 -135
-232 -37 -23 -101 -189 -84 -217 4 -7 3 -8 -4 -4 -11 7 -18 -32 -13 -71 1 -6
-3 -14 -9 -18 -13 -8 -13 -25 0 -25 9 0 26 67 21 85 -1 5 1 6 6 2 11 -12 30
-114 29 -157 -1 -23 -6 -35 -15 -35 -14 0 -30 -28 -30 -55 0 -8 6 -1 12 15 11
28 37 46 37 26 0 -11 -70 -105 -82 -109 -8 -4 -12 -32 -3 -32 17 0 115 141
115 165 0 6 9 17 20 25 24 17 26 27 5 27 -8 0 -15 -7 -15 -14 0 -8 -5 -13 -12
-11 -11 4 -48 162 -46 201 1 12 6 28 11 35 6 8 6 12 -1 12 -12 0 25 75 51 102
10 10 15 24 11 30 -4 6 -3 8 3 5 15 -9 67 49 58 64 -5 7 -4 10 2 6 10 -6 74
120 88 173 11 40 29 80 37 80 4 0 5 -7 2 -15 -4 -8 -3 -15 0 -15 5 0 74 126
85 155 2 6 -8 -5 -23 -24 -14 -19 -26 -40 -26 -47 0 -6 -7 -17 -15 -24 -13
-11 -14 -10 -9 4 3 9 2 16 -3 16 -5 0 -10 7 -10 16 0 14 2 14 15 -2 14 -18 14
-18 9 1 -3 11 -9 50 -13 87 -5 57 -4 69 10 74 9 3 16 13 16 21 0 8 22 38 48
66 27 29 62 75 80 102 17 28 40 57 51 65 23 16 29 36 9 24 -8 -4 -10 -3 -5 2
5 5 12 9 16 9 4 0 23 16 42 34 19 19 28 32 22 27 -7 -4 -13 -3 -13 3 0 12 55
43 62 35 3 -2 11 3 19 13 9 11 10 14 2 9 -17 -10 -16 2 1 19 10 11 16 11 26 2
10 -9 11 -9 6 0 -3 6 2 14 12 17 10 4 35 21 54 39 20 17 40 33 45 34 4 1 17 5
27 9 13 5 17 4 12 -4 -5 -8 -2 -10 8 -6 29 11 4 26 -33 20 -33 -6 -35 -5 -17
8 10 9 22 13 27 11 4 -3 11 -1 14 5 4 6 15 8 25 5 9 -3 28 -1 42 4 20 8 33 4
71 -21 48 -31 77 -32 77 -1 0 14 -2 15 -9 5 -7 -11 -9 -11 -14 0 -7 21 -83 41
-159 43 -57 1 -75 -3 -131 -32z m56 -4 c-27 -14 -40 -16 -48 -7 -7 8 -6 9 3 4
6 -4 12 -3 12 3 0 11 51 31 63 24 4 -3 -9 -13 -30 -24z"/>
<path d="M925 4199 c-20 -9 -20 -9 0 -8 50 3 64 -1 59 -16 -5 -11 -2 -13 11
-9 14 6 14 9 3 19 -19 19 -50 25 -73 14z"/>
<path d="M1150 4194 c0 -11 -6 -15 -18 -12 -11 3 -19 0 -19 -7 0 -19 62 -12
83 9 16 17 16 18 -2 15 -10 -2 -25 0 -31 4 -9 5 -13 2 -13 -9z"/>
<path d="M1206 4169 c3 -5 14 -9 25 -9 11 0 17 -4 14 -10 -8 -13 38 -13 51 -1
5 6 19 4 34 -5 l25 -15 -33 4 c-18 2 -35 0 -38 -5 -5 -8 10 -10 88 -12 20 0
34 -4 32 -7 -2 -4 10 -9 27 -13 17 -3 28 -10 25 -15 -4 -5 3 -12 14 -16 11 -4
18 -10 15 -14 -2 -5 7 -6 20 -3 15 2 25 0 25 -7 0 -6 4 -11 8 -11 5 0 9 7 9
14 0 8 -3 14 -6 14 -13 -2 -47 17 -81 44 -19 15 -42 28 -50 28 -9 0 -22 6 -29
13 -11 10 -13 9 -7 -3 4 -8 -2 -4 -14 10 -19 22 -31 25 -91 27 -39 0 -67 -3
-63 -8z"/>
<path d="M895 4148 c-16 -6 -32 -14 -35 -17 -7 -8 -38 -27 -79 -48 -19 -9 -29
-19 -22 -21 15 -5 81 29 81 41 0 4 4 6 9 2 5 -3 12 -1 16 5 4 6 11 7 17 4 7
-4 8 -2 4 4 -4 8 3 16 18 22 14 5 26 12 26 15 0 3 -1 5 -2 4 -2 0 -16 -5 -33
-11z"/>
<path d="M1138 4122 c-35 -21 -35 -29 -2 -29 16 0 21 2 14 7 -9 6 -9 9 -1 15
7 4 19 1 28 -7 13 -10 17 -10 20 0 3 6 14 12 24 12 14 0 18 -4 13 -12 -6 -10
-5 -10 8 -1 8 7 18 11 22 8 3 -3 2 0 -2 5 -16 19 -95 21 -124 2z"/>
<path d="M1019 4126 c-1 -3 -2 -16 -3 -27 0 -12 -10 -25 -21 -30 -11 -4 -14
-8 -7 -8 6 -1 12 -6 12 -11 0 -7 -6 -7 -19 0 -30 15 -39 11 -11 -5 29 -17 20
-18 -32 -6 -22 5 -36 5 -32 0 3 -5 15 -9 28 -9 12 0 31 -6 42 -14 17 -13 17
-15 2 -21 -9 -4 -22 -8 -30 -10 -47 -11 -59 -18 -46 -26 10 -7 10 -9 0 -9 -7
0 -15 7 -18 15 -8 19 -37 14 -64 -10 -21 -19 -28 -41 -8 -29 7 5 9 2 5 -8 -7
-21 15 -18 37 5 10 9 30 17 46 17 16 0 32 5 35 11 4 6 19 10 33 9 52 -4 56 -2
41 17 -11 13 -11 17 -1 20 6 3 12 9 12 14 0 6 -4 7 -10 4 -21 -13 -9 27 17 52
15 16 21 29 14 31 -6 2 -9 8 -6 12 3 5 1 11 -5 15 -5 3 -11 4 -11 1z"/>
<path d="M900 4099 c-19 -9 -51 -24 -70 -32 -32 -14 -33 -16 -10 -16 14 -1 46
10 72 24 26 14 62 25 79 25 18 0 29 3 25 7 -13 13 -61 9 -96 -8z"/>
<path d="M1370 4076 c0 -11 43 -51 63 -59 9 -3 21 2 29 11 9 11 9 13 1 9 -13
-8 -73 18 -85 37 -4 6 -8 7 -8 2z"/>
<path d="M1230 4051 c0 -10 77 -13 83 -3 3 4 -15 8 -39 9 -24 1 -44 -1 -44 -6z"/>
<path d="M1156 4024 c-8 -7 -17 -10 -21 -6 -5 4 -5 2 -1 -5 7 -13 36 -6 36 9
0 5 9 7 19 3 11 -3 22 -2 25 3 9 15 -44 11 -58 -4z"/>
<path d="M683 4007 c-16 -13 -22 -26 -18 -41 2 -11 2 -15 -1 -8 -10 21 -32 13
-55 -20 l-23 -33 25 23 c31 27 39 28 32 2 -3 -11 -12 -20 -19 -20 -16 0 -19
-26 -4 -35 6 -3 13 2 17 12 3 10 22 35 42 56 22 23 29 35 18 31 -17 -6 -18 -5
-6 15 8 12 15 17 17 11 5 -15 16 -12 29 9 11 17 10 20 -9 18 -11 -1 -32 -10
-45 -20z"/>
<path d="M1076 4013 c-3 -4 -6 -16 -6 -28 0 -11 -6 -27 -12 -35 -7 -7 -1 -5
14 6 15 10 28 22 28 27 0 4 4 7 9 7 5 0 7 -10 4 -22 -3 -16 -2 -19 4 -10 12
15 46 5 36 -12 -3 -6 -3 -8 2 -4 4 4 17 1 27 -7 11 -7 27 -11 36 -8 9 4 13 2
9 -4 -5 -7 1 -9 15 -5 13 3 19 1 15 -5 -4 -6 1 -17 11 -24 15 -13 16 -12 3 4
-13 17 -7 23 22 18 4 0 7 4 7 10 0 5 11 -2 25 -17 15 -17 25 -21 25 -13 0 15
-39 45 -52 41 -5 -1 -8 5 -8 13 0 8 -7 15 -15 15 -9 0 -12 -6 -9 -17 4 -13 3
-14 -4 -5 -6 9 -18 11 -35 6 -17 -4 -27 -2 -27 5 0 6 6 8 14 5 8 -3 17 0 22 7
4 8 3 10 -4 5 -7 -4 -12 -2 -12 4 0 8 -9 10 -24 6 -16 -4 -26 -1 -30 9 -3 8
-12 12 -21 9 -8 -4 -26 1 -39 9 -13 9 -26 13 -30 10z"/>
<path d="M1460 4003 c0 -7 13 -22 30 -34 16 -12 26 -27 23 -32 -3 -6 -1 -7 5
-3 9 5 8 15 -3 35 -8 16 -11 32 -7 36 4 5 1 5 -6 1 -7 -5 -11 -15 -8 -25 4 -9
-3 -5 -14 9 -11 14 -20 20 -20 13z"/>
<path d="M1576 3971 c-3 -5 11 -23 31 -40 33 -28 35 -37 8 -31 -5 1 -4 -5 4
-12 11 -11 14 -11 18 0 4 9 8 10 18 2 9 -8 15 -8 20 0 3 5 1 10 -4 10 -6 0
-21 9 -33 20 -13 10 -32 26 -43 35 -20 16 -20 16 0 11 11 -3 27 -1 35 4 11 7
7 10 -17 10 -17 0 -34 -4 -37 -9z"/>
<path d="M1630 3940 c0 -6 6 -10 13 -9 23 2 57 -13 50 -24 -3 -6 -1 -7 5 -3 7
4 12 2 12 -3 0 -6 6 -11 13 -11 8 0 22 -9 32 -20 18 -20 18 -20 -1 -18 -10 2
-19 -1 -19 -7 0 -13 26 -13 44 0 11 7 13 7 8 -1 -4 -7 0 -14 8 -18 8 -3 15
-10 15 -16 0 -6 -4 -8 -10 -5 -5 3 -10 -1 -10 -9 0 -18 34 -39 45 -28 4 4 5
-3 2 -15 -3 -13 -1 -26 4 -29 5 -3 6 -10 3 -16 -4 -6 -2 -8 4 -4 6 3 14 2 17
-4 4 -6 3 -10 -2 -9 -19 3 -33 -2 -33 -12 0 -5 5 -7 10 -4 9 6 14 -8 11 -27 0
-5 4 -8 10 -8 5 0 8 -4 5 -9 -3 -5 1 -14 9 -21 12 -10 15 -10 15 3 0 9 -5 19
-11 22 -6 4 -10 19 -9 33 7 95 2 111 -50 166 -28 30 -77 68 -109 85 -62 33
-81 38 -81 21z"/>
<path d="M2891 3858 c-1 -51 0 -90 3 -88 6 7 10 169 4 176 -3 2 -6 -37 -7 -88z"/>
<path d="M1780 3939 c0 -8 84 -95 102 -106 8 -4 23 -21 35 -36 12 -15 24 -24
27 -19 3 5 -8 24 -24 43 -16 19 -29 30 -30 24 0 -7 -3 -7 -8 0 -14 19 -102 99
-102 94z"/>
<path d="M632 3858 c-26 -42 -27 -48 -7 -48 14 0 20 13 16 34 -1 5 3 12 10 16
6 4 9 14 7 21 -2 7 -13 -2 -26 -23z"/>
<path d="M806 3855 c4 -8 1 -15 -5 -15 -6 0 -10 -5 -8 -11 1 -7 -15 -24 -37
-39 -21 -14 -38 -30 -37 -34 2 -4 -6 -14 -16 -21 -10 -7 -15 -17 -10 -21 4 -4
7 -3 7 3 0 6 10 9 23 7 12 -2 16 -2 9 2 -17 8 -5 24 13 17 15 -5 48 28 72 74
12 24 8 53 -8 53 -4 0 -6 -7 -3 -15z"/>
<path d="M2706 3773 c3 -54 7 -100 10 -102 2 -2 4 41 4 97 0 59 -4 102 -10
102 -6 0 -7 -38 -4 -97z"/>
<path d="M527 3812 c-10 -10 -17 -28 -17 -40 0 -12 -5 -22 -11 -22 -7 0 -9
-11 -6 -27 6 -35 -9 -66 -29 -59 -9 3 -12 1 -9 -4 19 -31 65 29 51 66 -5 13
-3 14 6 6 10 -8 13 -3 13 24 0 19 4 34 9 33 5 0 13 5 17 13 20 31 2 39 -24 10z"/>
<path d="M707 3799 c-9 -5 -24 -24 -33 -42 -9 -18 -12 -27 -8 -22 5 6 22 25
38 43 31 34 32 38 3 21z"/>
<path d="M1734 3763 c15 -14 30 -22 34 -18 4 4 1 10 -5 12 -7 3 -13 10 -13 17
0 6 -9 12 -21 13 -19 2 -19 0 5 -24z"/>
<path d="M1385 3715 c2 -22 6 -51 10 -65 3 -14 8 -38 10 -54 7 -45 15 -66 27
-63 6 1 13 -4 16 -12 3 -9 0 -11 -8 -6 -9 5 -11 4 -6 -4 4 -6 12 -9 17 -6 5 4
9 2 9 -2 0 -21 26 -44 43 -38 13 6 14 11 6 26 -5 10 -15 19 -22 18 -9 0 -9 -2
1 -6 6 -2 12 -12 12 -20 0 -13 -3 -13 -16 -2 -8 7 -13 21 -11 31 3 10 1 16 -4
12 -5 -3 -7 12 -5 33 2 21 2 32 -1 26 -7 -18 -23 -16 -23 3 0 8 -4 12 -10 9
-6 -3 -7 1 -4 10 4 8 1 22 -6 30 -7 9 -10 18 -7 22 4 3 2 15 -4 25 -8 15 -8
23 2 32 9 8 10 8 4 -4 -6 -12 -5 -12 5 -3 18 17 5 49 -14 34 -11 -9 -15 -9
-20 1 -3 7 -4 -5 -1 -27z"/>
<path d="M1645 3719 c-5 -7 -4 -10 3 -5 11 7 35 -26 27 -38 -3 -3 -2 -4 2 -1
3 3 12 0 20 -6 7 -6 13 -8 13 -3 0 5 5 2 11 -6 9 -13 10 -13 6 0 -2 8 -10 14
-17 12 -8 -2 -10 3 -6 15 4 9 4 14 0 10 -4 -4 -18 2 -30 14 -16 15 -24 17 -29
8z"/>
<path d="M430 3694 c-6 -15 -14 -22 -22 -18 -7 5 -9 2 -5 -9 3 -8 0 -20 -7
-26 -7 -6 -12 -24 -11 -41 1 -16 -2 -30 -7 -30 -4 0 -8 -4 -8 -10 0 -5 7 -7
15 -4 8 4 15 11 15 18 0 6 9 29 20 50 10 22 17 43 14 47 -3 5 -1 9 3 9 5 0 9
9 10 20 2 28 -6 25 -17 -6z"/>
<path d="M1953 3665 c0 -8 4 -12 8 -10 3 3 12 -2 19 -10 7 -8 26 -22 44 -30
27 -14 26 -11 -14 24 -50 45 -57 48 -57 26z"/>
<path d="M1454 3654 c3 -9 6 -24 6 -35 0 -10 5 -19 11 -19 6 0 8 9 4 21 -6 16
-4 20 6 14 8 -5 5 1 -5 13 -23 26 -30 28 -22 6z"/>
<path d="M676 3624 c-3 -9 -1 -24 4 -34 6 -10 10 -29 9 -42 -1 -23 -1 -23 -10
2 -7 20 -8 18 -3 -12 5 -38 -4 -93 -14 -84 -10 10 -32 -32 -26 -48 5 -12 2
-15 -10 -10 -20 8 -21 -3 -1 -22 17 -17 21 -59 5 -49 -5 3 -7 0 -5 -8 3 -7 -1
-26 -8 -41 -14 -26 -15 -26 -20 -5 -4 13 -10 18 -18 13 -7 -4 -10 -3 -7 2 3 5
-1 23 -8 39 -12 27 -13 28 -14 7 0 -13 10 -44 21 -70 17 -37 19 -50 10 -65 -9
-14 -9 -22 -1 -32 7 -8 10 -20 7 -27 -2 -7 4 -23 13 -35 13 -17 18 -41 18 -88
0 -67 11 -107 13 -44 0 29 1 31 9 13 5 -12 14 -25 21 -30 8 -5 10 -3 3 7 -4 8
-9 19 -10 24 -1 6 -9 39 -19 75 -22 86 -25 178 -5 190 8 5 11 10 6 10 -5 0 -4
6 1 13 17 21 25 95 11 99 -9 3 -8 10 5 22 12 13 17 14 18 4 1 -16 20 41 21 62
0 8 8 24 17 35 15 18 15 19 -1 6 -22 -17 -23 -9 -2 31 10 20 14 42 10 63 -7
36 -31 53 -40 29z"/>
<path d="M2056 3616 c6 -15 52 -31 62 -21 3 3 0 5 -7 5 -7 0 -9 5 -5 11 4 7 1
10 -7 7 -8 -3 -22 -1 -31 4 -13 6 -16 5 -12 -6z"/>
<path d="M2709 3618 c-3 -50 1 -291 5 -295 2 -3 5 65 5 151 0 86 -2 156 -4
156 -3 0 -5 -6 -6 -12z"/>
<path d="M1506 3590 c10 -19 22 -44 25 -55 5 -15 7 -11 8 15 1 28 4 32 12 20
7 -10 9 -11 7 -2 -2 8 -6 12 -10 10 -3 -2 -19 8 -33 22 l-28 25 19 -35z"/>
<path d="M544 3603 c3 -6 2 -13 -4 -15 -6 -2 -12 -32 -15 -68 -5 -50 -3 -62 6
-53 17 17 29 103 15 103 -6 0 -4 5 4 10 13 8 13 11 1 22 -8 8 -11 8 -7 1z"/>
<path d="M1926 3601 c-7 -10 22 -36 31 -28 9 10 43 -12 43 -27 0 -8 7 -16 14
-19 10 -4 13 -1 10 7 -3 8 -1 17 5 21 6 3 11 11 11 18 0 6 -7 2 -16 -9 -15
-18 -15 -18 -10 4 2 13 2 21 -1 18 -4 -3 -11 -2 -17 3 -18 14 -64 22 -70 12z"/>
<path d="M2070 3551 c0 -5 7 -14 15 -21 8 -7 13 -16 10 -20 -3 -4 5 -10 16
-13 20 -5 19 -3 -6 22 -19 21 -23 30 -13 34 9 4 7 6 -4 6 -10 1 -18 -3 -18 -8z"/>
<path d="M1655 3538 c1 -7 7 -12 13 -11 6 2 14 -13 18 -32 3 -19 10 -35 14
-35 4 0 2 18 -4 40 -6 25 -15 39 -22 36 -7 -3 -15 -1 -18 5 -2 5 -3 4 -1 -3z"/>
<path d="M1925 3533 c-19 -13 -19 -14 7 -9 15 2 30 0 33 -5 4 -5 2 -9 -2 -9
-5 0 -9 -10 -10 -22 0 -13 1 -17 4 -10 3 6 8 10 11 8 4 -2 12 1 18 8 7 8 3 17
-16 32 -23 20 -28 20 -45 7z"/>
<path d="M764 3502 c-12 -2 -30 -12 -40 -23 -18 -20 -6 -27 14 -7 9 9 15 9 24
0 7 -7 21 -12 33 -12 12 0 48 -16 81 -35 32 -19 48 -25 34 -14 l-25 22 28 -5
c24 -5 27 -3 21 16 -8 27 -24 46 -36 46 -6 0 -4 -7 3 -17 13 -15 12 -15 -7 -5
-12 6 -25 8 -29 4 -5 -4 -5 -2 -2 4 15 27 -24 37 -99 26z"/>
<path d="M2017 3493 c4 -11 3 -14 -5 -9 -7 4 -12 1 -12 -9 0 -9 5 -13 10 -10
13 8 42 -14 34 -26 -3 -5 0 -9 5 -9 20 0 26 -3 38 -19 11 -15 12 -14 13 1 0 9
-16 29 -35 44 -19 14 -35 33 -35 40 0 8 -4 14 -10 14 -5 0 -6 -7 -3 -17z"/>
<path d="M981 3472 c-6 -11 -5 -23 3 -34 11 -15 13 -15 24 3 7 10 12 24 12 31
-1 7 -8 2 -16 -12 l-15 -25 4 28 c5 31 2 34 -12 9z"/>
<path d="M1275 3463 c-4 -11 -15 -23 -26 -26 -10 -3 -19 -11 -19 -19 0 -10 3
-9 10 2 8 12 12 13 19 2 4 -8 11 -13 15 -13 20 3 26 0 21 -9 -3 -6 9 -1 28 10
36 22 65 26 112 18 17 -3 24 -3 18 -1 -16 6 -16 16 -1 31 8 8 9 12 1 12 -6 0
-20 3 -30 6 -15 5 -15 4 -3 -5 13 -9 13 -11 -2 -11 -10 0 -18 6 -18 13 0 9 -3
8 -9 -2 -5 -8 -16 -11 -30 -6 -14 4 -23 1 -27 -9 -9 -23 -29 -20 -42 7 l-11
22 -6 -22z"/>
<path d="M1857 3465 c5 -11 9 -32 8 -47 -1 -26 0 -26 17 -11 21 19 23 24 7 21
-6 -2 -13 5 -14 16 -2 10 -9 24 -16 30 -9 8 -9 6 -2 -9z"/>
<path d="M1531 3443 c-6 -10 -11 -13 -11 -8 0 6 -17 11 -38 12 -20 1 -30 -1
-22 -4 24 -10 65 -52 57 -59 -4 -4 -2 -13 4 -21 9 -9 8 -13 0 -13 -6 0 -11 -4
-11 -10 0 -5 6 -7 14 -4 11 4 13 0 9 -15 -5 -18 -8 -19 -22 -9 -14 12 -14 11
-2 -4 7 -10 17 -15 22 -12 5 3 14 2 20 -2 8 -4 7 -9 -2 -15 -7 -4 -10 -11 -6
-16 15 -14 27 21 13 37 -8 8 -13 29 -11 45 1 17 -2 38 -7 48 -5 10 -4 25 2 38
14 26 6 37 -9 12z"/>
<path d="M2092 3444 c9 -9 33 -18 52 -20 20 -2 44 -9 54 -16 23 -17 28 -81 7
-101 -8 -9 -18 -30 -21 -46 l-7 -31 -18 21 c-11 12 -19 29 -19 39 0 9 -6 22
-12 29 -7 8 -8 11 -3 8 7 -3 9 7 7 29 -3 20 -10 34 -18 34 -15 0 -15 -21 1
-32 7 -5 6 -8 0 -8 -12 0 -14 -39 -2 -57 4 -6 8 -22 9 -36 2 -17 7 -23 16 -19
8 3 19 -2 24 -11 5 -10 14 -17 21 -17 19 0 68 -50 61 -62 -4 -7 -2 -8 4 -4 13
8 35 -36 34 -66 0 -10 3 -18 7 -18 5 0 7 -12 5 -27 l-4 -28 11 29 c9 22 9 30
-1 36 -10 6 -10 8 0 12 9 3 8 9 -4 21 -13 13 -14 18 -4 21 7 1 27 7 44 13 25
8 33 7 41 -6 10 -14 11 -13 10 4 -2 13 4 20 15 19 10 -1 16 2 13 6 -3 4 9 7
25 6 25 -1 31 -6 36 -33 3 -17 1 -45 -4 -60 -6 -15 -11 -22 -11 -15 -1 6 -8
12 -16 12 -8 0 -23 10 -35 22 -11 12 -23 18 -27 15 -3 -4 -1 -7 5 -7 7 0 12
-6 12 -14 0 -8 14 -19 31 -25 26 -9 31 -15 27 -36 -3 -14 1 -33 8 -42 12 -16
13 -13 8 25 -5 30 -3 42 6 42 7 0 10 -6 7 -13 -3 -8 1 -14 9 -14 12 0 12 4 -1
24 -17 25 -8 31 15 11 12 -11 12 -10 2 3 -7 9 -10 25 -6 35 5 16 4 16 -5 4 -8
-12 -11 -8 -11 20 0 53 -9 60 -72 59 -31 -1 -62 2 -69 5 -8 4 -5 1 5 -8 21
-17 16 -21 -36 -30 -21 -3 -36 5 -72 39 -25 24 -46 49 -46 57 0 7 9 28 20 46
24 39 26 89 4 121 -23 32 -117 71 -98 40 5 -8 1 -8 -14 0 -30 16 -39 14 -20
-5z"/>
<path d="M256 3389 c-11 -22 -24 -38 -30 -36 -6 2 -19 -9 -28 -25 -10 -15 -22
-28 -28 -28 -5 0 -10 -7 -10 -16 0 -9 -5 -12 -12 -8 -6 4 -8 3 -5 -3 4 -6 0
-17 -9 -24 -9 -7 -33 -39 -54 -71 -20 -32 -39 -55 -42 -52 -3 2 -4 -14 -2 -37
2 -23 7 -45 10 -48 4 -3 4 8 1 25 -6 29 -1 41 35 89 4 6 23 28 42 51 20 23 32
45 28 49 -4 4 4 4 18 0 14 -4 22 -4 18 0 -4 4 6 23 22 42 33 37 73 110 68 123
-2 5 -12 -9 -22 -31z"/>
<path d="M1930 3399 c0 -7 8 -18 18 -26 15 -12 14 -13 -13 -8 -30 5 -30 5 3
-8 18 -7 31 -15 29 -17 -3 -3 2 -12 11 -20 14 -13 15 -12 8 5 -7 18 -13 38
-15 55 -1 3 -10 11 -21 18 -14 9 -20 9 -20 1z"/>
<path d="M1697 3386 c-3 -8 3 -25 13 -38 l19 -23 -9 34 c-11 41 -16 46 -23 27z"/>
<path d="M2060 3384 c0 -14 -3 -14 -15 -4 -8 7 -15 8 -15 4 0 -5 9 -15 20 -22
12 -7 18 -18 14 -24 -4 -6 -3 -8 3 -5 5 3 8 20 5 37 -5 32 -12 41 -12 14z"/>
<path d="M994 3347 c13 -17 26 -43 28 -57 l4 -25 9 29 c5 19 4 31 -5 36 -6 4
-12 11 -13 16 -1 5 -5 8 -9 7 -5 -2 -8 1 -8 6 0 5 -7 12 -15 15 -11 4 -7 -5 9
-27z"/>
<path d="M720 3339 c-18 -33 -20 -60 -5 -66 8 -3 15 -11 15 -18 0 -14 37 -31
47 -22 2 3 -5 8 -16 12 -27 8 -27 30 0 49 20 14 23 13 41 -10 26 -32 61 -31
87 4 19 26 21 26 37 10 17 -16 16 -18 -7 -27 -21 -8 -21 -10 -4 -10 11 0 26 3
34 8 12 8 12 12 2 25 -21 25 -79 38 -152 34 -49 -3 -69 0 -69 8 0 7 6 15 13
17 9 4 9 6 0 6 -7 1 -17 -8 -23 -20z"/>
<path d="M1814 3347 c2 -16 36 -64 36 -52 0 6 5 3 10 -5 6 -9 10 -10 10 -3 0
6 -6 18 -13 25 -7 7 -16 21 -20 31 -7 19 -26 23 -23 4z"/>
<path d="M434 3336 c5 -15 4 -16 -7 -8 -10 9 -13 6 -13 -13 0 -14 7 -26 17
-28 13 -3 16 0 12 11 -4 10 -2 13 5 8 7 -4 12 -22 12 -39 0 -18 5 -39 10 -47
7 -11 8 -2 5 27 -3 24 -15 58 -26 75 -12 18 -18 24 -15 14z"/>
<path d="M2260 3346 c0 -3 18 -15 40 -27 41 -23 48 -33 30 -44 -13 -8 -13 -25
1 -25 5 0 7 5 4 10 -3 6 -1 10 4 10 6 0 11 9 11 20 0 11 -6 20 -14 20 -26 0
-28 20 -4 29 22 10 22 10 -4 8 -15 -1 -24 -5 -22 -9 7 -11 -4 -10 -27 2 -10 6
-19 9 -19 6z"/>
<path d="M1263 3324 c-17 -7 -35 -18 -38 -25 -4 -6 8 -3 26 7 19 9 45 20 59
25 20 6 21 7 5 7 -11 0 -34 -6 -52 -14z"/>
<path d="M2570 3304 c8 -8 15 -26 16 -40 1 -13 6 -34 10 -46 6 -20 5 -21 -9
-10 -13 11 -15 10 -13 -5 2 -10 16 -21 34 -25 31 -8 32 -10 34 -71 3 -136 7
-182 23 -282 2 -11 4 -55 4 -97 1 -43 5 -78 10 -78 4 0 7 14 5 30 -4 36 2 37
33 8 13 -12 23 -16 23 -9 0 6 -13 20 -30 29 -16 9 -30 21 -30 25 0 5 6 5 13 1
9 -6 9 -5 1 7 -7 8 -15 48 -18 89 -3 41 -7 86 -10 100 -2 14 -7 76 -11 139 -8
125 -11 144 -29 134 -6 -3 -6 -1 2 8 18 19 15 28 -8 22 -11 -3 -20 -1 -20 3 1
15 26 44 39 44 6 0 11 5 11 10 0 12 -43 30 -72 30 -17 0 -19 -2 -8 -16z"/>
<path d="M1258 3294 c-32 -17 -35 -29 -12 -38 24 -9 41 -7 25 3 -16 10 -6 31
14 31 17 0 29 -31 15 -40 -6 -4 7 -7 29 -8 30 -1 46 4 61 20 15 16 23 19 31
11 14 -14 3 -33 -18 -33 -9 0 -14 -2 -11 -5 8 -9 59 6 53 15 -2 4 7 5 21 2 24
-4 25 -3 15 15 -6 12 -29 25 -55 32 -59 14 -66 14 -66 -5 0 -8 -5 -12 -10 -9
-6 4 -8 11 -5 16 10 15 -57 10 -87 -7z"/>
<path d="M295 3263 c-4 -16 -10 -36 -16 -45 -13 -25 -11 -35 6 -35 8 0 12 4 9
8 -3 5 2 19 11 33 10 15 12 26 6 30 -6 4 -8 13 -4 21 3 8 2 15 -1 15 -3 0 -8
-12 -11 -27z"/>
<path d="M1879 3262 c-15 -17 -14 -21 8 -48 12 -16 23 -25 23 -20 0 5 7 3 15
-4 9 -8 15 -8 15 -2 0 6 -5 12 -11 14 -5 2 -11 10 -13 18 -2 8 -7 25 -12 38
-9 21 -10 21 -25 4z"/>
<path d="M2294 3249 c14 -11 24 -24 21 -29 -3 -5 4 -8 15 -7 22 1 28 17 7 17
-8 0 -22 9 -32 20 -10 11 -23 20 -28 20 -5 0 2 -9 17 -21z"/>
<path d="M337 3246 c-9 -24 -9 -28 3 -21 6 3 10 1 10 -4 0 -6 5 -11 10 -11 14
0 13 13 -3 34 -13 18 -14 18 -20 2z"/>
<path d="M1333 3208 c7 -4 28 -8 47 -8 19 0 40 4 47 8 6 4 -15 7 -47 7 -32 0
-53 -3 -47 -7z"/>
<path d="M1598 3191 c10 -27 1 -81 -30 -184 -12 -37 -18 -70 -15 -74 4 -3 9 3
13 13 3 10 10 28 14 39 16 38 23 70 23 103 0 17 3 32 8 32 5 0 6 7 3 15 -4 8
-2 21 4 28 6 8 4 18 -10 32 -19 20 -19 19 -10 -4z"/>
<path d="M2027 3191 c-3 -13 0 -18 8 -15 8 3 17 -6 23 -23 6 -15 11 -22 11
-15 1 13 -26 72 -33 72 -2 0 -6 -9 -9 -19z"/>
<path d="M320 3180 c-17 -32 -6 -46 13 -17 9 15 13 28 7 32 -5 3 -14 -4 -20
-15z"/>
<path d="M985 3146 c-70 -109 -74 -163 -15 -181 l25 -7 -22 21 c-15 14 -23 34
-23 55 0 33 20 62 33 49 4 -3 7 2 7 13 0 11 9 37 20 59 30 59 16 54 -25 -9z"/>
<path d="M1937 3168 c-14 -12 -14 -15 -2 -32 8 -11 15 -18 16 -15 1 8 5 59 4
59 -1 0 -9 -6 -18 -12z"/>
<path d="M266 3152 c-4 -11 -21 -25 -38 -31 -49 -17 -67 -39 -88 -110 -21 -68
-20 -98 7 -152 8 -17 13 -41 10 -55 -2 -13 0 -24 4 -24 5 0 9 6 9 13 0 8 3 7
10 -3 6 -9 6 -18 0 -24 -14 -14 -12 -38 2 -34 6 2 13 26 15 54 2 27 8 75 13
107 5 32 8 63 6 70 -1 7 -1 9 1 5 9 -16 35 -8 29 8 -3 9 -6 21 -6 28 0 6 -9
12 -20 12 -23 0 -27 -17 -33 -134 -2 -36 -16 -37 -34 -1 -28 55 -6 168 38 200
16 11 29 17 29 12 0 -4 5 -1 10 7 8 12 11 11 17 -9 5 -21 8 -18 19 25 12 48
12 75 0 36z"/>
<path d="M1166 3144 c9 -38 21 -61 45 -85 20 -20 24 -45 10 -67 -6 -10 -10
-10 -21 3 -16 19 -51 19 -93 -1 -33 -16 -35 -16 -56 5 -24 24 -40 26 -64 9
-15 -11 -13 -13 19 -16 23 -1 42 -10 53 -24 l18 -21 31 22 c34 24 89 26 85 4
-2 -7 3 -13 10 -13 39 0 51 74 17 105 -11 10 -22 33 -26 51 -3 18 -13 39 -21
45 -12 11 -13 8 -7 -17z"/>
<path d="M2723 3085 c0 -33 2 -45 4 -27 2 18 2 45 0 60 -2 15 -4 0 -4 -33z"/>
<path d="M322 3103 c-10 -20 -24 -98 -16 -91 6 6 32 108 28 108 -2 0 -7 -8
-12 -17z"/>
<path d="M2919 2805 c3 -165 6 -350 6 -411 l0 -111 27 -11 c20 -7 28 -7 32 3
3 9 -2 11 -17 8 -20 -5 -20 -3 6 21 15 15 27 32 27 38 0 9 -3 9 -11 1 -26 -26
-37 -2 -38 82 -1 71 1 83 14 79 12 -5 15 3 15 39 0 24 3 59 6 76 4 18 2 31 -4
31 -5 0 -10 -10 -10 -22 0 -53 -6 -99 -14 -104 -5 -3 -6 8 -3 25 3 17 1 31 -4
31 -5 0 -10 8 -10 18 -1 28 1 145 3 177 1 17 -2 46 -7 65 -5 19 -13 87 -17
150 -4 63 -5 -20 -1 -185z"/>
<path d="M280 3057 c-8 -17 -20 -31 -26 -30 -7 1 -9 -8 -6 -22 4 -25 22 -25
22 0 0 7 6 20 13 27 11 11 23 58 15 58 -2 0 -10 -15 -18 -33z"/>
<path d="M2090 3027 c0 -12 9 -28 20 -35 24 -15 24 -14 4 26 -18 38 -24 40
-24 9z"/>
<path d="M2313 3011 c-7 -12 -13 -29 -12 -38 1 -12 4 -10 9 7 6 19 8 20 9 6 1
-11 6 -16 15 -13 10 4 13 1 10 -7 -3 -8 5 -16 20 -20 17 -4 26 -13 26 -27 0
-13 -4 -18 -12 -13 -10 6 -10 4 0 -8 14 -17 35 -19 40 -3 2 6 13 16 25 23 12
7 15 11 6 9 -8 -3 -26 4 -40 14 -13 10 -30 19 -36 19 -12 0 -17 13 -14 32 0 4
-6 5 -13 2 -9 -4 -16 2 -18 16 -3 21 -3 21 -15 1z"/>
<path d="M1854 2937 c1 -28 4 -57 9 -64 4 -6 2 -14 -3 -16 -6 -3 -5 -4 2 -2 7
1 11 9 10 16 -2 8 -5 35 -6 62 -4 65 -13 69 -12 4z"/>
<path d="M303 2941 c-4 -17 -6 -61 -4 -98 5 -66 5 -66 11 -23 3 25 3 54 -1 65
-3 11 -2 33 2 49 5 16 7 32 4 34 -2 2 -7 -10 -12 -27z"/>
<path d="M1598 2964 c-5 -4 -8 -16 -8 -26 0 -10 -5 -18 -10 -18 -7 0 -7 -6 0
-19 15 -29 13 -33 -17 -29 -24 3 -28 -1 -40 -47 -16 -58 -28 -389 -12 -340 14
47 26 175 17 182 -10 6 0 105 14 142 9 24 40 57 60 63 5 2 8 25 6 52 -2 26 -6
44 -10 40z"/>
<path d="M2480 2955 c0 -2 16 -12 35 -24 19 -11 35 -16 35 -11 0 5 -10 15 -22
22 -23 12 -48 19 -48 13z"/>
<path d="M1797 2891 c-10 -35 -15 -70 -12 -79 5 -11 12 5 21 48 19 88 13 107
-9 31z"/>
<path d="M615 2922 c-5 -4 -15 -23 -22 -42 -11 -31 -11 -33 2 -16 14 19 15 18
16 -10 3 -63 -4 -85 -22 -67 -8 8 -8 17 0 32 9 16 9 21 0 21 -6 0 -13 -9 -16
-20 -3 -11 -9 -17 -14 -14 -5 3 -6 -2 -3 -11 4 -9 -2 -25 -13 -38 -28 -31 -34
-66 -18 -110 7 -20 9 -40 4 -43 -16 -10 -9 -36 18 -72 23 -30 26 -43 24 -99
-2 -49 -7 -70 -22 -86 -10 -11 -19 -26 -19 -31 0 -6 4 -5 9 2 6 11 10 10 16
-5 7 -17 8 -17 15 2 5 11 10 43 11 70 l2 50 7 -60 7 -60 2 55 c2 44 4 51 11
33 19 -47 18 -21 -2 45 -24 82 -43 160 -55 230 -12 64 3 82 64 82 27 0 43 5
47 15 12 31 89 16 311 -60 28 -10 67 -17 88 -16 21 1 36 -2 33 -7 -6 -10 65
-3 79 8 6 4 25 11 43 15 17 3 32 11 32 16 0 13 -14 11 -28 -3 -16 -16 -142
-13 -217 5 -11 3 -20 6 -20 7 0 2 -37 8 -75 13 -31 3 -75 33 -62 41 9 6 173
10 278 8 34 -1 81 -9 104 -17 24 -8 45 -13 48 -10 6 6 -18 35 -30 35 -5 0 -26
12 -46 28 -27 20 -34 23 -29 10 3 -10 3 -18 -1 -19 -43 -5 -50 -4 -46 3 3 4
-4 8 -15 8 -12 0 -21 -6 -22 -12 0 -7 -6 -2 -12 12 -12 27 -26 40 -42 40 -5
-1 -2 -7 9 -15 10 -7 15 -18 11 -24 -10 -16 -45 -13 -45 4 0 20 -13 19 -52 -5
-18 -11 -41 -20 -51 -20 -11 0 -34 -7 -51 -15 -27 -13 -41 -14 -77 -5 -24 6
-60 12 -79 13 -40 2 -50 17 -39 64 4 18 3 33 -2 33 -5 0 -11 -12 -15 -27 -10
-47 -11 -49 -22 -23 -6 16 -6 29 0 37 12 15 7 35 -7 25z"/>
<path d="M112 2825 c-1 -65 2 -85 11 -82 13 5 13 91 -1 140 -5 21 -8 4 -10
-58z"/>
<path d="M2024 2883 c22 -20 25 -28 15 -39 -6 -8 -9 -17 -5 -21 3 -3 6 0 7 8
0 8 4 6 9 -6 8 -18 9 -18 9 5 1 45 -10 68 -36 73 l-25 5 26 -25z"/>
<path d="M2973 2893 c-13 -8 -23 -25 -23 -36 0 -18 3 -17 25 9 14 16 25 32 25
37 0 9 -1 9 -27 -10z"/>
<path d="M2444 2867 c1 -12 6 -29 10 -37 3 -9 5 -27 4 -40 -2 -19 2 -26 18
-28 18 -2 22 3 26 29 7 46 1 62 -32 81 -28 16 -29 16 -26 -5z"/>
<path d="M2153 2835 c0 -14 4 -25 9 -25 6 0 8 -6 5 -13 -2 -6 2 -18 9 -25 22
-21 18 35 -5 64 l-18 24 0 -25z"/>
<path d="M433 2812 c-6 -4 -17 -21 -22 -37 -10 -28 -10 -29 4 -11 11 14 15 16
15 5 0 -12 2 -12 9 0 5 8 7 21 3 29 -4 11 -1 13 8 7 9 -5 11 -4 6 3 -8 14 -8
14 -23 4z"/>
<path d="M493 2798 c-21 -34 -30 -78 -18 -88 16 -14 25 7 18 43 -3 15 0 34 7
42 7 8 10 15 7 15 -3 0 -9 -6 -14 -12z"/>
<path d="M1863 2788 c2 -14 12 -25 40 -47 15 -12 17 -11 17 3 0 11 -5 14 -12
10 -8 -5 -9 -2 -5 9 3 9 1 19 -5 23 -7 4 -8 3 -4 -4 4 -7 2 -12 -3 -12 -6 0
-11 7 -11 15 0 8 -4 15 -10 15 -5 0 -9 -6 -7 -12z"/>
<path d="M2546 2746 c4 -28 4 -28 -21 -12 -13 9 -27 16 -30 16 -8 0 29 -33 51
-46 10 -6 25 -31 31 -55 10 -34 21 -49 47 -63 18 -10 39 -30 46 -44 7 -15 16
-35 21 -44 12 -23 11 -31 -1 -23 -5 3 -10 1 -10 -4 0 -6 5 -11 10 -11 6 0 10
-8 11 -17 1 -12 4 -9 8 7 5 14 4 33 -2 44 -7 14 -6 17 5 14 7 -3 13 -10 13
-16 0 -19 18 -17 30 3 7 13 7 19 -2 22 -7 3 -17 22 -23 44 -6 21 -21 45 -33
53 -30 18 -81 30 -72 16 3 -5 16 -10 29 -10 26 0 60 -32 49 -45 -5 -4 -2 -5 5
-1 7 4 12 1 12 -8 0 -8 2 -21 5 -28 4 -9 -2 -14 -15 -14 -14 0 -20 7 -20 21 0
28 -44 69 -65 61 -9 -3 -14 -2 -11 3 3 5 0 11 -8 14 -7 3 -16 24 -20 46 -3 23
-11 41 -17 41 -6 0 -9 7 -5 15 3 8 1 15 -4 15 -5 0 -11 8 -13 18 -2 9 -3 4 -1
-12z"/>
<path d="M657 2743 c-4 -3 -7 -17 -7 -30 0 -12 -4 -23 -8 -23 -4 0 -2 -51 5
-112 6 -62 12 -137 13 -166 0 -29 5 -62 10 -73 15 -27 -2 -24 -32 5 l-24 25 2
-37 c0 -20 4 -44 7 -52 3 -8 8 -22 11 -30 3 -8 3 3 0 24 l-6 39 24 -16 c47
-34 58 -39 58 -25 0 10 2 10 9 0 4 -8 26 -15 47 -17 21 -2 52 -8 67 -14 32
-12 104 -18 113 -9 3 4 20 2 37 -4 18 -5 46 -12 62 -15 17 -3 36 -10 43 -16
10 -8 16 -7 22 3 5 8 8 16 6 17 -7 7 -195 43 -227 43 -59 0 -71 16 -79 113 -7
75 -6 245 2 317 2 14 10 30 18 37 8 7 11 13 6 13 -6 0 -21 -10 -34 -22 -17
-16 -26 -19 -29 -10 -3 6 -10 12 -16 12 -6 0 -1 -10 10 -22 18 -21 19 -32 14
-108 -6 -88 8 -275 23 -299 7 -10 1 -12 -30 -8 -95 12 -98 18 -101 261 -1 109
-4 200 -6 202 -2 2 -7 1 -10 -3z"/>
<path d="M1993 2716 c11 -16 8 -24 -10 -29 -17 -4 -17 -5 0 -6 10 0 30 -9 45
-18 27 -17 27 -16 9 3 -9 10 -25 28 -35 39 -9 11 -14 16 -9 11z"/>
<path d="M156 2694 c-4 -9 -1 -23 5 -30 6 -7 8 -18 5 -23 -4 -5 2 -9 13 -8 10
0 17 6 14 13 -2 6 2 18 10 25 7 8 12 20 9 27 -6 18 -22 4 -22 -19 0 -12 -5
-19 -12 -16 -7 2 -12 14 -11 26 3 25 -2 27 -11 5z"/>
<path d="M1419 2645 c-26 -24 -50 -41 -55 -37 -5 4 -6 3 -2 -2 17 -21 -100
-86 -168 -93 l-52 -6 -10 44 c-5 24 -10 35 -11 23 -1 -12 4 -36 11 -54 9 -27
8 -35 -4 -44 -20 -15 -27 -49 -18 -88 l8 -33 1 43 c2 65 22 89 84 97 29 4 60
12 70 17 18 9 30 2 113 -66 19 -16 44 -47 56 -69 18 -35 19 -51 13 -126 -9
-113 -49 -400 -79 -574 -13 -76 -22 -156 -19 -178 11 -80 -53 -125 -169 -117
-79 6 -141 38 -185 95 -49 64 -63 114 -46 159 6 16 7 16 15 -2 7 -18 8 -18 6
1 0 11 2 27 5 35 3 8 11 42 18 75 7 33 14 65 16 70 1 6 18 77 37 159 19 83 37
160 41 173 3 13 1 23 -5 23 -5 0 -10 -9 -10 -21 0 -11 -6 -30 -12 -42 -7 -12
-13 -33 -14 -47 -1 -14 -3 -25 -4 -25 -1 0 -4 -13 -6 -30 -3 -16 -7 -37 -11
-45 -3 -8 -8 -30 -10 -49 -2 -19 -8 -42 -14 -52 -5 -11 -8 -19 -5 -19 3 0 -4
-33 -16 -72 -11 -40 -21 -77 -22 -83 -1 -5 -12 -26 -24 -45 -14 -22 -18 -36
-11 -41 6 -4 12 -42 13 -86 2 -65 6 -85 24 -108 12 -15 22 -32 22 -36 0 -5 7
-17 14 -26 8 -10 35 -45 60 -78 25 -33 58 -76 73 -95 l28 -35 -41 35 c-22 19
-39 37 -38 38 2 3 -44 68 -80 113 -7 8 -21 31 -32 50 -10 18 -25 40 -31 47 -7
7 -13 33 -13 57 0 24 -4 47 -10 50 -6 4 -10 -15 -10 -49 0 -52 4 -62 65 -151
64 -95 73 -111 57 -101 -12 7 -8 -26 6 -49 11 -18 11 -16 7 13 l-6 33 25 -18
c13 -10 22 -21 20 -25 -2 -4 6 -8 18 -10 15 -2 22 -9 22 -20 -1 -14 4 -17 21
-14 14 3 33 -3 46 -15 40 -34 39 -20 -1 24 -74 80 -92 102 -142 177 -28 41
-59 84 -68 95 -18 20 -33 85 -20 85 4 0 19 -18 34 -40 32 -49 109 -90 180 -97
28 -3 53 -7 55 -9 2 -2 26 8 54 22 l50 26 -6 -24 c-3 -13 -13 -62 -21 -110 -9
-47 -23 -105 -31 -129 -18 -50 -18 -52 -4 -47 7 2 13 18 15 36 2 18 11 49 21
70 9 20 17 39 17 42 1 3 5 11 10 18 4 7 3 19 -5 28 -10 12 -9 13 5 8 9 -3 16
-1 16 5 0 6 -5 11 -10 11 -6 0 -9 10 -6 23 16 86 19 96 29 90 6 -3 7 -1 3 5
-4 7 -3 12 2 12 4 0 9 26 9 58 1 31 8 91 17 133 8 42 16 91 16 110 0 19 1 48
3 64 2 17 5 38 5 48 1 10 6 16 11 13 5 -3 11 5 13 19 3 15 1 25 -6 25 -6 0 -5
4 3 9 9 6 11 18 7 36 -5 18 -3 24 4 20 7 -4 9 8 5 36 -5 40 -4 42 10 24 8 -11
15 -25 15 -32 0 -6 5 -15 11 -18 5 -4 3 9 -5 28 -10 26 -13 63 -10 139 5 143
7 151 47 210 36 53 60 149 40 161 -8 5 -11 -5 -14 -50 -2 -32 -22 -75 -29 -63
-4 7 -10 -5 -14 -27 -3 -21 -14 -47 -22 -58 -16 -20 -16 -20 -11 0 2 11 8 29
12 40 6 16 5 17 -4 5 -9 -12 -10 -5 -7 30 l5 45 -19 -25 c-19 -24 -20 -25 -20
-3 0 13 -13 31 -32 44 -18 13 -45 33 -60 45 l-27 22 74 75 c65 65 83 87 73 87
-2 0 -24 -20 -49 -45z"/>
<path d="M1906 2676 c3 -9 15 -16 25 -16 10 0 19 -4 19 -9 0 -5 17 -19 38 -31
l37 -22 -23 24 c-31 34 -104 74 -96 54z"/>
<path d="M485 2654 c1 -14 10 -33 18 -42 15 -14 16 -13 14 6 0 11 -5 18 -11
15 -5 -3 -7 5 -4 21 3 17 1 26 -8 26 -7 0 -11 -10 -9 -26z"/>
<path d="M916 2665 c4 -11 9 -85 11 -165 2 -80 5 -156 7 -170 3 -14 5 -28 5
-32 1 -4 12 -15 26 -24 31 -20 111 -32 101 -15 -4 6 -24 11 -45 11 -71 0 -75
8 -79 184 -4 185 0 198 61 194 33 -2 44 -8 54 -28 9 -17 13 -20 13 -8 0 9 -4
19 -10 23 -5 3 -7 11 -4 19 4 10 -9 11 -58 5 -52 -6 -64 -5 -76 9 -12 15 -13
15 -6 -3z"/>
<path d="M2196 2667 c4 -6 14 -20 22 -29 7 -9 11 -21 8 -27 -4 -5 -1 -13 6
-17 7 -4 10 -4 6 1 -4 4 -3 14 3 21 12 15 3 37 -12 29 -5 -4 -9 0 -9 8 0 8 -7
18 -16 21 -10 4 -13 2 -8 -7z"/>
<path d="M2490 2653 c1 -14 27 -43 33 -37 3 3 15 1 26 -6 12 -6 21 -7 21 -1 0
5 -13 15 -30 23 -16 7 -30 16 -30 20 0 5 -4 8 -10 8 -5 0 -10 -3 -10 -7z"/>
<path d="M438 2629 c23 -27 19 -47 -6 -27 -22 18 -45 19 -38 1 3 -8 6 -20 7
-26 1 -7 5 -1 9 13 l8 25 7 -23 c6 -19 10 -20 23 -10 8 7 18 12 21 10 3 -2 6
0 8 5 1 4 -13 19 -30 32 l-32 25 23 -25z"/>
<path d="M311 2603 c-1 -26 3 -31 19 -30 16 1 17 3 6 17 -7 8 -16 22 -19 30
-3 8 -6 1 -6 -17z"/>
<path d="M1596 2622 c-3 -6 -2 -12 4 -14 9 -3 20 -51 23 -95 0 -7 3 -13 7 -13
4 0 6 17 5 38 -2 43 -29 100 -39 84z"/>
<path d="M130 2608 c0 -30 -36 -98 -49 -93 -10 4 -12 -2 -9 -24 2 -17 1 -28
-4 -25 -12 8 -10 -10 3 -23 8 -8 7 -13 -2 -18 -8 -5 -10 -4 -5 3 10 17 1 15
-14 -4 -8 -8 -9 -14 -4 -13 19 3 35 -1 30 -9 -3 -5 0 -9 7 -9 8 0 11 12 9 33
-2 17 -2 40 0 50 3 16 4 16 19 1 15 -15 16 -12 11 29 -2 25 0 44 5 44 5 0 10
6 10 13 0 6 3 22 7 35 5 13 3 22 -3 22 -6 0 -11 -6 -11 -12z"/>
<path d="M1110 2613 c0 -6 -9 -13 -21 -16 -15 -4 -19 -11 -15 -25 4 -10 7 -42
7 -71 1 -28 5 -53 8 -56 4 -2 6 23 4 57 -3 43 1 67 12 85 9 14 14 27 11 31 -3
3 -6 1 -6 -5z"/>
<path d="M2180 2589 c-13 -10 -13 -10 1 -6 9 3 23 -6 34 -23 11 -16 25 -26 33
-23 10 4 6 13 -14 34 -31 32 -33 33 -54 18z"/>
<path d="M40 2525 c-14 -18 -28 -31 -32 -28 -5 2 -8 -9 -8 -25 0 -19 5 -29 15
-29 8 0 15 4 15 9 0 4 -5 8 -10 8 -6 0 -4 13 5 30 9 17 19 30 24 30 9 0 24 30
19 36 -2 1 -14 -13 -28 -31z"/>
<path d="M2340 2551 c0 -13 20 -25 50 -29 l25 -3 -27 15 c-16 8 -32 18 -38 21
-5 3 -10 2 -10 -4z"/>
<path d="M1704 2518 c3 -13 6 -29 6 -37 0 -10 3 -11 14 -2 17 14 9 61 -11 61
-11 0 -14 -6 -9 -22z"/>
<path d="M500 2484 c8 -9 14 -40 14 -72 0 -53 1 -55 11 -28 15 35 1 102 -22
111 -14 5 -14 3 -3 -11z"/>
<path d="M2731 2443 c1 -10 0 -20 -1 -23 -5 -14 -5 -60 1 -60 7 0 19 51 19 81
0 11 -5 19 -11 19 -5 0 -9 -8 -8 -17z"/>
<path d="M2156 2415 c4 -11 4 -17 0 -13 -5 4 -13 2 -20 -3 -59 -50 -78 -69
-72 -69 5 0 23 12 41 28 17 15 40 32 51 38 16 10 17 14 6 25 -11 12 -12 11 -6
-6z"/>
<path d="M1778 2413 c-22 -5 -23 -25 -4 -66 8 -18 17 -45 19 -62 2 -16 5 7 6
53 0 45 0 81 -1 81 -2 -1 -11 -3 -20 -6z"/>
<path d="M1145 2371 c-3 -11 -14 -21 -23 -23 -12 -2 -13 -6 -5 -11 11 -7 53
28 53 45 0 16 -19 8 -25 -11z"/>
<path d="M1725 2374 c-11 -27 -12 -64 -2 -57 5 3 7 14 4 24 -3 11 -1 19 3 19
5 0 11 -18 15 -40 4 -22 11 -40 16 -40 6 0 8 -4 5 -9 -11 -17 5 -40 22 -34 13
5 14 3 5 -7 -8 -9 -5 -20 13 -47 13 -20 24 -40 24 -46 0 -6 3 -8 6 -5 3 3 -2
23 -10 43 -9 21 -16 44 -16 51 0 8 -9 23 -20 34 -11 11 -22 32 -25 47 -4 16
-12 41 -19 57 -11 27 -13 28 -21 10z"/>
<path d="M2768 2360 c6 -8 12 -24 12 -36 0 -13 4 -26 10 -29 19 -12 6 46 -15
63 -11 9 -14 10 -7 2z"/>
<path d="M2828 2349 c8 -10 11 -23 6 -30 -4 -7 -3 -10 4 -5 15 9 34 -30 27
-57 -5 -17 -4 -19 4 -7 6 8 11 11 11 5 0 -5 4 -4 9 3 8 13 1 25 -51 82 -13 15
-17 18 -10 9z"/>
<path d="M2214 2324 c-9 -21 -28 -54 -42 -73 l-27 -35 32 24 c18 13 30 26 28
30 -3 4 2 13 10 20 8 7 15 21 15 30 0 10 5 20 12 22 9 3 9 6 0 12 -8 5 -18 -5
-28 -30z"/>
<path d="M2558 2335 c2 -15 9 -22 18 -18 11 4 12 0 6 -18 -5 -13 -6 -33 -1
-44 8 -21 9 -19 14 40 2 21 -4 35 -20 47 -21 16 -22 16 -17 -7z"/>
<path d="M2690 2355 c0 -5 7 -17 17 -27 10 -12 12 -18 4 -18 -7 0 -9 -5 -5
-11 4 -8 9 -7 15 2 6 11 9 9 9 -7 0 -11 9 -29 20 -39 11 -10 20 -26 20 -37 0
-10 4 -18 9 -18 5 0 7 -15 4 -34 -2 -19 1 -37 7 -41 6 -3 10 -3 9 2 -3 20 2
34 10 28 10 -6 3 26 -18 78 -10 25 -9 27 7 18 9 -5 25 -19 36 -32 18 -22 18
-22 -2 -17 -18 5 -19 3 -9 -13 6 -10 14 -19 17 -19 3 0 5 -15 4 -33 -2 -52 -3
-59 -14 -52 -6 3 -7 -1 -4 -10 4 -9 9 -14 12 -11 3 3 13 -3 22 -14 19 -22 17
-28 21 65 2 31 -34 135 -57 170 -11 15 -14 16 -14 4 0 -8 5 -20 12 -27 7 -7 9
-12 6 -12 -17 0 -62 32 -98 70 -22 23 -40 39 -40 35z"/>
<path d="M252 2302 c-2 -9 -5 -48 -7 -87 -2 -38 -8 -81 -13 -95 -5 -14 -6 -34
-2 -45 4 -11 4 -29 -1 -40 -11 -29 -11 -32 5 -32 8 0 14 7 14 16 0 39 14 176
19 185 4 5 1 6 -7 1 -10 -6 -11 -4 -5 11 13 29 18 91 8 97 -5 3 -10 -2 -11
-11z"/>
<path d="M165 2290 c-3 -5 -4 -14 0 -19 3 -6 -1 -13 -9 -18 -8 -5 -12 -13 -8
-19 4 -7 14 1 24 22 10 18 13 36 8 39 -5 3 -11 1 -15 -5z"/>
<path d="M2049 2295 c-1 -5 -1 -18 0 -27 2 -11 -5 -18 -14 -18 -9 0 -14 -4
-11 -9 10 -15 -70 -95 -88 -88 -10 4 -19 -1 -25 -12 -6 -10 -24 -25 -42 -33
-17 -9 -26 -18 -21 -22 6 -3 26 9 46 27 20 19 38 32 41 29 7 -7 65 19 65 30 0
6 11 19 24 29 29 23 48 70 35 90 -5 8 -9 10 -10 4z"/>
<path d="M2682 2260 c1 -17 -4 -36 -10 -42 -8 -8 -8 -17 -1 -30 6 -12 6 -18
-1 -18 -5 0 -10 -5 -10 -12 0 -24 28 17 39 56 7 26 7 45 0 57 -14 27 -18 24
-17 -11z"/>
<path d="M363 2243 c0 -14 -8 -30 -17 -35 -9 -5 -16 -14 -16 -20 0 -6 9 -3 20
7 11 10 20 24 20 32 0 8 5 11 10 8 15 -9 12 4 -4 20 -11 12 -13 10 -13 -12z"/>
<path d="M74 2225 c-4 -8 -10 -12 -15 -9 -5 3 -8 2 -7 -3 1 -4 -4 -25 -11 -45
-7 -21 -10 -46 -8 -55 3 -13 5 -10 6 7 1 20 3 22 11 10 8 -12 10 -9 10 12 0
15 4 29 9 32 5 3 11 19 13 36 5 32 1 39 -8 15z"/>
<path d="M1183 2229 c-24 -3 -46 -8 -49 -12 -7 -7 1 -8 76 -12 17 -1 30 3 30
9 0 7 3 7 11 -1 11 -11 49 -6 49 7 0 11 -66 16 -117 9z"/>
<path d="M1510 2230 c0 -6 7 -24 15 -40 9 -17 11 -30 6 -30 -5 0 -12 6 -14 13
-3 7 -6 5 -6 -5 -1 -9 7 -22 17 -27 13 -8 14 -12 4 -19 -10 -7 -10 -11 1 -21
12 -9 16 -7 20 9 6 24 -22 130 -34 130 -5 0 -9 -5 -9 -10z"/>
<path d="M490 2206 c0 -10 -6 -13 -15 -10 -9 4 -15 0 -15 -10 0 -21 13 -20 34
3 11 12 14 21 7 26 -6 3 -11 -1 -11 -9z"/>
<path d="M2930 2205 c0 -8 -7 -15 -15 -15 -8 0 -15 -9 -15 -20 0 -11 4 -20 10
-20 5 0 7 8 4 18 -2 9 1 7 7 -6 7 -12 17 -21 23 -19 15 5 14 33 -1 30 -18 -4
-16 7 4 29 15 17 15 18 0 18 -10 0 -17 -7 -17 -15z"/>
<path d="M294 2173 c-4 -15 -12 -35 -18 -43 -9 -13 -9 -13 5 -3 9 7 19 10 23
6 4 -4 4 0 0 10 -3 10 -1 17 5 17 14 0 15 27 1 35 -5 3 -12 -7 -16 -22z"/>
<path d="M2200 2186 c15 -13 80 -39 80 -31 0 6 -76 45 -87 45 -4 0 -1 -6 7
-14z"/>
<path d="M350 2145 c-18 -19 -31 -38 -27 -41 4 -4 9 1 13 10 8 22 25 21 18 -1
-2 -10 1 -8 7 5 7 12 16 22 22 22 5 0 6 7 3 16 -6 15 -4 15 10 3 15 -12 17
-12 13 0 -9 26 -24 22 -59 -14z"/>
<path d="M429 2144 c-7 -15 -13 -38 -11 -53 2 -20 1 -23 -7 -11 -9 13 -11 13
-11 -2 0 -10 4 -18 8 -18 15 0 32 24 32 46 0 13 7 29 15 37 8 8 11 17 8 21
-11 11 -19 6 -34 -20z"/>
<path d="M2150 2149 c0 -6 -10 -8 -22 -5 -13 3 -17 3 -10 0 6 -3 12 -12 12
-20 0 -14 11 -17 85 -29 83 -13 101 -17 128 -30 19 -9 35 -11 50 -5 17 7 18 9
5 9 -10 1 -18 5 -18 11 0 8 -108 45 -155 52 -11 2 -24 6 -30 9 -24 14 -45 18
-45 8z"/>
<path d="M2002 2126 c-33 -19 -33 -21 -1 -21 21 -1 29 4 29 17 0 10 -1 18 -2
17 -2 -1 -13 -7 -26 -13z"/>
<path d="M2040 2119 c0 -15 6 -18 33 -15 17 3 35 5 40 5 12 1 8 18 -5 19 -7 1
-25 3 -40 6 -22 3 -28 0 -28 -15z"/>
<path d="M2786 2103 c-9 -10 -7 -55 3 -49 12 8 21 45 11 51 -4 2 -10 2 -14 -2z"/>
<path d="M2814 2040 c4 -40 -9 -84 -23 -76 -12 8 -3 -25 14 -47 11 -15 17 -16
33 -8 22 12 32 -1 32 -42 0 -14 3 -18 8 -10 7 12 40 10 85 -3 20 -6 22 2 4 20
-15 16 -81 30 -72 16 3 -6 2 -10 -3 -10 -5 0 -14 12 -20 26 -7 15 -17 22 -24
18 -7 -4 -8 -3 -4 4 4 7 13 12 21 12 7 0 17 9 20 20 3 11 13 20 21 20 8 0 12
5 9 11 -5 7 -12 6 -23 -4 -10 -8 -25 -17 -35 -20 -10 -4 -15 -11 -12 -17 3 -5
2 -10 -4 -10 -17 0 -20 14 -11 50 4 19 8 29 9 22 1 -7 6 -10 11 -7 14 9 12 25
-3 25 -8 0 -19 10 -26 23 -10 20 -11 19 -7 -13z"/>
<path d="M25 2054 c6 -2 9 -23 7 -47 -5 -54 3 -46 11 11 4 35 2 42 -11 41 -10
0 -12 -3 -7 -5z"/>
<path d="M2944 2015 c-7 -21 -7 -38 -2 -43 5 -5 11 -18 12 -28 2 -11 10 -18
19 -18 9 1 13 -4 10 -12 -3 -8 0 -14 6 -14 6 0 11 9 11 20 0 11 -7 20 -15 20
-14 0 -32 61 -22 77 3 5 2 14 -1 20 -5 7 -12 -2 -18 -22z"/>
<path d="M143 2028 c0 -7 -2 -17 -3 -23 -5 -20 0 -36 10 -30 6 3 10 1 10 -4 0
-6 5 -11 11 -11 6 0 4 9 -4 21 -8 11 -13 29 -10 40 3 10 1 19 -4 19 -5 0 -10
-6 -10 -12z"/>
<path d="M1593 1995 c4 -27 28 -60 52 -70 41 -17 49 -13 20 10 -16 14 -40 37
-53 52 -19 24 -22 25 -19 8z"/>
<path d="M1507 1880 c-14 -13 -17 -26 -12 -51 5 -29 11 -34 36 -35 34 -1 40
13 7 18 -15 2 -22 10 -22 30 -1 14 2 24 6 22 4 -3 8 4 8 15 0 25 0 25 -23 1z"/>
<path d="M2600 1877 c0 -26 19 -67 31 -67 8 0 9 4 0 13 -6 8 -12 23 -14 35 -4
27 -17 41 -17 19z"/>
<path d="M2816 1882 c-4 -7 -3 -12 1 -12 5 0 14 -14 21 -32 9 -25 9 -35 -2
-47 -7 -9 -16 -23 -20 -31 -4 -8 2 -4 13 9 l21 23 0 -24 c0 -34 -26 -66 -58
-70 -24 -3 -27 -7 -25 -36 1 -30 0 -31 -12 -15 -13 17 -14 17 -10 -2 2 -11 4
-26 4 -34 1 -8 7 -11 17 -7 14 5 15 4 5 -8 -9 -11 -9 -16 0 -21 7 -5 9 -23 5
-53 -3 -25 -3 -43 0 -39 5 5 25 -10 92 -70 14 -13 21 -23 16 -23 -5 0 -2 -5 6
-10 11 -7 12 -10 2 -10 -11 0 -11 -3 1 -14 15 -15 15 -58 0 -121 -6 -22 -6
-49 -2 -60 4 -11 8 -33 8 -50 1 -23 -2 -26 -9 -15 -8 13 -10 12 -10 -2 0 -10
5 -18 11 -18 5 0 7 -5 3 -11 -4 -7 -7 -25 -6 -41 0 -19 -3 -26 -11 -21 -7 4
-6 0 2 -10 11 -14 11 -18 -3 -23 -9 -3 -16 -12 -16 -20 0 -24 -20 -15 -21 9
-1 16 -2 18 -6 5 -2 -10 -9 -18 -15 -18 -6 0 -20 8 -31 18 -12 10 -17 11 -12
3 6 -11 5 -12 -6 -5 -8 5 -25 10 -39 10 -40 3 -42 3 -34 15 5 8 2 9 -11 1 -19
-10 -67 1 -92 21 -9 6 -13 6 -13 -1 0 -6 -12 -8 -27 -5 -16 3 -47 5 -70 6 -28
0 -40 4 -36 11 4 6 -1 5 -10 -2 -10 -9 -24 -11 -39 -6 -33 11 -41 11 -57 0 -7
-6 -20 -11 -28 -12 -9 -2 -21 -8 -27 -14 -8 -9 -1 -10 29 -4 72 13 237 8 310
-11 39 -9 90 -18 114 -20 60 -5 101 -24 112 -52 13 -34 24 -28 44 23 20 53 23
76 26 230 1 63 6 140 10 171 7 50 5 62 -21 114 -16 32 -39 64 -50 72 -11 7
-17 16 -14 20 3 3 -4 10 -15 17 -12 6 -21 19 -21 30 0 10 -4 22 -10 25 -5 3
-10 18 -10 33 0 19 8 32 29 44 30 16 30 16 34 -10 4 -21 4 -19 4 8 0 19 5 46
10 58 11 30 -6 122 -23 122 -7 0 -14 5 -16 12 -3 9 -6 9 -12 0z m47 -388 c7 1
8 1 4 -2 -4 -2 3 -18 16 -35 52 -70 47 -79 -11 -19 -34 34 -66 62 -72 62 -5 0
-10 14 -10 30 l0 31 31 -35 c16 -19 36 -34 42 -32z"/>
<path d="M2807 1853 c-4 -3 -7 -15 -7 -25 0 -10 -5 -18 -11 -18 -5 0 -7 5 -4
10 3 6 2 10 -3 10 -5 0 -9 -11 -9 -25 0 -36 16 -31 33 11 15 35 15 51 1 37z"/>
<path d="M2930 1822 c25 -15 70 -23 70 -12 0 5 -8 10 -17 10 -10 0 -29 3 -43
6 -18 4 -21 3 -10 -4z"/>
<path d="M2630 1765 c0 -5 9 -27 19 -49 11 -23 31 -67 45 -98 29 -66 44 -74
38 -23 -2 19 -8 33 -12 30 -4 -2 -5 8 -3 23 3 17 1 22 -4 15 -12 -17 -26 -4
-48 47 -19 46 -35 71 -35 55z"/>
<path d="M523 1675 c-10 -10 -9 -14 2 -18 7 -3 11 -14 8 -25 -3 -13 1 -19 12
-19 10 0 12 4 6 10 -7 7 -5 15 7 23 14 10 15 15 4 26 -11 11 -12 10 -7 -4 4
-10 3 -18 -3 -18 -6 0 -12 9 -14 19 -2 15 -5 17 -15 6z"/>
<path d="M2861 1647 c-14 -17 -1 -30 50 -50 61 -25 89 -29 89 -12 0 9 -9 15
-22 16 -36 0 -93 23 -93 36 0 19 -12 24 -24 10z"/>
<path d="M533 1571 c3 -17 0 -32 -6 -35 -9 -3 -9 -5 0 -5 14 -1 18 5 27 42 5
21 3 27 -9 27 -12 0 -15 -7 -12 -29z"/>
<path d="M606 1592 c-3 -5 -8 -40 -11 -78 -4 -51 -2 -64 5 -52 6 10 13 45 15
78 5 57 2 70 -9 52z"/>
<path d="M888 1460 c-5 -49 -3 -61 22 -105 28 -48 36 -60 80 -115 18 -23 19
-23 19 -5 1 11 -9 31 -20 45 -61 76 -88 130 -91 182 l-3 53 -7 -55z"/>
<path d="M1020 1487 c30 -35 94 -73 135 -82 22 -4 18 -1 -14 13 -25 11 -55 32
-69 48 -13 16 -21 23 -18 17 11 -20 -5 -15 -33 10 l-26 22 25 -28z"/>
<path d="M532 1438 c-16 -16 -15 -45 2 -51 11 -4 14 3 13 29 -1 18 -2 34 -2
34 -1 0 -6 -5 -13 -12z"/>
<path d="M848 1444 c6 -3 12 -15 11 -27 0 -21 -1 -21 -8 -3 -7 17 -9 16 -19
-14 -8 -23 -9 -37 -2 -44 7 -7 10 -3 10 12 0 35 13 26 48 -36 37 -64 75 -119
98 -142 14 -13 15 -13 12 5 -2 11 -10 19 -17 17 -7 -1 -10 2 -6 8 3 5 -8 29
-25 52 -64 88 -81 121 -78 147 2 19 -2 26 -17 28 -11 2 -14 0 -7 -3z"/>
<path d="M431 1398 c0 -9 -11 -33 -22 -53 -12 -20 -19 -38 -16 -41 3 -3 8 4
12 17 6 17 9 19 17 8 7 -11 8 -9 4 5 -4 10 -1 24 5 32 6 7 9 21 6 31 -4 16 -5
16 -6 1z"/>
<path d="M157 1380 c4 -16 3 -21 -5 -16 -8 5 -11 0 -9 -13 5 -34 14 -34 21 1
3 17 2 36 -3 41 -6 6 -8 2 -4 -13z"/>
<path d="M860 1330 c7 -14 21 -37 31 -51 10 -14 16 -29 12 -33 -3 -3 -2 -6 3
-6 6 0 16 -16 24 -35 8 -19 20 -35 27 -35 7 0 13 -4 13 -10 0 -5 4 -10 9 -10
4 0 -20 44 -55 97 -67 101 -85 125 -64 83z"/>
<path d="M50 1265 c0 -6 5 -16 12 -23 7 -7 9 -12 6 -12 -4 0 0 -16 8 -36 11
-27 12 -39 4 -49 -7 -8 -8 -20 -4 -27 4 -7 7 -31 5 -53 -3 -39 7 -45 14 -8 2
10 4 18 5 18 9 0 7 68 -2 100 -6 22 -11 42 -11 45 1 3 -7 17 -18 30 -10 14
-19 20 -19 15z"/>
<path d="M492 1254 c-7 -8 -12 -25 -10 -38 l3 -24 19 26 c11 14 14 22 7 17
-10 -5 -11 -2 -6 14 7 25 5 26 -13 5z"/>
<path d="M19 1234 c-1 -16 -1 -53 -2 -81 0 -29 -3 -53 -7 -53 -9 0 0 -49 9
-54 4 -3 8 3 8 12 1 9 6 38 11 65 5 26 6 49 2 52 -4 2 -7 21 -8 41 -2 45 -12
59 -13 18z"/>
<path d="M357 1106 c-4 -10 -13 -16 -20 -13 -19 7 -36 -24 -26 -48 4 -11 8
-15 8 -9 1 6 13 23 27 37 14 15 24 32 22 39 -3 8 -7 5 -11 -6z"/>
<path d="M405 1078 c-4 -10 -11 -15 -16 -12 -5 3 -9 0 -9 -6 0 -7 7 -10 15 -7
8 4 17 2 21 -4 3 -6 13 -8 21 -5 8 3 22 -1 30 -10 13 -13 14 -20 5 -35 -7 -10
-8 -19 -3 -19 5 0 12 -13 16 -29 3 -16 14 -36 23 -43 15 -12 16 -11 4 4 -8 9
-16 45 -18 79 -2 34 -6 71 -10 82 -6 18 -7 19 -16 4 -12 -22 -34 -22 -47 1 -9
16 -10 16 -16 0z"/>
<path d="M375 1028 c-57 -19 -80 -34 -77 -51 2 -12 -2 -15 -15 -10 -14 5 -12
0 7 -20 14 -15 32 -27 40 -28 10 0 8 -3 -5 -8 -12 -5 8 -8 52 -7 68 1 83 16
16 16 -29 0 -58 18 -34 21 6 1 14 3 19 4 4 2 17 6 30 10 12 4 22 12 22 17 0 5
5 6 10 3 6 -3 10 -1 10 4 0 14 2 15 -59 -15 -55 -26 -81 -26 -81 1 0 9 4 13
10 10 5 -3 7 0 4 8 -3 10 8 18 40 27 26 7 46 17 46 21 0 5 -1 9 -2 8 -2 -1
-16 -6 -33 -11z"/>
<path d="M2219 1034 c-9 -19 -4 -57 9 -61 7 -3 12 3 11 14 -1 26 -15 58 -20
47z"/>
<path d="M2369 985 c-2 -2 -20 -5 -39 -7 -41 -5 -58 -39 -18 -37 13 0 17 3 10
6 -6 2 -10 9 -6 14 3 5 11 6 17 2 7 -5 66 -9 132 -9 66 -1 154 -9 195 -17 41
-8 93 -18 114 -22 25 -4 50 -18 68 -37 32 -34 36 -30 11 12 -20 34 -50 49
-112 56 -25 3 -54 7 -63 10 -18 5 -41 10 -105 23 -42 8 -197 13 -204 6z"/>
<path d="M2258 962 c-10 -2 -18 -11 -18 -20 0 -12 -3 -13 -8 -5 -9 15 -26 4
-30 -20 -3 -16 0 -17 19 -6 27 14 64 47 58 52 -2 2 -12 2 -21 -1z"/>
<path d="M177 953 c-4 -6 -1 -13 5 -15 15 -5 14 -106 -1 -121 -14 -14 -31 1
-31 26 0 17 -2 19 -9 8 -8 -12 -12 -13 -25 -2 -11 9 -13 18 -7 25 13 15 32 66
26 66 -3 0 -10 -12 -16 -27 l-11 -28 -13 29 -12 29 -7 -36 c-4 -19 -13 -40
-21 -47 -8 -7 -15 -23 -15 -36 0 -12 -4 -25 -8 -28 -12 -7 -37 -115 -29 -123
4 -3 7 5 8 18 0 22 1 22 8 4 7 -16 9 -12 9 16 0 20 10 59 23 85 12 27 21 52
21 57 -4 17 22 5 46 -21 15 -16 34 -31 42 -34 12 -4 9 -18 -18 -84 -18 -43
-32 -83 -32 -89 1 -12 66 132 91 200 12 34 23 49 33 47 9 -2 16 3 16 10 0 20
-29 58 -45 58 -7 0 -15 5 -17 12 -3 9 -6 9 -11 1z"/>
<path d="M2346 931 c-22 -3 -41 -12 -44 -19 -3 -11 0 -12 17 -3 16 9 21 9 21
-2 0 -7 -10 -13 -21 -14 -12 -1 -26 -6 -32 -12 -6 -6 7 -5 34 1 24 6 50 11 56
11 9 0 10 4 2 14 -9 10 -8 13 5 13 9 0 16 -6 16 -12 0 -10 22 -12 86 -10 62 3
114 -3 183 -18 53 -12 106 -23 119 -26 12 -2 37 -18 54 -34 57 -55 67 -31 12
29 -32 36 -54 47 -117 56 -12 2 -38 6 -57 10 -139 24 -247 30 -334 16z"/>
<path d="M2255 895 c-3 -8 -7 -22 -9 -29 -3 -10 0 -13 8 -10 16 6 28 54 14 54
-5 0 -11 -7 -13 -15z"/>
<path d="M523 892 c-9 -6 -4 -16 17 -36 17 -15 27 -33 23 -38 -3 -6 -1 -8 5
-4 6 3 27 -5 48 -19 20 -14 42 -25 47 -25 6 0 0 -12 -14 -27 -13 -16 -33 -44
-43 -63 -11 -19 -34 -56 -52 -81 -31 -42 -37 -46 -76 -46 -24 0 -69 -10 -102
-22 -59 -24 -136 -83 -136 -106 0 -7 -16 -64 -35 -126 -19 -63 -35 -122 -35
-131 0 -9 11 -30 25 -47 14 -16 33 -51 42 -76 10 -30 19 -43 25 -37 13 13 -8
74 -43 127 -22 33 -25 45 -16 60 6 11 12 31 14 45 5 46 6 50 14 50 5 0 6 7 3
15 -5 11 -1 14 12 9 13 -4 15 -3 7 3 -9 6 -10 18 -3 43 5 19 10 40 11 45 2 12
42 61 49 60 3 0 20 11 38 23 18 13 40 21 48 18 9 -3 25 1 37 9 24 17 57 20 57
5 0 -5 13 -1 30 8 16 9 30 20 30 24 0 3 9 17 20 30 36 41 104 152 105 172 2
20 -49 78 -59 68 -3 -3 -6 0 -6 6 0 7 -6 12 -13 12 -16 0 -52 29 -58 47 -2 7
-9 9 -16 5z"/>
<path d="M2383 875 c-36 -7 -57 -15 -55 -23 1 -7 -5 -12 -14 -12 -8 0 -12 5
-9 10 3 6 -1 10 -9 10 -9 0 -16 -4 -16 -10 0 -5 -9 -10 -20 -10 -11 0 -20 -4
-20 -10 0 -5 -10 -10 -21 -10 -18 0 -19 -2 -9 -15 17 -20 27 -19 33 5 3 11 11
20 17 20 10 0 10 -3 1 -14 -10 -12 -9 -13 8 -9 12 3 17 11 14 19 -6 15 12 20
21 5 8 -13 78 5 92 24 8 10 13 12 16 5 3 -10 47 -14 188 -21 8 0 26 -4 40 -9
14 -4 59 -16 100 -25 80 -19 113 -38 142 -86 23 -37 23 -39 -3 -34 -12 3 -18
1 -15 -3 4 -4 13 -7 19 -7 6 0 15 -19 20 -42 4 -24 13 -43 19 -43 5 0 8 10 5
23 -3 12 -9 43 -12 70 -4 26 -11 50 -16 53 -5 3 -9 15 -9 26 0 12 -3 18 -7 14
-4 -3 -20 6 -37 22 -65 60 -319 102 -463 77z"/>
<path d="M290 868 c0 -21 59 -41 94 -32 39 9 23 18 -28 15 -34 -1 -47 2 -55
16 -9 16 -10 16 -11 1z"/>
<path d="M2373 822 c-13 -2 -23 -7 -23 -12 0 -5 -7 -6 -17 -3 -11 4 -14 3 -9
-5 4 -7 3 -12 -3 -12 -5 0 -12 6 -14 13 -4 7 -8 3 -12 -10 -4 -13 -11 -23 -15
-23 -5 0 -17 -3 -27 -6 -16 -5 -16 -4 1 10 27 22 14 20 -31 -5 -44 -24 -67
-44 -40 -34 10 4 17 2 17 -4 0 -6 -4 -11 -10 -11 -5 0 -10 -7 -10 -15 0 -8 -5
-14 -11 -12 -7 1 -26 -23 -43 -54 -17 -30 -39 -66 -48 -79 -10 -14 -18 -32
-18 -42 0 -9 -4 -20 -10 -23 -5 -3 -10 -20 -10 -36 0 -17 -4 -28 -8 -25 -4 2
-9 -12 -10 -32 -2 -24 1 -32 6 -24 9 14 23 -42 26 -100 0 -14 4 -29 7 -32 4
-4 6 49 5 116 l-1 123 38 73 c21 40 54 91 74 113 99 109 301 149 478 94 44
-14 86 -25 93 -25 36 0 79 -85 120 -235 29 -104 49 -207 58 -284 3 -29 21 -57
31 -47 2 1 -5 27 -14 57 -14 43 -17 85 -15 202 2 108 0 147 -8 142 -7 -4 -9
-17 -7 -29 3 -11 2 -30 -2 -41 -6 -15 -10 -5 -15 37 -5 41 -11 55 -20 52 -16
-6 -26 25 -26 87 0 35 -6 51 -23 67 -13 12 -27 19 -30 15 -4 -3 -7 -2 -7 4 0
5 -6 10 -12 11 -7 0 -60 12 -118 25 -106 24 -256 35 -245 16 4 -5 2 -9 -4 -9
-5 0 -11 3 -13 8 -1 4 -13 6 -25 4z"/>
<path d="M242 800 c2 -9 -4 -14 -15 -14 -13 1 -16 -3 -12 -16 3 -10 0 -20 -8
-23 -8 -3 -13 -18 -12 -37 1 -20 -2 -27 -8 -21 -12 12 -56 -65 -59 -104 -1
-14 -6 -25 -11 -25 -4 0 -7 10 -5 21 2 18 -3 22 -30 24 -18 2 -41 10 -51 19
-14 13 -18 13 -18 2 0 -8 18 -19 43 -26 28 -8 44 -19 48 -32 3 -14 10 -19 20
-15 9 4 16 2 16 -3 0 -17 56 -11 73 8 19 21 22 32 8 32 -5 0 -11 -9 -14 -20
-5 -20 -37 -29 -37 -10 0 6 5 10 12 10 6 0 8 3 4 7 -4 5 -14 -1 -22 -11 -8
-11 -14 -18 -15 -15 0 2 -2 13 -4 24 -4 24 27 92 39 85 15 -8 78 132 65 144
-7 8 -9 7 -7 -4z"/>
<path d="M458 775 c-3 -3 -15 -8 -28 -10 -12 -2 -29 -13 -38 -23 -13 -15 -22
-17 -41 -10 -13 4 -26 6 -29 3 -3 -3 0 -5 6 -5 20 0 14 -16 -10 -29 -14 -7
-16 -9 -5 -6 10 3 26 5 35 5 9 0 31 12 47 28 17 15 37 28 45 30 21 5 47 21 34
22 -6 0 -13 -2 -16 -5z"/>
<path d="M20 550 c13 -8 13 -10 -1 -15 -16 -6 -24 -45 -9 -45 15 0 39 41 33
56 -3 8 -13 14 -22 14 -14 0 -14 -2 -1 -10z"/>
<path d="M2064 188 c4 -24 9 -59 11 -80 3 -20 9 -48 15 -63 6 -15 8 -31 4 -36
-3 -5 0 -9 6 -9 7 0 9 12 5 33 -11 56 -13 70 -20 135 -4 34 -12 62 -17 62 -7
0 -8 -16 -4 -42z"/>
</g>
</svg>
