<?xml version="1.0" standalone="no"?>
<!DOCTYPE svg PUBLIC "-//W3C//DTD SVG 20010904//EN"
 "http://www.w3.org/TR/2001/REC-SVG-20010904/DTD/svg10.dtd">
<svg version="1.0" xmlns="http://www.w3.org/2000/svg"
 width="300.000000pt" height="435.000000pt" viewBox="0 0 300.000000 435.000000"
 preserveAspectRatio="xMidYMid meet">
<metadata>
Created by potrace 1.10, written by Peter Selinger 2001-2011
</metadata>
<g transform="translate(0.000000,435.000000) scale(0.100000,-0.100000)"
fill="#000000" stroke="none">
<path d="M879 3196 c-76 -17 -163 -81 -219 -163 -24 -35 -69 -82 -99 -105 -91
-68 -140 -119 -176 -183 -62 -112 -78 -162 -86 -285 -8 -122 -21 -174 -86
-325 -25 -60 -51 -103 -79 -130 -44 -44 -64 -100 -53 -150 11 -51 10 -285 -2
-308 -6 -12 -28 -40 -48 -61 l-36 -39 32 22 c17 12 42 38 54 58 20 33 23 50
23 147 -1 61 -3 149 -5 194 l-4 84 37 31 c26 23 52 65 88 142 64 136 90 234
90 336 0 58 6 95 24 142 56 150 99 209 222 306 38 30 89 82 114 117 52 74 137
139 201 153 93 21 301 13 344 -13 24 -15 167 -62 215 -71 19 -4 46 -18 61 -31
14 -13 53 -35 88 -49 65 -25 98 -47 185 -123 105 -91 121 -110 149 -178 44
-109 73 -159 93 -162 29 -6 94 -72 115 -118 16 -36 24 -42 60 -48 22 -4 44 -4
48 -2 5 3 19 -6 32 -20 20 -22 23 -34 22 -98 -2 -67 1 -76 28 -109 16 -19 49
-45 72 -56 40 -19 47 -20 78 -7 33 14 36 13 68 -13 33 -27 33 -28 23 -77 l-11
-49 80 -77 c43 -42 79 -82 79 -88 0 -5 -16 -27 -35 -49 -19 -21 -35 -45 -35
-52 0 -26 64 -107 97 -123 46 -22 88 -114 96 -213 7 -92 44 -172 99 -216 l40
-32 -6 -70 c-8 -87 -27 -111 -79 -101 -40 7 -70 34 -139 122 -25 32 -101 115
-169 183 -113 115 -129 127 -216 167 -52 24 -113 57 -136 72 -23 16 -62 36
-87 46 -24 10 -70 36 -101 59 -87 64 -128 152 -149 318 -15 124 -42 182 -137
292 -44 52 -89 107 -99 123 -10 16 -39 52 -65 80 -79 86 -119 192 -119 319 0
36 -5 86 -11 110 -9 37 -17 46 -50 59 -24 10 -70 16 -115 16 -47 0 -86 6 -104
15 -42 22 -269 6 -284 -19 -6 -10 -23 -34 -38 -53 -16 -20 -28 -42 -28 -49 0
-8 -15 -31 -34 -51 -49 -56 -57 -78 -58 -151 0 -70 -18 -134 -45 -164 -18 -20
-38 -126 -55 -296 -9 -89 -9 -122 1 -155 6 -23 16 -80 21 -126 6 -47 17 -96
26 -109 20 -30 10 -38 -54 -48 -30 -4 -48 -14 -59 -30 -14 -22 -14 -28 5 -77
24 -58 34 -98 53 -207 10 -60 20 -82 46 -111 31 -34 37 -37 111 -42 128 -10
175 -18 222 -39 99 -42 94 -37 104 -113 9 -73 4 -106 -49 -290 -58 -206 -87
-350 -80 -394 11 -62 53 -139 98 -181 24 -23 50 -59 57 -79 14 -42 91 -101
132 -101 45 0 56 19 68 120 6 52 16 113 22 135 6 22 10 67 9 100 -1 33 5 89
13 125 39 166 56 252 66 335 5 50 17 124 26 165 9 41 17 125 18 185 1 99 -1
114 -22 148 -21 33 -79 87 -95 87 -3 0 19 -25 50 -56 l56 -56 -6 -146 c-4 -81
-11 -163 -17 -182 -5 -20 -14 -77 -19 -127 -9 -83 -18 -131 -67 -343 -8 -36
-16 -99 -18 -140 -2 -41 -11 -132 -21 -202 l-19 -126 -29 -6 c-44 -9 -122 43
-138 92 -7 21 -35 59 -63 87 -42 40 -56 64 -74 119 -20 61 -22 75 -12 125 14
69 44 192 72 291 57 207 60 223 53 304 -7 90 -11 96 -105 132 -52 20 -131 35
-260 50 -69 8 -93 34 -114 125 -8 35 -22 95 -30 132 -9 38 -23 84 -32 103 -15
32 -15 36 0 53 9 10 35 21 57 25 21 3 48 15 59 26 29 29 68 25 159 -15 43 -19
85 -35 91 -35 7 0 24 -6 38 -13 15 -8 43 -22 63 -31 20 -10 41 -28 46 -39 6
-12 24 -51 41 -87 18 -36 32 -71 32 -77 0 -20 58 -16 88 6 15 10 45 25 67 32
21 8 62 37 91 64 47 46 57 64 119 220 l67 170 5 151 c5 166 -2 208 -45 278
-29 49 -40 53 -147 68 -89 12 -111 11 -144 -4 -60 -29 -80 -196 -36 -303 24
-59 31 -108 19 -151 -5 -20 -9 -21 -42 -12 -26 7 -51 7 -84 -2 -65 -16 -138
-5 -138 22 0 40 33 134 56 158 21 23 24 35 26 138 l2 112 -37 37 -37 37 -131
4 -131 4 -28 -33 c-33 -38 -40 -31 -11 9 35 51 51 103 51 174 0 73 13 109 50
143 12 11 31 36 41 55 32 58 69 105 88 112 34 12 225 13 248 0 12 -7 58 -12
102 -12 90 0 146 -19 155 -54 3 -12 6 -50 6 -85 0 -147 62 -308 148 -383 17
-15 40 -45 51 -65 10 -21 29 -47 41 -58 51 -45 141 -166 159 -214 12 -28 26
-92 32 -143 12 -98 37 -179 74 -238 27 -43 114 -110 174 -134 24 -9 62 -29 85
-45 22 -15 89 -51 147 -79 104 -50 110 -55 238 -189 72 -76 149 -163 172 -193
46 -62 95 -93 142 -88 43 4 67 52 67 132 0 56 -2 61 -39 93 -53 45 -87 121
-95 208 -9 95 -57 198 -102 220 -27 13 -94 94 -94 115 0 4 12 17 26 31 14 13
32 36 40 50 13 25 11 28 -43 80 -112 108 -105 97 -98 159 6 55 6 56 -30 81
-32 24 -39 25 -76 15 -35 -9 -46 -8 -84 13 -64 34 -79 62 -80 146 0 57 -5 77
-23 103 -21 29 -29 32 -73 32 -46 0 -50 2 -63 33 -19 45 -94 127 -116 127 -22
0 -56 44 -66 86 -4 16 -22 59 -40 96 -29 57 -49 80 -146 162 -83 71 -127 101
-172 117 -34 12 -74 34 -91 49 -18 17 -50 32 -80 38 -27 6 -88 25 -135 42
-150 56 -293 72 -411 46z m148 -808 l33 -32 0 -108 c0 -103 -1 -110 -24 -131
-25 -22 -74 -172 -61 -185 14 -15 111 -28 138 -19 16 5 55 7 87 4 53 -4 59 -3
64 17 12 46 5 109 -20 169 -23 53 -26 72 -21 132 8 110 21 142 63 155 20 7 50
9 67 5 18 -4 63 -10 100 -15 74 -9 81 -13 119 -90 21 -42 23 -57 21 -212 l-1
-166 -47 -114 c-25 -62 -55 -138 -66 -169 -26 -74 -84 -130 -185 -180 -94 -47
-111 -48 -120 -11 -4 15 -15 38 -24 52 -10 14 -23 42 -29 62 -13 39 -62 88
-88 88 -8 0 -27 6 -41 14 -74 38 -193 80 -242 85 l-55 6 -6 60 c-3 33 -13 85
-22 116 -9 31 -18 83 -19 115 -3 83 5 196 13 183 3 -6 9 22 13 62 6 55 14 80
33 106 l25 33 131 0 131 0 33 -32z"/>
</g>
</svg>
